<svg width="18" height="18" viewBox="0 0 18 18" fill="none" xmlns="http://www.w3.org/2000/svg">
<path d="M8.99984 17.9577C4.05817 17.9577 0.0415039 13.941 0.0415039 8.99935C0.0415039 4.05768 4.05817 0.0410156 8.99984 0.0410156C13.9415 0.0410156 17.9582 4.05768 17.9582 8.99935C17.9582 13.941 13.9415 17.9577 8.99984 17.9577ZM8.99984 1.29102C4.74984 1.29102 1.2915 4.74935 1.2915 8.99935C1.2915 13.2493 4.74984 16.7077 8.99984 16.7077C13.2498 16.7077 16.7082 13.2493 16.7082 8.99935C16.7082 4.74935 13.2498 1.29102 8.99984 1.29102Z" fill="#004C97"/>
<path d="M7.95006 12.5668C7.79173 12.5668 7.6334 12.5085 7.5084 12.3835C7.26673 12.1418 7.26673 11.7418 7.5084 11.5001L10.0084 9.00013L7.5084 6.50013C7.26673 6.25846 7.26673 5.85846 7.5084 5.6168C7.75007 5.37513 8.15007 5.37513 8.39173 5.6168L11.3334 8.55846C11.5751 8.80013 11.5751 9.20013 11.3334 9.4418L8.39173 12.3835C8.26673 12.5085 8.1084 12.5668 7.95006 12.5668Z" fill="#004C97"/>
</svg>
