<svg width="191" height="186" viewBox="0 0 191 186" fill="none" xmlns="http://www.w3.org/2000/svg">
<path d="M175.66 54.702C174.232 30.4563 152.147 16.7099 129.398 12.3903C42.8211 -4.0505 -29.9577 130.368 55.267 149.663C88.4042 157.166 100.453 167.79 116.451 182.619C123.012 188.701 133.136 186.148 137.404 178.391C143.361 167.565 138.215 154.743 139.59 143.168C143.401 111.089 177.656 88.598 175.66 54.702Z" fill="#F8EDF5"/>
<path fillRule="evenodd" clipRule="evenodd" d="M175.591 88.2441L175.591 90.3089C175.591 91.3839 174.721 92.2556 173.65 92.2556C172.579 92.2556 171.71 91.3827 171.71 90.3089L171.71 88.2441L169.652 88.2441C168.581 88.2441 167.711 87.3713 167.711 86.2974C167.711 85.2236 168.581 84.3495 169.652 84.3495L171.71 84.3495L171.71 82.2848C171.71 81.2098 172.58 80.3369 173.65 80.3369C174.72 80.3369 175.591 81.2098 175.591 82.2848L175.591 84.3495L177.648 84.3495C178.72 84.3495 179.59 85.2224 179.59 86.2974C179.59 87.3724 178.72 88.2441 177.648 88.2441L175.591 88.2441Z" fill="#D9A4C8"/>
<path fillRule="evenodd" clipRule="evenodd" d="M159.29 71.0294L158.098 71.0294C157.453 71.0294 156.93 70.5048 156.93 69.8574C156.93 69.2101 157.453 68.6854 158.098 68.6854L159.29 68.6854C159.935 68.6854 160.458 69.2101 160.458 69.8574C160.458 70.5048 159.934 71.0294 159.29 71.0294ZM162.94 66.172L162.94 67.3685C162.94 68.0159 162.417 68.5405 161.772 68.5405C161.127 68.5405 160.604 68.0147 160.604 67.3685L160.604 66.172C160.604 65.5247 161.128 65 161.772 65C162.416 65 162.94 65.5247 162.94 66.172ZM162.94 72.3475L162.94 73.5441C162.94 74.1914 162.417 74.7161 161.772 74.7161C161.127 74.7161 160.604 74.1914 160.604 73.5441L160.604 72.3475C160.604 71.7002 161.128 71.1755 161.772 71.1755C162.416 71.1755 162.94 71.7013 162.94 72.3475ZM165.444 71.0306L164.252 71.0306C163.607 71.0306 163.084 70.506 163.084 69.8586C163.084 69.2113 163.607 68.6866 164.252 68.6866L165.444 68.6866C166.089 68.6866 166.612 69.2113 166.612 69.8586C166.612 70.506 166.089 71.0306 165.444 71.0306Z" fill="#D9A4C8"/>
<path fillRule="evenodd" clipRule="evenodd" d="M165.231 109.911L164.038 109.911C163.393 109.911 162.87 109.386 162.87 108.739C162.87 108.091 163.394 107.567 164.038 107.567L165.231 107.567C165.876 107.567 166.399 108.093 166.399 108.739C166.399 109.385 165.875 109.911 165.231 109.911ZM168.88 105.053L168.88 106.25C168.88 106.897 168.356 107.423 167.712 107.423C167.068 107.423 166.544 106.897 166.544 106.25L166.544 105.053C166.544 104.406 167.068 103.881 167.712 103.881C168.356 103.881 168.88 104.407 168.88 105.053ZM168.88 111.229L168.88 112.425C168.88 113.073 168.356 113.597 167.712 113.597C167.068 113.597 166.544 113.073 166.544 112.425L166.544 111.229C166.544 110.582 167.068 110.057 167.712 110.057C168.356 110.057 168.88 110.582 168.88 111.229ZM171.385 109.912L170.192 109.912C169.547 109.912 169.024 109.387 169.024 108.74C169.024 108.093 169.547 107.568 170.192 107.568L171.385 107.568C172.03 107.568 172.553 108.094 172.553 108.74C172.553 109.386 172.029 109.912 171.385 109.912Z" fill="#D9A4C8"/>
<path d="M181.713 72.8233C182.523 72.9547 183.285 72.4022 183.416 71.5892C183.547 70.7763 182.997 70.0108 182.187 69.8795C181.377 69.7481 180.614 70.3006 180.483 71.1135C180.352 71.9264 180.903 72.6919 181.713 72.8233Z" fill="#D9A4C8"/>
<path d="M187.993 102.388C187.993 103.211 188.659 103.879 189.479 103.879C190.3 103.879 190.965 103.211 190.965 102.388C190.965 101.565 190.3 100.897 189.479 100.897C188.659 100.897 187.993 101.565 187.993 102.388Z" fill="#D9A4C8"/>
<path d="M156.564 92.5118C156.876 93.2736 157.744 93.6376 158.503 93.3248C159.262 93.0121 159.625 92.1411 159.313 91.3793C159.002 90.6175 158.134 90.2535 157.374 90.5663C156.615 90.879 156.253 91.75 156.564 92.5118Z" fill="#D9A4C8"/>
<path fillRule="evenodd" clipRule="evenodd" d="M20.591 122.244L20.591 124.309C20.591 125.384 19.7211 126.256 18.6499 126.256C17.5786 126.256 16.7099 125.383 16.7099 124.309L16.7099 122.244L14.6524 122.244C13.5811 122.244 12.7113 121.371 12.7113 120.297C12.7113 119.224 13.5811 118.35 14.6524 118.35L16.7099 118.35L16.7099 116.285C16.7099 115.21 17.5797 114.337 18.6499 114.337C19.72 114.337 20.591 115.21 20.591 116.285L20.591 118.35L22.6485 118.35C23.7198 118.35 24.5896 119.222 24.5896 120.297C24.5896 121.372 23.7198 122.244 22.6485 122.244L20.591 122.244Z" fill="#D9A4C8"/>
<path fillRule="evenodd" clipRule="evenodd" d="M4.29032 105.029L3.09793 105.029C2.45284 105.029 1.93003 104.505 1.93003 103.857C1.93003 103.21 2.45284 102.685 3.09793 102.685L4.29032 102.685C4.93541 102.685 5.45822 103.21 5.45822 103.857C5.45822 104.505 4.93424 105.029 4.29032 105.029ZM7.93962 100.172L7.93962 101.369C7.93962 102.016 7.41679 102.541 6.7717 102.541C6.12661 102.541 5.60378 102.015 5.60378 101.369L5.60378 100.172C5.60378 99.5247 6.12777 99 6.7717 99C7.41562 99 7.93962 99.5247 7.93962 100.172ZM7.93962 106.348L7.93962 107.544C7.93962 108.191 7.41679 108.716 6.7717 108.716C6.12661 108.716 5.60378 108.191 5.60378 107.544L5.60378 106.348C5.60378 105.7 6.12777 105.176 6.7717 105.176C7.41562 105.176 7.93962 105.701 7.93962 106.348ZM10.4443 105.031L9.25192 105.031C8.60683 105.031 8.084 104.506 8.084 103.859C8.084 103.211 8.60683 102.687 9.25193 102.687L10.4443 102.687C11.0894 102.687 11.6122 103.211 11.6122 103.859C11.6122 104.506 11.0894 105.031 10.4443 105.031Z" fill="#D9A4C8"/>
<path fillRule="evenodd" clipRule="evenodd" d="M10.2307 143.911L9.03828 143.911C8.39319 143.911 7.87038 143.386 7.87038 142.739C7.87038 142.091 8.39436 141.567 9.03828 141.567L10.2307 141.567C10.8757 141.567 11.3986 142.093 11.3986 142.739C11.3986 143.385 10.8746 143.911 10.2307 143.911ZM13.88 139.053L13.88 140.25C13.88 140.897 13.356 141.423 12.712 141.423C12.0681 141.423 11.5441 140.897 11.5441 140.25L11.5441 139.053C11.5441 138.406 12.0681 137.881 12.712 137.881C13.356 137.881 13.88 138.407 13.88 139.053ZM13.88 145.229L13.88 146.425C13.88 147.073 13.356 147.597 12.712 147.597C12.0681 147.597 11.5441 147.073 11.5441 146.425L11.5441 145.229C11.5441 144.582 12.0681 144.057 12.712 144.057C13.356 144.057 13.88 144.582 13.88 145.229ZM16.3846 143.912L15.1923 143.912C14.5472 143.912 14.0244 143.387 14.0244 142.74C14.0244 142.093 14.5472 141.568 15.1923 141.568L16.3846 141.568C17.0297 141.568 17.5526 142.094 17.5526 142.74C17.5526 143.386 17.0286 143.912 16.3846 143.912Z" fill="#D9A4C8"/>
<path d="M26.7126 106.823C27.5226 106.955 28.2855 106.402 28.4164 105.589C28.5473 104.776 27.9967 104.011 27.1866 103.879C26.3766 103.748 25.6137 104.301 25.4828 105.114C25.3519 105.926 25.9025 106.692 26.7126 106.823Z" fill="#D9A4C8"/>
<path d="M32.9933 136.388C32.9933 137.211 33.6585 137.879 34.4791 137.879C35.2997 137.879 35.9649 137.211 35.9649 136.388C35.9649 135.565 35.2997 134.897 34.4791 134.897C33.6585 134.897 32.9933 135.565 32.9933 136.388Z" fill="#D9A4C8"/>
<path d="M0.564275 128.326C0.875917 129.088 1.74393 129.452 2.50304 129.139C3.26215 128.827 3.62489 127.956 3.31325 127.194C3.0016 126.432 2.13359 126.068 1.37448 126.381C0.615376 126.693 0.252633 127.564 0.564275 128.326Z" fill="#D9A4C8"/>
<path fillRule="evenodd" clipRule="evenodd" d="M52.2657 79.0262C49.3562 73.1041 43.0603 69 35.7689 69C27.6528 69 20.7675 74.0858 18.4162 81.1051C13.1658 81.4117 8.94841 85.4381 9.00048 90.6852C9.00464 91.179 62.9997 91.0237 62.9997 90.6852C63.031 82.7479 60.1798 78.9545 53.6132 78.9545C53.1592 78.9545 52.7093 78.9784 52.2657 79.0262Z" fill="#DCF5F6"/>
<path fillRule="evenodd" clipRule="evenodd" d="M172.067 40.3934C169.104 33.6637 162.691 29 155.265 29C146.998 29 139.985 34.7793 137.591 42.7558C132.243 43.1042 127.947 47.6797 128 53.6423C128.005 54.2034 183 54.0269 183 53.6423C183.032 44.6226 180.128 40.3119 173.439 40.3119C172.977 40.3119 172.519 40.3391 172.067 40.3934Z" fill="#DCF5F6"/>
<path d="M122.664 159.922H70.3361C64.6729 159.922 60.0822 155.331 60.0822 149.668V41.7544C60.0822 36.0912 64.6729 31.5005 70.3361 31.5005H122.664C128.327 31.5005 132.918 36.0912 132.918 41.7544V149.668C132.918 155.331 128.327 159.922 122.664 159.922Z" fill="#D9A4C8"/>
<path d="M127.791 41.7554V149.667C127.791 152.499 125.495 154.794 122.664 154.794H70.3348C67.5033 154.794 65.2078 152.499 65.2078 149.667V41.7554C65.2078 38.9239 67.5033 36.6284 70.3348 36.6284H83.9793C85.314 36.6284 86.3958 37.7102 86.3958 39.0449C86.3958 40.9327 87.926 42.4629 89.8138 42.4629H103.185C105.073 42.4629 106.603 40.9327 106.603 39.0449C106.603 37.7102 107.685 36.6284 109.019 36.6284H122.664C125.496 36.6284 127.791 38.9236 127.791 41.7554Z" fill="white"/>
<path d="M46.5184 110.616L58.0031 161.501C58.5308 163.839 60.6076 165.5 63.0043 165.5H129.996C132.393 165.5 134.47 163.839 134.997 161.501L146.482 110.616H46.5184ZM73.2664 151.703C73.2664 153.511 71.8011 154.977 69.9933 154.977C68.1856 154.977 66.7203 153.511 66.7203 151.703V144.841C66.7203 143.033 68.1856 141.568 69.9933 141.568C71.8011 141.568 73.2664 143.033 73.2664 144.841V151.703ZM86.5199 151.703C86.5199 153.511 85.0546 154.977 83.2468 154.977C81.4391 154.977 79.9738 153.511 79.9738 151.703V144.841C79.9738 143.033 81.4391 141.568 83.2468 141.568C85.0546 141.568 86.5199 143.033 86.5199 144.841V151.703ZM99.773 151.703C99.773 153.511 98.3074 154.977 96.5 154.977C94.6926 154.977 93.227 153.511 93.227 151.703V144.841C93.227 143.033 94.6926 141.568 96.5 141.568C98.3074 141.568 99.773 143.033 99.773 144.841V151.703ZM113.027 151.703C113.027 153.511 111.561 154.977 109.754 154.977C107.946 154.977 106.48 153.511 106.48 151.703V144.841C106.48 143.033 107.946 141.568 109.754 141.568C111.561 141.568 113.027 143.033 113.027 144.841V151.703ZM126.28 151.703C126.28 153.511 124.815 154.977 123.007 154.977C121.199 154.977 119.734 153.511 119.734 151.703V144.841C119.734 143.033 121.199 141.568 123.007 141.568C124.815 141.568 126.28 143.033 126.28 144.841V151.703Z" fill="url(#paint0_linear_3873_162450)"/>
<path d="M146.482 112.848H46.5184C44.6306 112.848 43.1004 111.318 43.1004 109.43V103.373C43.1004 101.485 44.6306 99.9546 46.5184 99.9546H146.482C148.369 99.9546 149.9 101.485 149.9 103.373V109.43C149.9 111.318 148.369 112.848 146.482 112.848Z" fill="#F0DBE9"/>
<path d="M94.0832 121.536L91.6865 119.14C90.3518 117.805 90.3518 115.641 91.6865 114.306L136.106 69.8863C137.441 68.5516 139.605 68.5516 140.94 69.8863L143.336 72.283C144.671 73.6177 144.671 75.7819 143.336 77.1167L98.9169 121.536C97.5821 122.871 95.4179 122.871 94.0832 121.536Z" fill="#F0DBE9"/>
<path d="M60.9254 134.205C59.9814 134.205 59.2165 133.44 59.2165 132.496V132.457C59.2165 131.513 59.9814 130.748 60.9254 130.748C61.8695 130.748 62.6344 131.513 62.6344 132.457V132.496C62.6344 133.44 61.8695 134.205 60.9254 134.205Z" fill="white"/>
<path d="M59.1696 128.074C58.2256 128.074 57.4606 127.309 57.4606 126.365V126.326C57.4606 125.382 58.2256 124.617 59.1696 124.617C60.1137 124.617 60.8786 125.382 60.8786 126.326V126.365C60.8786 127.309 60.1137 128.074 59.1696 128.074Z" fill="white"/>
<path d="M66.7199 134.205C65.7759 134.205 65.0109 133.44 65.0109 132.496V132.457C65.0109 131.513 65.7759 130.748 66.7199 130.748C67.664 130.748 68.4289 131.513 68.4289 132.457V132.496C68.4289 133.44 67.664 134.205 66.7199 134.205Z" fill="white"/>
<path d="M64.9641 128.074C64.0201 128.074 63.2551 127.309 63.2551 126.365V126.326C63.2551 125.382 64.0201 124.617 64.9641 124.617C65.9082 124.617 66.6731 125.382 66.6731 126.326V126.365C66.6731 127.309 65.9082 128.074 64.9641 128.074Z" fill="white"/>
<path d="M72.5144 134.205C71.5704 134.205 70.8054 133.44 70.8054 132.496V132.457C70.8054 131.513 71.5704 130.748 72.5144 130.748C73.4584 130.748 74.2234 131.513 74.2234 132.457V132.496C74.2234 133.44 73.4584 134.205 72.5144 134.205Z" fill="white"/>
<path d="M70.7586 128.074C69.8146 128.074 69.0496 127.309 69.0496 126.365V126.326C69.0496 125.382 69.8146 124.617 70.7586 124.617C71.7026 124.617 72.4676 125.382 72.4676 126.326V126.365C72.4676 127.309 71.7023 128.074 70.7586 128.074Z" fill="white"/>
<path d="M74.6096 55.2871V79.2953C74.6096 80.239 73.8443 81.0042 72.9006 81.0042H51.9598L48.1111 83.7427C46.9798 84.548 45.4113 83.739 45.4113 82.3502V55.2871C45.4113 54.3434 46.1766 53.5781 47.1203 53.5781H72.9006C73.8443 53.5781 74.6096 54.3431 74.6096 55.2871Z" fill="white"/>
<path d="M55.3766 72.7645C55.0612 72.7645 54.7458 72.6484 54.4968 72.3995C54.0154 71.9182 54.0154 71.1216 54.4968 70.6404L63.8928 61.2477C64.3742 60.7664 65.1711 60.7664 65.6525 61.2477C66.1339 61.7289 66.1339 62.5255 65.6525 63.0067L56.2565 72.3995C56.0241 72.6484 55.6921 72.7645 55.3766 72.7645Z" fill="#B44B92"/>
<path d="M64.7727 72.7645C64.4573 72.7645 64.1418 72.6484 63.8928 72.3995L54.4968 63.0067C54.0154 62.5255 54.0154 61.7289 54.4968 61.2477C54.9782 60.7664 55.7751 60.7664 56.2565 61.2477L65.6525 70.6404C66.1339 71.1216 66.1339 71.9182 65.6525 72.3995C65.4035 72.6484 65.0881 72.7645 64.7727 72.7645Z" fill="#B44B92"/>
<path d="M146.481 98.2471H134.627V88.2427L144.545 78.3251C146.544 76.3259 146.544 73.0734 144.545 71.0746L142.148 68.6779C140.15 66.6794 136.897 66.6787 134.898 68.6779L92.436 111.14H46.519C45.5767 111.14 44.8101 110.373 44.8101 109.431V103.374C44.8101 102.432 45.5767 101.665 46.519 101.665H94.3159C95.26 101.665 96.0249 100.9 96.0249 99.9561C96.0249 99.0124 95.26 98.2471 94.3159 98.2471H61.7905V82.7134H72.9003C74.785 82.7134 76.3183 81.1801 76.3183 79.2955V55.2873C76.3183 53.4026 74.785 51.8693 72.9003 51.8693H61.7905V41.7549C61.7905 37.0432 65.6238 33.21 70.3354 33.21H122.665C127.376 33.21 131.209 37.0432 131.209 41.7549V62.1431C131.209 63.0868 131.974 63.8521 132.918 63.8521C133.863 63.8521 134.627 63.0868 134.627 62.1431V41.7549C134.627 35.1585 129.261 29.792 122.665 29.792H70.3354C63.7391 29.792 58.3726 35.1585 58.3726 41.7549V51.8693H47.1199C45.2353 51.8693 43.702 53.4026 43.702 55.2873V82.3504C43.702 83.6353 44.4112 84.7991 45.5531 85.388C46.0494 85.644 46.5867 85.7705 47.122 85.7705C47.8179 85.7705 48.51 85.5565 49.1017 85.1354L52.5056 82.7134H58.3726V98.2471H46.519C43.692 98.2471 41.3921 100.547 41.3921 103.374V109.431C41.3921 111.957 43.2296 114.057 45.6372 114.476L56.3361 161.875C57.043 165.015 59.7849 167.208 63.0039 167.208H129.996C133.215 167.208 135.957 165.015 136.664 161.876L147.363 114.476C149.77 114.057 151.608 111.957 151.608 109.431V103.374C151.608 100.547 149.308 98.2471 146.481 98.2471ZM51.9598 79.2955C51.6046 79.2955 51.2581 79.4062 50.9692 79.612L47.1203 82.3504V55.2873L72.9006 55.2853V79.2955H51.9598ZM131.209 98.2471H124.623L131.209 91.661V98.2471ZM137.315 71.0951C137.981 70.4286 139.066 70.4289 139.731 71.0951L142.128 73.4918C142.794 74.1579 142.794 75.2424 142.128 75.9086L97.7086 120.328C97.0418 120.995 95.9583 120.995 95.2914 120.328L92.8947 117.932C92.5721 117.609 92.3943 117.18 92.3943 116.723C92.3943 116.267 92.5721 115.838 92.8947 115.515L137.315 71.0951ZM133.329 161.125C132.976 162.694 131.605 163.79 129.996 163.79H63.0039C61.3947 163.79 60.0241 162.694 59.6704 161.124L49.1591 114.558H89.4597C89.1466 115.228 88.9764 115.961 88.9764 116.723C88.9764 118.092 89.5099 119.38 90.4779 120.348L92.8746 122.745C93.874 123.744 95.1875 124.244 96.5 124.244C97.8125 124.244 99.126 123.744 100.125 122.745L108.312 114.557H143.841L133.329 161.125ZM148.19 109.431C148.19 110.373 147.423 111.14 146.481 111.14H111.73L121.207 101.663C121.212 101.663 121.217 101.665 121.222 101.665H146.481C147.423 101.665 148.19 102.432 148.19 103.374V109.431Z" fill="#363636"/>
<path d="M69.993 156.685C72.74 156.685 74.975 154.45 74.975 151.703V144.841C74.975 142.093 72.74 139.858 69.993 139.858C67.2459 139.858 65.0109 142.093 65.0109 144.841V151.703C65.0109 154.45 67.2459 156.685 69.993 156.685ZM68.4289 144.841C68.4289 143.978 69.1306 143.276 69.993 143.276C70.8553 143.276 71.557 143.978 71.557 144.841V151.703C71.557 152.566 70.8553 153.268 69.993 153.268C69.1306 153.268 68.4289 152.566 68.4289 151.703V144.841Z" fill="#B44B92"/>
<path d="M83.2468 156.685C85.9938 156.685 88.2289 154.45 88.2289 151.703V144.841C88.2289 142.093 85.9938 139.858 83.2468 139.858C80.4995 139.858 78.2645 142.093 78.2645 144.841V151.703C78.2641 154.45 80.4995 156.685 83.2468 156.685ZM81.6821 144.841C81.6821 143.978 82.3841 143.276 83.2465 143.276C84.1088 143.276 84.8105 143.978 84.8105 144.841V151.703C84.8105 152.566 84.1088 153.268 83.2465 153.268C82.3841 153.268 81.6821 152.566 81.6821 151.703V144.841Z" fill="#B44B92"/>
<path d="M96.5 156.685C99.247 156.685 101.482 154.45 101.482 151.703V144.841C101.482 142.093 99.247 139.858 96.5 139.858C93.753 139.858 91.518 142.093 91.518 144.841V151.703C91.518 154.45 93.753 156.685 96.5 156.685ZM94.9359 144.841C94.9359 143.978 95.6376 143.276 96.5 143.276C97.3624 143.276 98.0641 143.978 98.0641 144.841V151.703C98.0641 152.566 97.3624 153.268 96.5 153.268C95.6376 153.268 94.9359 152.566 94.9359 151.703V144.841Z" fill="#B44B92"/>
<path d="M109.753 156.685C112.5 156.685 114.735 154.45 114.735 151.703V144.841C114.735 142.093 112.5 139.858 109.753 139.858C107.006 139.858 104.771 142.093 104.771 144.841V151.703C104.771 154.45 107.006 156.685 109.753 156.685ZM108.189 144.841C108.189 143.978 108.891 143.276 109.753 143.276C110.616 143.276 111.317 143.978 111.317 144.841V151.703C111.317 152.566 110.616 153.268 109.753 153.268C108.891 153.268 108.189 152.566 108.189 151.703V144.841Z" fill="#B44B92"/>
<path d="M123.007 156.685C125.754 156.685 127.989 154.45 127.989 151.703V144.841C127.989 142.093 125.754 139.858 123.007 139.858C120.26 139.858 118.025 142.093 118.025 144.841V151.703C118.025 154.45 120.26 156.685 123.007 156.685ZM121.443 144.841C121.443 143.978 122.145 143.276 123.007 143.276C123.869 143.276 124.571 143.978 124.571 144.841V151.703C124.571 152.566 123.869 153.268 123.007 153.268C122.145 153.268 121.443 152.566 121.443 151.703V144.841Z" fill="#B44B92"/>
<path fillRule="evenodd" clipRule="evenodd" d="M74.1344 6.30203V7.32831C74.1344 7.88354 74.5805 8.33355 75.1309 8.33355C75.6813 8.33355 76.1273 7.88354 76.1273 7.32831V6.30203C76.1273 5.74779 75.6803 5.29679 75.1309 5.29679C74.5815 5.29679 74.1344 5.74779 74.1344 6.30203ZM78.2643 3.16103H77.247C76.6966 3.16103 76.2495 3.61204 76.2495 4.16627C76.2495 4.72051 76.6966 5.17151 77.247 5.17151H78.2643C78.8147 5.17151 79.2608 4.72151 79.2608 4.16627C79.2608 3.61104 78.8147 3.16103 78.2643 3.16103ZM73.0138 3.16103H71.9965C71.4461 3.16103 71 3.61204 71 4.16627C71 4.72051 71.4461 5.17151 71.9965 5.17151H73.0138C73.5632 5.17151 74.0102 4.72151 74.0102 4.16627C74.0102 3.61104 73.5632 3.16103 73.0138 3.16103ZM74.1334 1.00524V2.03152C74.1334 2.58676 74.5795 3.03676 75.1299 3.03676C75.6803 3.03676 76.1263 2.58576 76.1263 2.03152V1.00524C76.1263 0.450004 75.6793 0 75.1299 0C74.5805 0 74.1334 0.450004 74.1334 1.00524Z" fill="#D9A4C8"/>
<path fillRule="evenodd" clipRule="evenodd" d="M62.1334 21.303V22.3293C62.1334 22.8845 62.5805 23.3346 63.1299 23.3346C63.6793 23.3346 64.1263 22.8845 64.1263 22.3293V21.303C64.1263 20.7478 63.6803 20.2978 63.1299 20.2978C62.5795 20.2978 62.1334 20.7478 62.1334 21.303ZM66.2643 18.162H65.247C64.6976 18.162 64.2505 18.613 64.2505 19.1683C64.2505 19.7235 64.6976 20.1735 65.247 20.1735H66.2643C66.8147 20.1735 67.2607 19.7235 67.2607 19.1683C67.2607 18.613 66.8147 18.162 66.2643 18.162ZM61.0138 18.162H59.9965C59.4461 18.162 59 18.613 59 19.1683C59 19.7235 59.4461 20.1735 59.9965 20.1735H61.0138C61.5642 20.1735 62.0102 19.7235 62.0102 19.1683C62.0102 18.613 61.5632 18.162 61.0138 18.162ZM62.1334 16.0062V17.0325C62.1334 17.5878 62.5805 18.0378 63.1299 18.0378C63.6793 18.0378 64.1263 17.5868 64.1263 17.0325V16.0062C64.1263 15.451 63.6803 15 63.1299 15C62.5795 15 62.1334 15.451 62.1334 16.0062Z" fill="#D9A4C8"/>
<path d="M81.2677 25.5577C81.9678 25.5577 82.5354 24.9851 82.5354 24.2788C82.5354 23.5726 81.9678 23 81.2677 23C80.5676 23 80 23.5726 80 24.2788C80 24.9851 80.5676 25.5577 81.2677 25.5577Z" fill="#D9A4C8"/>
<path d="M49.2677 9.55769C49.9678 9.55769 50.5354 8.98513 50.5354 8.27885C50.5354 7.57256 49.9678 7 49.2677 7C48.5676 7 48 7.57256 48 8.27885C48 8.98513 48.5676 9.55769 49.2677 9.55769Z" fill="#D9A4C8"/>
<path d="M48.2677 31.3936C48.9678 31.3936 49.5354 30.8211 49.5354 30.1148C49.5354 29.4085 48.9678 28.8359 48.2677 28.8359C47.5676 28.8359 47 29.4085 47 30.1148C47 30.8211 47.5676 31.3936 48.2677 31.3936Z" fill="#D9A4C8"/>
<defs>
<linearGradient id="paint0_linear_3873_162450" x1="151.147" y1="133.019" x2="-4.26316" y2="133.019" gradientUnits="userSpaceOnUse">
<stop stop-color="#B44B92"/>
<stop offset="1" stop-color="#732280"/>
</linearGradient>
</defs>
</svg>
