<svg width="192" height="162" viewBox="0 0 192 162" fill="none" xmlns="http://www.w3.org/2000/svg">
<path fillRule="evenodd" clipRule="evenodd" d="M61.2657 73.0262C58.3562 67.1041 52.0603 63 44.7689 63C36.6528 63 29.7675 68.0858 27.4162 75.1051C22.1658 75.4117 17.9484 79.4381 18.0005 84.6852C18.0046 85.179 71.9997 85.0237 71.9997 84.6852C72.031 76.7479 69.1798 72.9545 62.6132 72.9545C62.1591 72.9545 61.7093 72.9784 61.2657 73.0262Z" fill="#DCF5F6"/>
<path d="M166.682 52.3223C164.862 47.3259 151.559 26.0397 137.89 20.4363C116.593 11.7052 97.188 19.5228 84.7763 44.9139C80.6624 53.3294 67.326 41.0461 61.2027 56.5482C58.1326 64.3206 63.2911 73.3951 60.0149 80.7037C53.3053 95.6723 28.0877 99.3162 24.7175 115.565C16.5882 154.764 75.7684 153.493 91.933 127.163C112.074 94.3545 122.587 184.566 152.055 155.495C194.307 113.811 113.974 108.886 165.142 67.517C169.278 64.1729 168.502 57.3184 166.682 52.3223Z" fill="#F8EDF5"/>
<path fillRule="evenodd" clipRule="evenodd" d="M176.591 91.2444L176.591 93.3091C176.591 94.3841 175.721 95.2558 174.65 95.2558C173.579 95.2558 172.71 94.383 172.71 93.3091L172.71 91.2444L170.652 91.2444C169.581 91.2444 168.711 90.3715 168.711 89.2977C168.711 88.2238 169.581 87.3498 170.652 87.3498L172.71 87.3498L172.71 85.285C172.71 84.21 173.58 83.3372 174.65 83.3372C175.72 83.3372 176.591 84.21 176.591 85.285L176.591 87.3498L178.648 87.3498C179.72 87.3498 180.59 88.2226 180.59 89.2977C180.59 90.3727 179.72 91.2444 178.648 91.2444L176.591 91.2444Z" fill="#D9A4C8"/>
<path fillRule="evenodd" clipRule="evenodd" d="M160.29 74.0294L159.098 74.0294C158.453 74.0294 157.93 73.5048 157.93 72.8574C157.93 72.2101 158.453 71.6854 159.098 71.6854L160.29 71.6854C160.935 71.6854 161.458 72.2101 161.458 72.8574C161.458 73.5048 160.934 74.0294 160.29 74.0294ZM163.94 69.172L163.94 70.3685C163.94 71.0159 163.417 71.5405 162.772 71.5405C162.127 71.5405 161.604 71.0147 161.604 70.3685L161.604 69.172C161.604 68.5247 162.128 68 162.772 68C163.416 68 163.94 68.5247 163.94 69.172ZM163.94 75.3475L163.94 76.5441C163.94 77.1914 163.417 77.7161 162.772 77.7161C162.127 77.7161 161.604 77.1914 161.604 76.5441L161.604 75.3475C161.604 74.7002 162.128 74.1755 162.772 74.1755C163.416 74.1755 163.94 74.7013 163.94 75.3475ZM166.444 74.0306L165.252 74.0306C164.607 74.0306 164.084 73.506 164.084 72.8586C164.084 72.2113 164.607 71.6866 165.252 71.6866L166.444 71.6866C167.089 71.6866 167.612 72.2113 167.612 72.8586C167.612 73.506 167.089 74.0306 166.444 74.0306Z" fill="#D9A4C8"/>
<path fillRule="evenodd" clipRule="evenodd" d="M166.231 112.911L165.038 112.911C164.393 112.911 163.87 112.386 163.87 111.739C163.87 111.091 164.394 110.567 165.038 110.567L166.231 110.567C166.876 110.567 167.399 111.093 167.399 111.739C167.399 112.385 166.875 112.911 166.231 112.911ZM169.88 108.053L169.88 109.25C169.88 109.897 169.356 110.423 168.712 110.423C168.068 110.423 167.544 109.897 167.544 109.25L167.544 108.053C167.544 107.406 168.068 106.881 168.712 106.881C169.356 106.881 169.88 107.407 169.88 108.053ZM169.88 114.229L169.88 115.425C169.88 116.073 169.356 116.597 168.712 116.597C168.068 116.597 167.544 116.073 167.544 115.425L167.544 114.229C167.544 113.582 168.068 113.057 168.712 113.057C169.356 113.057 169.88 113.582 169.88 114.229ZM172.385 112.912L171.192 112.912C170.547 112.912 170.024 112.387 170.024 111.74C170.024 111.093 170.547 110.568 171.192 110.568L172.385 110.568C173.03 110.568 173.553 111.094 173.553 111.74C173.553 112.386 173.029 112.912 172.385 112.912Z" fill="#D9A4C8"/>
<path d="M182.713 75.8233C183.523 75.9547 184.285 75.4022 184.416 74.5892C184.547 73.7763 183.997 73.0108 183.187 72.8795C182.377 72.7481 181.614 73.3006 181.483 74.1135C181.352 74.9264 181.902 75.6919 182.713 75.8233Z" fill="#D9A4C8"/>
<path d="M188.993 105.388C188.993 106.211 189.658 106.879 190.479 106.879C191.3 106.879 191.965 106.211 191.965 105.388C191.965 104.565 191.3 103.897 190.479 103.897C189.658 103.897 188.993 104.565 188.993 105.388Z" fill="#D9A4C8"/>
<path d="M157.564 95.5118C157.876 96.2736 158.744 96.6376 159.503 96.3248C160.262 96.0121 160.625 95.1411 160.313 94.3793C160.002 93.6175 159.134 93.2535 158.374 93.5663C157.615 93.879 157.253 94.75 157.564 95.5118Z" fill="#D9A4C8"/>
<path fillRule="evenodd" clipRule="evenodd" d="M179.067 43.3934C176.104 36.6637 169.691 32 162.265 32C153.998 32 146.985 37.7793 144.591 45.7558C139.243 46.1042 134.947 50.6797 135 56.6423C135.005 57.2034 190 57.0269 190 56.6423C190.032 47.6226 187.128 43.3119 180.439 43.3119C179.977 43.3119 179.519 43.3391 179.067 43.3934Z" fill="#DCF5F6"/>
<path d="M150.667 107.135V133.868C150.667 136.939 148.177 139.43 145.105 139.43H139.543V103.659H147.191C149.111 103.659 150.667 105.216 150.667 107.135Z" fill="url(#paint0_linear_3872_159696)"/>
<path d="M145.105 139.43L70.6969 139.43C67.6237 139.43 65.1341 136.941 65.1341 133.867V69.5439H139.544V133.867C139.544 136.941 142.035 139.43 145.105 139.43Z" fill="white"/>
<path d="M139.544 69.543V36.5951C139.544 33.5236 137.054 31.0334 133.982 31.0334H65.1341V69.543H139.544Z" fill="#B44B92"/>
<path d="M119.539 64.2545C118.76 64.2545 118.129 63.6235 118.129 62.8448V62.8123C118.129 62.0336 118.76 61.4026 119.539 61.4026C120.318 61.4026 120.949 62.0336 120.949 62.8123V62.8448C120.949 63.6232 120.317 64.2545 119.539 64.2545Z" fill="white"/>
<path d="M124.152 64.2545C123.374 64.2545 122.743 63.6235 122.743 62.8448V62.8123C122.743 62.0336 123.374 61.4026 124.152 61.4026C124.931 61.4026 125.562 62.0336 125.562 62.8123V62.8448C125.562 63.6232 124.931 64.2545 124.152 64.2545Z" fill="white"/>
<path d="M128.765 64.2545C127.987 64.2545 127.356 63.6235 127.356 62.8448V62.8123C127.356 62.0336 127.987 61.4026 128.765 61.4026C129.544 61.4026 130.175 62.0336 130.175 62.8123V62.8448C130.175 63.6232 129.544 64.2545 128.765 64.2545Z" fill="white"/>
<path d="M133.982 31.0335C130.909 31.0335 128.42 33.5222 128.42 36.5952V48.1111C128.42 50.0308 126.864 51.5869 124.945 51.5869H58.4178C56.4981 51.5869 54.942 50.0306 54.942 48.1111V36.5949C54.942 33.5234 57.4319 31.0332 60.5037 31.0332L133.982 31.0335Z" fill="white"/>
<path d="M126.847 99.6723H126.287C125.508 99.6723 124.877 99.0413 124.877 98.2625C124.877 97.4838 125.508 96.8528 126.287 96.8528H126.847C127.626 96.8528 128.257 97.4838 128.257 98.2625C128.257 99.0413 127.626 99.6723 126.847 99.6723Z" fill="#E1B7D3"/>
<path d="M79.2819 94.4039H76.4658C75.6873 94.4039 75.0561 93.773 75.0561 92.9942C75.0561 92.2155 75.6873 91.5845 76.4658 91.5845H79.2819C80.0604 91.5845 80.6916 92.2155 80.6916 92.9942C80.6916 93.773 80.0606 94.4039 79.2819 94.4039Z" fill="#E1B7D3"/>
<path d="M107.741 99.6723H76.4658C75.6873 99.6723 75.0561 99.0413 75.0561 98.2625C75.0561 97.4838 75.6873 96.8528 76.4658 96.8528H107.741C108.52 96.8528 109.151 97.4838 109.151 98.2625C109.151 99.0413 108.52 99.6723 107.741 99.6723Z" fill="#E1B7D3"/>
<path d="M126.847 112.231H126.287C125.508 112.231 124.877 111.6 124.877 110.821C124.877 110.042 125.508 109.411 126.287 109.411H126.847C127.626 109.411 128.257 110.042 128.257 110.821C128.257 111.6 127.626 112.231 126.847 112.231Z" fill="#E1B7D3"/>
<path d="M79.2819 106.963H76.4658C75.6873 106.963 75.0561 106.332 75.0561 105.553C75.0561 104.774 75.6873 104.143 76.4658 104.143H79.2819C80.0604 104.143 80.6916 104.774 80.6916 105.553C80.6916 106.332 80.0606 106.963 79.2819 106.963Z" fill="#E1B7D3"/>
<path d="M79.2819 120.281H76.4658C75.6873 120.281 75.0561 119.65 75.0561 118.871C75.0561 118.092 75.6873 117.461 76.4658 117.461H79.2819C80.0604 117.461 80.6916 118.092 80.6916 118.871C80.6916 119.65 80.0606 120.281 79.2819 120.281Z" fill="#E1B7D3"/>
<path d="M107.741 112.231H76.4658C75.6873 112.231 75.0561 111.6 75.0561 110.821C75.0561 110.042 75.6873 109.411 76.4658 109.411H107.741C108.52 109.411 109.151 110.042 109.151 110.821C109.151 111.6 108.52 112.231 107.741 112.231Z" fill="#E1B7D3"/>
<path d="M107.741 126.006H76.4658C75.6873 126.006 75.0561 125.375 75.0561 124.596C75.0561 123.818 75.6873 123.187 76.4658 123.187H107.741C108.52 123.187 109.151 123.818 109.151 124.596C109.151 125.375 108.52 126.006 107.741 126.006Z" fill="#E1B7D3"/>
<path d="M107.741 131.274H76.4658C75.6873 131.274 75.0561 130.643 75.0561 129.864C75.0561 129.086 75.6873 128.455 76.4658 128.455H107.741C108.52 128.455 109.151 129.086 109.151 129.864C109.151 130.643 108.52 131.274 107.741 131.274Z" fill="#E1B7D3"/>
<path d="M66 146.973C73.1797 146.973 79 141.153 79 133.973C79 126.793 73.1797 120.973 66 120.973C58.8203 120.973 53 126.793 53 133.973C53 141.153 58.8203 146.973 66 146.973Z" fill="white"/>
<path d="M61.1492 139C60.8571 139 60.565 138.892 60.3344 138.662C59.8885 138.216 59.8885 137.479 60.3344 137.033L69.036 128.334C69.4818 127.889 70.2198 127.889 70.6656 128.334C71.1114 128.78 71.1114 129.518 70.6656 129.963L61.964 138.662C61.7488 138.892 61.4413 139 61.1492 139Z" fill="#B44B92"/>
<path d="M69.8508 139C69.5587 139 69.2666 138.892 69.036 138.662L60.3344 129.963C59.8885 129.518 59.8885 128.78 60.3344 128.334C60.7802 127.889 61.5181 127.889 61.964 128.334L70.6656 137.033C71.1114 137.479 71.1114 138.216 70.6656 138.662C70.435 138.892 70.1429 139 69.8508 139Z" fill="#B44B92"/>
<path d="M147.141 102.457H140.938V36.931C140.938 33.0944 137.828 29.9731 134.005 29.9731H60.9329C57.11 29.9731 54 33.0944 54 36.9307V48.4245C54 51.1133 56.1794 53.3006 58.8586 53.3006H125.018C127.697 53.3006 129.876 51.1133 129.876 48.4245V36.9307C129.876 34.6461 131.728 32.7871 134.005 32.7871C136.282 32.7871 138.134 34.6458 138.134 36.931V134.015C138.134 135.566 138.643 137.001 139.501 138.159H77.5295C76.7554 138.159 76.1276 138.789 76.1276 139.566C76.1276 140.343 76.7554 140.973 77.5295 140.973H145.077C148.896 140.968 152 137.848 152 134.014V107.334C152 104.645 149.821 102.457 147.141 102.457ZM127.073 36.9307V48.4245C127.073 49.5616 126.151 50.4866 125.018 50.4866H58.8588C57.7258 50.4866 56.8041 49.5616 56.8041 48.4245V36.9307C56.8041 34.6461 58.6564 32.7871 60.9331 32.7871H128.439C127.581 33.9457 127.073 35.3797 127.073 36.9307ZM149.196 134.014C149.196 136.299 147.344 138.158 145.067 138.158L145.062 138.159C142.787 138.156 140.938 136.299 140.938 134.015V105.271H147.141C148.274 105.271 149.196 106.196 149.196 107.334L149.196 134.014Z" fill="#363636"/>
<path d="M66.3465 119.003V59.3843C66.3465 58.6048 65.7146 57.9731 64.9354 57.9731C64.1561 57.9731 63.5242 58.6048 63.5242 59.3843V119.111C60.598 119.508 57.8666 120.783 55.6539 122.829C52.8106 125.459 51.1618 129.039 51.0111 132.909C50.6998 140.898 56.9465 147.651 64.9357 147.962C65.1293 147.969 65.3215 147.973 65.5139 147.973C69.1725 147.973 72.6451 146.616 75.3461 144.117C78.1893 141.488 79.8381 137.908 79.9888 134.038C80.2965 126.143 74.1997 119.461 66.3465 119.003ZM77.169 133.928C77.0477 137.045 75.7198 139.928 73.43 142.046C71.1403 144.163 68.1624 145.261 65.0457 145.142C58.6117 144.891 53.5806 139.453 53.8312 133.019C53.9526 129.902 55.2805 127.019 57.5702 124.901C59.8603 122.783 62.8389 121.684 65.9545 121.805C72.3886 122.056 77.4194 127.494 77.169 133.928Z" fill="#363636"/>
<path d="M124.673 84.9731H112.327C111.594 84.9731 111 84.3516 111 83.5852V76.3611C111 75.5947 111.594 74.9731 112.327 74.9731H124.673L126 79.9731L124.673 84.9731Z" fill="#E1B7D3"/>
<path d="M129.516 74.9731H122V84.9731H129.516C130.335 84.9731 131 84.3516 131 83.5852V76.3611C131 75.5947 130.335 74.9731 129.516 74.9731Z" fill="url(#paint1_linear_3872_159696)"/>
<path fillRule="evenodd" clipRule="evenodd" d="M20.591 112.244L20.591 114.309C20.591 115.384 19.7211 116.256 18.6499 116.256C17.5786 116.256 16.7099 115.383 16.7099 114.309L16.7099 112.244L14.6524 112.244C13.5811 112.244 12.7113 111.371 12.7113 110.297C12.7113 109.224 13.5811 108.35 14.6524 108.35L16.7099 108.35L16.7099 106.285C16.7099 105.21 17.5797 104.337 18.6499 104.337C19.72 104.337 20.591 105.21 20.591 106.285L20.591 108.35L22.6485 108.35C23.7198 108.35 24.5896 109.222 24.5896 110.297C24.5896 111.372 23.7198 112.244 22.6485 112.244L20.591 112.244Z" fill="#D9A4C8"/>
<path fillRule="evenodd" clipRule="evenodd" d="M4.29032 95.0294L3.09793 95.0294C2.45284 95.0294 1.93003 94.5048 1.93003 93.8574C1.93003 93.2101 2.45284 92.6854 3.09793 92.6854L4.29032 92.6854C4.93541 92.6854 5.45822 93.2101 5.45822 93.8574C5.45822 94.5048 4.93424 95.0294 4.29032 95.0294ZM7.93962 90.172L7.93962 91.3685C7.93962 92.0159 7.41679 92.5405 6.7717 92.5405C6.12661 92.5405 5.60378 92.0147 5.60378 91.3685L5.60378 90.172C5.60378 89.5247 6.12777 89 6.7717 89C7.41562 89 7.93962 89.5247 7.93962 90.172ZM7.93962 96.3475L7.93962 97.5441C7.93962 98.1914 7.41679 98.7161 6.7717 98.7161C6.12661 98.7161 5.60378 98.1914 5.60378 97.5441L5.60378 96.3475C5.60378 95.7002 6.12777 95.1755 6.7717 95.1755C7.41562 95.1755 7.93962 95.7013 7.93962 96.3475ZM10.4443 95.0306L9.25192 95.0306C8.60683 95.0306 8.084 94.506 8.084 93.8586C8.084 93.2113 8.60683 92.6866 9.25193 92.6866L10.4443 92.6866C11.0894 92.6866 11.6122 93.2113 11.6122 93.8586C11.6122 94.506 11.0894 95.0306 10.4443 95.0306Z" fill="#D9A4C8"/>
<path fillRule="evenodd" clipRule="evenodd" d="M10.2307 133.911L9.03828 133.911C8.39319 133.911 7.87038 133.386 7.87038 132.739C7.87038 132.091 8.39436 131.567 9.03828 131.567L10.2307 131.567C10.8757 131.567 11.3986 132.093 11.3986 132.739C11.3986 133.385 10.8746 133.911 10.2307 133.911ZM13.88 129.053L13.88 130.25C13.88 130.897 13.356 131.423 12.712 131.423C12.0681 131.423 11.5441 130.897 11.5441 130.25L11.5441 129.053C11.5441 128.406 12.0681 127.881 12.712 127.881C13.356 127.881 13.88 128.407 13.88 129.053ZM13.88 135.229L13.88 136.425C13.88 137.073 13.356 137.597 12.712 137.597C12.0681 137.597 11.5441 137.073 11.5441 136.425L11.5441 135.229C11.5441 134.582 12.0681 134.057 12.712 134.057C13.356 134.057 13.88 134.582 13.88 135.229ZM16.3846 133.912L15.1923 133.912C14.5472 133.912 14.0244 133.387 14.0244 132.74C14.0244 132.093 14.5472 131.568 15.1923 131.568L16.3846 131.568C17.0297 131.568 17.5526 132.094 17.5526 132.74C17.5526 133.386 17.0286 133.912 16.3846 133.912Z" fill="#D9A4C8"/>
<path d="M26.7126 96.8233C27.5226 96.9547 28.2855 96.4022 28.4164 95.5892C28.5473 94.7763 27.9967 94.0108 27.1866 93.8795C26.3766 93.7481 25.6137 94.3006 25.4828 95.1135C25.3519 95.9264 25.9025 96.6919 26.7126 96.8233Z" fill="#D9A4C8"/>
<path d="M32.9933 126.388C32.9933 127.211 33.6585 127.879 34.4791 127.879C35.2997 127.879 35.9649 127.211 35.9649 126.388C35.9649 125.565 35.2997 124.897 34.4791 124.897C33.6585 124.897 32.9933 125.565 32.9933 126.388Z" fill="#D9A4C8"/>
<path d="M0.564275 118.326C0.875917 119.088 1.74393 119.452 2.50304 119.14C3.26215 118.827 3.62489 117.956 3.31325 117.194C3.0016 116.432 2.13359 116.068 1.37448 116.381C0.615376 116.694 0.252633 117.565 0.564275 118.326Z" fill="#D9A4C8"/>
<path fillRule="evenodd" clipRule="evenodd" d="M96.1344 16.302V17.3283C96.1344 17.8835 96.5805 18.3335 97.1309 18.3335C97.6812 18.3335 98.1273 17.8835 98.1273 17.3283V16.302C98.1273 15.7478 97.6802 15.2968 97.1309 15.2968C96.5815 15.2968 96.1344 15.7478 96.1344 16.302ZM100.264 13.161H99.247C98.6966 13.161 98.2495 13.612 98.2495 14.1663C98.2495 14.7205 98.6966 15.1715 99.247 15.1715H100.264C100.815 15.1715 101.261 14.7215 101.261 14.1663C101.261 13.611 100.815 13.161 100.264 13.161ZM95.0138 13.161H93.9964C93.4461 13.161 93 13.612 93 14.1663C93 14.7205 93.4461 15.1715 93.9964 15.1715H95.0138C95.5631 15.1715 96.0102 14.7215 96.0102 14.1663C96.0102 13.611 95.5631 13.161 95.0138 13.161ZM96.1334 11.0052V12.0315C96.1334 12.5868 96.5795 13.0368 97.1299 13.0368C97.6802 13.0368 98.1263 12.5858 98.1263 12.0315V11.0052C98.1263 10.45 97.6793 10 97.1299 10C96.5805 10 96.1334 10.45 96.1334 11.0052Z" fill="#D9A4C8"/>
<path fillRule="evenodd" clipRule="evenodd" d="M75.7782 7.58111V8.60739C75.7782 9.16262 76.2253 9.61263 76.7747 9.61263C77.324 9.61263 77.7711 9.16262 77.7711 8.60739V7.58111C77.7711 7.02587 77.325 6.57587 76.7747 6.57587C76.2243 6.57587 75.7782 7.02587 75.7782 7.58111ZM79.909 4.44011H78.8917C78.3423 4.44011 77.8953 4.89112 77.8953 5.44636C77.8953 6.00159 78.3423 6.45159 78.8917 6.45159H79.909C80.4594 6.45159 80.9055 6.00159 80.9055 5.44636C80.9055 4.89112 80.4594 4.44011 79.909 4.44011ZM74.6585 4.44011H73.6412C73.0908 4.44011 72.6448 4.89112 72.6448 5.44636C72.6448 6.00159 73.0908 6.45159 73.6412 6.45159H74.6585C75.2089 6.45159 75.655 6.00159 75.655 5.44636C75.655 4.89112 75.2079 4.44011 74.6585 4.44011ZM75.7782 2.28432V3.3106C75.7782 3.86584 76.2253 4.31584 76.7747 4.31584C77.324 4.31584 77.7711 3.86484 77.7711 3.3106V2.28432C77.7711 1.72908 77.325 1.27808 76.7747 1.27808C76.2243 1.27808 75.7782 1.72908 75.7782 2.28432Z" fill="#D9A4C8"/>
<path d="M90.8198 2.55769C91.5199 2.55769 92.0875 1.98513 92.0875 1.27885C92.0875 0.57256 91.5199 0 90.8198 0C90.1197 0 89.5521 0.57256 89.5521 1.27885C89.5521 1.98513 90.1197 2.55769 90.8198 2.55769Z" fill="#D9A4C8"/>
<path d="M82.179 25.6978C82.8791 25.6978 83.4467 25.1253 83.4467 24.419C83.4467 23.7127 82.8791 23.1401 82.179 23.1401C81.4789 23.1401 80.9114 23.7127 80.9114 24.419C80.9114 25.1253 81.4789 25.6978 82.179 25.6978Z" fill="#D9A4C8"/>
<path d="M64.2677 17.3936C64.9678 17.3936 65.5353 16.8211 65.5353 16.1148C65.5353 15.4085 64.9678 14.8359 64.2677 14.8359C63.5675 14.8359 63 15.4085 63 16.1148C63 16.8211 63.5675 17.3936 64.2677 17.3936Z" fill="#D9A4C8"/>
<defs>
<linearGradient id="paint0_linear_3872_159696" x1="151.186" y1="118.26" x2="133.893" y2="118.26" gradientUnits="userSpaceOnUse">
<stop stop-color="#B44B92"/>
<stop offset="1" stop-color="#732280"/>
</linearGradient>
<linearGradient id="paint1_linear_3872_159696" x1="131.42" y1="79.0551" x2="117.428" y2="79.0551" gradientUnits="userSpaceOnUse">
<stop stop-color="#B44B92"/>
<stop offset="1" stop-color="#732280"/>
</linearGradient>
</defs>
</svg>