<svg width="217" height="159" viewBox="0 0 217 159" fill="none" xmlns="http://www.w3.org/2000/svg">
<path fillRule="evenodd" clipRule="evenodd" d="M205.272 31.3048C202.093 24.0368 195.214 19 187.248 19C178.38 19 170.857 25.2416 168.288 33.8562C162.552 34.2326 157.944 39.1741 158.001 45.6136C158.005 46.2197 217 46.0291 217 45.6136C217.034 35.8724 213.919 31.2169 206.744 31.2169C206.248 31.2169 205.756 31.2462 205.272 31.3048Z" fill="#DCF5F6"/>
<path fillRule="evenodd" clipRule="evenodd" d="M43.2657 68.0262C40.3562 62.1041 34.0603 58 26.7689 58C18.6528 58 11.7675 63.0858 9.41619 70.1051C4.1658 70.4117 -0.0515896 74.4381 0.000476955 79.6852C0.00464228 80.179 53.9997 80.0237 53.9997 79.6852C54.031 71.7479 51.1798 67.9545 44.6132 67.9545C44.1592 67.9545 43.7093 67.9784 43.2657 68.0262Z" fill="#DCF5F6"/>
<path fillRule="evenodd" clipRule="evenodd" d="M107.11 6.63372C121.117 2.79617 133.323 17.3211 145.551 25.1189C157.784 32.9204 175.076 38.1179 178.491 52.1549C181.987 66.5245 166.487 78.297 161.912 92.3644C158.345 103.33 163.026 117.484 154.651 125.459C146.246 133.462 131.476 126.422 120.952 131.366C107.257 137.8 100.542 157.664 85.3967 157.994C70.8605 158.31 56.2372 146.339 50.933 132.892C45.6489 119.495 61.7585 105.54 59.1265 91.3905C56.2998 76.1945 29.7433 66.4253 35.9318 52.2474C42.0598 38.2082 67.2993 51.306 80.2437 43.0107C93.2284 34.6896 92.2134 10.7148 107.11 6.63372Z" fill="#F0DBE9"/>
<path d="M153 32.4927V119.507C153 120.886 151.742 122 150.191 122H49.8088C48.2556 122 47 120.886 47 119.507V32.4927C47 31.1167 48.2556 30 49.8088 30H150.191C151.742 30 153 31.1167 153 32.4927Z" fill="white"/>
<path d="M68.2552 104.629H61.4409C60.4284 104.629 59.6074 103.808 59.6074 102.795C59.6074 101.783 60.4284 100.962 61.4409 100.962H68.2552C69.2676 100.962 70.0886 101.783 70.0886 102.795C70.0886 103.808 69.2676 104.629 68.2552 104.629Z" fill="#E1B7D3"/>
<path d="M82.9229 112.102H61.4409C60.4284 112.102 59.6074 111.281 59.6074 110.269C59.6074 109.257 60.4284 108.436 61.4409 108.436H82.9229C83.9354 108.436 84.7564 109.257 84.7564 110.269C84.7564 111.282 83.9354 112.102 82.9229 112.102Z" fill="#E1B7D3"/>
<path d="M153.285 51.9122V33.1367C153.285 31.5834 152.026 30.3242 150.473 30.3242H49.9587C48.4054 30.3242 47.1462 31.5834 47.1462 33.1367V51.9122H153.285Z" fill="#D9A4C8"/>
<path d="M125.188 45.4766H58.6882C57.9117 45.4766 57.282 44.8468 57.282 44.0703V38.7285C57.282 37.952 57.9117 37.3223 58.6882 37.3223H125.188C125.964 37.3223 126.594 37.952 126.594 38.7285V44.0703C126.594 44.8468 125.964 45.4766 125.188 45.4766Z" fill="white"/>
<path d="M134.409 40.1348C135.185 40.1348 135.815 39.5052 135.815 38.7285C135.815 37.9519 135.185 37.3223 134.409 37.3223C133.632 37.3223 133.002 37.9519 133.002 38.7285C133.002 39.5052 133.632 40.1348 134.409 40.1348Z" fill="white"/>
<path d="M134.409 45.4766C135.185 45.4766 135.815 44.847 135.815 44.0703C135.815 43.2937 135.185 42.6641 134.409 42.6641C133.632 42.6641 133.002 43.2937 133.002 44.0703C133.002 44.847 133.632 45.4766 134.409 45.4766Z" fill="white"/>
<path d="M139.275 40.1348C140.052 40.1348 140.681 39.5052 140.681 38.7285C140.681 37.9519 140.052 37.3223 139.275 37.3223C138.498 37.3223 137.869 37.9519 137.869 38.7285C137.869 39.5052 138.498 40.1348 139.275 40.1348Z" fill="white"/>
<path d="M139.275 45.4766C140.052 45.4766 140.681 44.847 140.681 44.0703C140.681 43.2937 140.052 42.6641 139.275 42.6641C138.498 42.6641 137.869 43.2937 137.869 44.0703C137.869 44.847 138.498 45.4766 139.275 45.4766Z" fill="white"/>
<path d="M144.142 40.1348C144.918 40.1348 145.548 39.5052 145.548 38.7285C145.548 37.9519 144.918 37.3223 144.142 37.3223C143.365 37.3223 142.735 37.9519 142.735 38.7285C142.735 39.5052 143.365 40.1348 144.142 40.1348Z" fill="white"/>
<path d="M144.142 45.4766C144.918 45.4766 145.548 44.847 145.548 44.0703C145.548 43.2937 144.918 42.6641 144.142 42.6641C143.365 42.6641 142.735 43.2937 142.735 44.0703C142.735 44.847 143.365 45.4766 144.142 45.4766Z" fill="white"/>
<path d="M134.708 77.0432H65.7235C62.1769 77.0432 59.302 74.1683 59.302 70.6217C59.302 67.0751 62.1769 64.2002 65.7235 64.2002H134.708C138.254 64.2002 141.129 67.0751 141.129 70.6217C141.129 74.1683 138.254 77.0432 134.708 77.0432Z" fill="#F0DBE9"/>
<path d="M136.528 107.08L142.736 103.496L150.23 116.476L144.023 120.06L136.528 107.08Z" fill="white"/>
<path d="M124.796 110.684C141.97 110.684 155.893 96.7612 155.893 79.5868C155.893 62.4124 141.97 48.4897 124.796 48.4897C107.621 48.4897 93.6985 62.4124 93.6985 79.5868C93.6985 96.7612 107.621 110.684 124.796 110.684Z" fill="url(#paint0_linear_3877_170648)"/>
<path d="M137.598 101.759C128.73 106.88 118.068 106.09 110.181 100.611L101.46 90.1233C100.461 87.9155 99.8003 85.6261 99.46 83.317L101.305 69.4091C103.412 64.5379 107.045 60.2741 111.995 57.4166C124.238 50.346 139.898 54.5422 146.966 66.7879C154.037 79.0307 149.84 94.6908 137.598 101.759Z" fill="white"/>
<path d="M170.812 153.248L165.579 156.269C164.144 157.098 162.309 156.606 161.48 155.171L142.185 121.75C141.356 120.315 141.848 118.48 143.283 117.651L148.515 114.63C149.95 113.801 151.785 114.293 152.614 115.728L171.91 149.149C172.738 150.584 172.247 152.419 170.812 153.248Z" fill="url(#paint1_linear_3877_170648)"/>
<path d="M152.897 140.307L163.326 134.286L165.936 138.806L155.507 144.827L152.897 140.307Z" fill="white"/>
<path d="M157.576 148.408L161.48 155.17C162.309 156.605 164.143 157.097 165.578 156.268L170.811 153.247C172.246 152.418 172.738 150.584 171.91 149.149L168.005 142.386L157.576 148.408Z" fill="white"/>
<path d="M173.127 148.447L154.665 116.468C154.682 116.435 154.692 116.397 154.692 116.353V92.3519C155.287 90.9499 155.79 89.4975 156.191 88.0004C158.098 80.8819 157.554 73.4952 154.692 66.8259V33.1362C154.692 30.81 152.799 28.9175 150.473 28.9175H49.9597C47.6335 28.9175 45.741 30.81 45.741 33.1362V120.318C45.741 122.644 47.6335 124.537 49.9597 124.537H141.504C142.281 124.537 142.91 123.907 142.91 123.131C142.91 122.354 142.281 121.724 141.504 121.724H49.9597C49.1843 121.724 48.5535 121.093 48.5535 120.318V33.1362C48.5535 32.3608 49.1843 31.73 49.9597 31.73H150.473C151.249 31.73 151.879 32.3608 151.879 33.1362V61.6199C147.501 55.0001 140.94 50.2638 133.208 48.1919C124.822 45.9447 116.063 47.0978 108.544 51.4389C105.748 53.053 103.22 55.0595 101.032 57.402C100.502 57.9696 100.532 58.8594 101.1 59.3893C101.667 59.92 102.557 59.8891 103.087 59.3218C105.086 57.1826 107.395 55.3497 109.95 53.8745C116.818 49.9092 124.82 48.8559 132.48 50.9085C140.14 52.961 146.543 57.8742 150.508 64.7424C154.474 71.6105 155.527 79.6118 153.474 87.2719C151.422 94.9324 146.509 101.335 139.64 105.301C132.772 109.266 124.771 110.32 117.111 108.267C109.45 106.214 103.047 101.301 99.0821 94.4329C93.9229 85.4967 93.7446 74.7164 98.6054 65.596C98.9708 64.9105 98.7112 64.0589 98.0258 63.6936C97.3401 63.3279 96.4887 63.5878 96.1234 64.2732C90.803 74.2562 90.9984 86.0564 96.6465 95.8391C100.988 103.358 107.996 108.736 116.383 110.983C119.183 111.734 122.025 112.105 124.848 112.105C128.837 112.105 132.788 111.36 136.534 109.901L141.107 117.822C140.85 118.213 140.651 118.644 140.526 119.109C140.222 120.246 140.378 121.434 140.967 122.453L160.262 155.874C161.078 157.286 162.562 158.076 164.086 158.076C164.833 158.076 165.59 157.886 166.282 157.487L171.514 154.466C172.534 153.877 173.263 152.927 173.567 151.79C173.872 150.653 173.716 149.466 173.127 148.447ZM151.879 97.5848V113.24C151.218 112.932 150.487 112.792 149.753 112.835L145.179 104.912C147.793 102.817 150.046 100.349 151.879 97.5848ZM141.047 107.737C141.679 107.372 142.295 106.986 142.896 106.584L147.082 113.834L143.31 116.012L139.125 108.763C139.773 108.444 140.414 108.101 141.047 107.737ZM170.851 151.062C170.741 151.473 170.477 151.817 170.108 152.03L164.875 155.051C164.114 155.49 163.137 155.228 162.698 154.468L143.402 121.047C143.189 120.678 143.133 120.248 143.243 119.837C143.353 119.426 143.617 119.082 143.986 118.869L149.218 115.848C149.469 115.704 149.742 115.635 150.013 115.635C150.564 115.635 151.101 115.921 151.396 116.431L170.691 149.853C170.905 150.221 170.961 150.651 170.851 151.062Z" fill="#363636"/>
<path d="M124.84 106.59C115.499 106.59 106.402 101.746 101.405 93.0916C97.7984 86.8439 96.8402 79.5654 98.7071 72.5971C100.574 65.6291 105.043 59.805 111.291 56.1976C117.539 52.5903 124.817 51.6321 131.786 53.4993C138.754 55.3665 144.578 59.8353 148.185 66.083C151.792 72.3307 152.75 79.609 150.883 86.5772C149.016 93.5455 144.547 99.3696 138.299 102.977C134.057 105.426 129.419 106.59 124.84 106.59ZM124.756 55.3812C120.563 55.3812 116.426 56.4806 112.697 58.6333C107.1 61.8646 103.096 67.0823 101.424 73.325C99.7509 79.5673 100.609 86.0881 103.841 91.685C108.317 99.438 116.468 103.777 124.835 103.778C128.938 103.778 133.091 102.736 136.893 100.541C142.489 97.3098 146.493 92.092 148.166 85.8493C149.839 79.6067 148.98 73.0862 145.749 67.4893C142.517 61.8924 137.3 57.8885 131.057 56.2159C128.973 55.6579 126.857 55.3812 124.756 55.3812Z" fill="#363636"/>
<path fillRule="evenodd" clipRule="evenodd" d="M93.0924 16.9715V17.9977C93.0924 18.553 93.5385 19.003 94.0889 19.003C94.6393 19.003 95.0853 18.553 95.0853 17.9977V16.9715C95.0853 16.4172 94.6383 15.9662 94.0889 15.9662C93.5395 15.9662 93.0924 16.4172 93.0924 16.9715ZM97.2223 13.8305H96.205C95.6546 13.8305 95.2075 14.2815 95.2075 14.8357C95.2075 15.3899 95.6546 15.8409 96.205 15.8409H97.2223C97.7727 15.8409 98.2188 15.3909 98.2188 14.8357C98.2188 14.2805 97.7727 13.8305 97.2223 13.8305ZM91.9718 13.8305H90.9545C90.4041 13.8305 89.958 14.2815 89.958 14.8357C89.958 15.3899 90.4041 15.8409 90.9545 15.8409H91.9718C92.5212 15.8409 92.9682 15.3909 92.9682 14.8357C92.9682 14.2805 92.5212 13.8305 91.9718 13.8305ZM93.0914 11.6747V12.701C93.0914 13.2562 93.5375 13.7062 94.0879 13.7062C94.6383 13.7062 95.0844 13.2552 95.0844 12.701V11.6747C95.0844 11.1194 94.6373 10.6694 94.0879 10.6694C93.5385 10.6694 93.0914 11.1194 93.0914 11.6747Z" fill="#D9A4C8"/>
<path fillRule="evenodd" clipRule="evenodd" d="M77.7782 7.58086V8.60714C77.7782 9.16238 78.2253 9.61238 78.7747 9.61238C79.3241 9.61238 79.7711 9.16238 79.7711 8.60714V7.58086C79.7711 7.02563 79.325 6.57562 78.7747 6.57562C78.2243 6.57562 77.7782 7.02563 77.7782 7.58086ZM81.9091 4.43987H80.8917C80.3423 4.43987 79.8953 4.89088 79.8953 5.44611C79.8953 6.00135 80.3423 6.45135 80.8917 6.45135H81.9091C82.4594 6.45135 82.9055 6.00135 82.9055 5.44611C82.9055 4.89088 82.4594 4.43987 81.9091 4.43987ZM76.6586 4.43987H75.6412C75.0908 4.43987 74.6448 4.89088 74.6448 5.44611C74.6448 6.00135 75.0908 6.45135 75.6412 6.45135H76.6586C77.2089 6.45135 77.655 6.00135 77.655 5.44611C77.655 4.89088 77.2079 4.43987 76.6586 4.43987ZM77.7782 2.28408V3.31036C77.7782 3.86559 78.2253 4.31559 78.7747 4.31559C79.3241 4.31559 79.7711 3.86459 79.7711 3.31036V2.28408C79.7711 1.72884 79.325 1.27783 78.7747 1.27783C78.2243 1.27783 77.7782 1.72884 77.7782 2.28408Z" fill="#D9A4C8"/>
<path d="M92.8199 2.55769C93.52 2.55769 94.0876 1.98513 94.0876 1.27885C94.0876 0.57256 93.52 0 92.8199 0C92.1198 0 91.5522 0.57256 91.5522 1.27885C91.5522 1.98513 92.1198 2.55769 92.8199 2.55769Z" fill="#D9A4C8"/>
<path d="M81.2677 24.5577C81.9678 24.5577 82.5354 23.9851 82.5354 23.2788C82.5354 22.5726 81.9678 22 81.2677 22C80.5676 22 80 22.5726 80 23.2788C80 23.9851 80.5676 24.5577 81.2677 24.5577Z" fill="#D9A4C8"/>
<path d="M66.2677 17.3936C66.9678 17.3936 67.5354 16.8211 67.5354 16.1148C67.5354 15.4085 66.9678 14.8359 66.2677 14.8359C65.5676 14.8359 65 15.4085 65 16.1148C65 16.8211 65.5676 17.3936 66.2677 17.3936Z" fill="#D9A4C8"/>
<path fillRule="evenodd" clipRule="evenodd" d="M29.591 117.244L29.591 119.309C29.591 120.384 28.7211 121.256 27.6499 121.256C26.5786 121.256 25.7099 120.383 25.7099 119.309L25.7099 117.244L23.6524 117.244C22.5811 117.244 21.7113 116.371 21.7113 115.297C21.7113 114.224 22.5811 113.35 23.6524 113.35L25.7099 113.35L25.7099 111.285C25.7099 110.21 26.5798 109.337 27.6499 109.337C28.72 109.337 29.591 110.21 29.591 111.285L29.591 113.35L31.6485 113.35C32.7198 113.35 33.5896 114.222 33.5896 115.297C33.5896 116.372 32.7198 117.244 31.6485 117.244L29.591 117.244Z" fill="#D9A4C8"/>
<path fillRule="evenodd" clipRule="evenodd" d="M13.2904 100.029L12.098 100.029C11.4529 100.029 10.9301 99.5048 10.9301 98.8574C10.9301 98.2101 11.4529 97.6854 12.098 97.6854L13.2904 97.6854C13.9355 97.6854 14.4583 98.2101 14.4583 98.8574C14.4583 99.5048 13.9343 100.029 13.2904 100.029ZM16.9397 95.172L16.9397 96.3685C16.9397 97.0159 16.4169 97.5405 15.7718 97.5405C15.1267 97.5405 14.6039 97.0147 14.6039 96.3685L14.6039 95.172C14.6039 94.5247 15.1279 94 15.7718 94C16.4157 94 16.9397 94.5247 16.9397 95.172ZM16.9397 101.348L16.9397 102.544C16.9397 103.191 16.4169 103.716 15.7718 103.716C15.1267 103.716 14.6039 103.191 14.6039 102.544L14.6039 101.348C14.6039 100.7 15.1279 100.176 15.7718 100.176C16.4157 100.176 16.9397 100.701 16.9397 101.348ZM19.4444 100.031L18.252 100.031C17.6069 100.031 17.0841 99.506 17.0841 98.8586C17.0841 98.2113 17.6069 97.6866 18.252 97.6866L19.4444 97.6866C20.0895 97.6866 20.6123 98.2113 20.6123 98.8586C20.6123 99.506 20.0895 100.031 19.4444 100.031Z" fill="#D9A4C8"/>
<path fillRule="evenodd" clipRule="evenodd" d="M19.2306 138.911L18.0382 138.911C17.3931 138.911 16.8703 138.386 16.8703 137.739C16.8703 137.091 17.3943 136.567 18.0382 136.567L19.2306 136.567C19.8757 136.567 20.3985 137.093 20.3985 137.739C20.3985 138.385 19.8745 138.911 19.2306 138.911ZM22.8799 134.053L22.8799 135.25C22.8799 135.897 22.3559 136.423 21.712 136.423C21.0681 136.423 20.5441 135.897 20.5441 135.25L20.5441 134.053C20.5441 133.406 21.0681 132.881 21.712 132.881C22.3559 132.881 22.8799 133.407 22.8799 134.053ZM22.8799 140.229L22.8799 141.425C22.8799 142.073 22.3559 142.597 21.712 142.597C21.0681 142.597 20.5441 142.073 20.5441 141.425L20.5441 140.229C20.5441 139.582 21.0681 139.057 21.712 139.057C22.3559 139.057 22.8799 139.582 22.8799 140.229ZM25.3846 138.912L24.1922 138.912C23.5471 138.912 23.0243 138.387 23.0243 137.74C23.0243 137.093 23.5471 136.568 24.1922 136.568L25.3846 136.568C26.0297 136.568 26.5525 137.094 26.5525 137.74C26.5525 138.386 26.0285 138.912 25.3846 138.912Z" fill="#D9A4C8"/>
<path d="M35.7127 101.823C36.5227 101.955 37.2856 101.402 37.4165 100.589C37.5474 99.7763 36.9968 99.0108 36.1867 98.8795C35.3767 98.7481 34.6138 99.3006 34.4829 100.114C34.352 100.926 34.9026 101.692 35.7127 101.823Z" fill="#D9A4C8"/>
<path d="M41.9932 131.388C41.9932 132.211 42.6585 132.879 43.479 132.879C44.2996 132.879 44.9648 132.211 44.9648 131.388C44.9648 130.565 44.2996 129.897 43.479 129.897C42.6585 129.897 41.9932 130.565 41.9932 131.388Z" fill="#D9A4C8"/>
<path d="M9.56433 123.326C9.87597 124.088 10.744 124.452 11.5031 124.139C12.2622 123.827 12.6249 122.956 12.3133 122.194C12.0017 121.432 11.1336 121.068 10.3745 121.381C9.61543 121.693 9.25269 122.564 9.56433 123.326Z" fill="#D9A4C8"/>
<path fillRule="evenodd" clipRule="evenodd" d="M182.591 85.2441L182.591 87.3089C182.591 88.3839 181.721 89.2556 180.65 89.2556C179.579 89.2556 178.71 88.3827 178.71 87.3089L178.71 85.2441L176.652 85.2441C175.581 85.2441 174.711 84.3713 174.711 83.2974C174.711 82.2236 175.581 81.3495 176.652 81.3495L178.71 81.3495L178.71 79.2848C178.71 78.2098 179.58 77.3369 180.65 77.3369C181.72 77.3369 182.591 78.2098 182.591 79.2848L182.591 81.3495L184.648 81.3495C185.72 81.3495 186.59 82.2224 186.59 83.2974C186.59 84.3724 185.72 85.2441 184.648 85.2441L182.591 85.2441Z" fill="#D9A4C8"/>
<path fillRule="evenodd" clipRule="evenodd" d="M166.29 68.0294L165.098 68.0294C164.453 68.0294 163.93 67.5048 163.93 66.8574C163.93 66.2101 164.453 65.6854 165.098 65.6854L166.29 65.6854C166.935 65.6854 167.458 66.2101 167.458 66.8574C167.458 67.5048 166.934 68.0294 166.29 68.0294ZM169.94 63.172L169.94 64.3685C169.94 65.0159 169.417 65.5405 168.772 65.5405C168.127 65.5405 167.604 65.0147 167.604 64.3685L167.604 63.172C167.604 62.5247 168.128 62 168.772 62C169.416 62 169.94 62.5247 169.94 63.172ZM169.94 69.3475L169.94 70.5441C169.94 71.1914 169.417 71.7161 168.772 71.7161C168.127 71.7161 167.604 71.1914 167.604 70.5441L167.604 69.3475C167.604 68.7002 168.128 68.1755 168.772 68.1755C169.416 68.1755 169.94 68.7013 169.94 69.3475ZM172.444 68.0306L171.252 68.0306C170.607 68.0306 170.084 67.506 170.084 66.8586C170.084 66.2113 170.607 65.6866 171.252 65.6866L172.444 65.6866C173.089 65.6866 173.612 66.2113 173.612 66.8586C173.612 67.506 173.089 68.0306 172.444 68.0306Z" fill="#D9A4C8"/>
<path fillRule="evenodd" clipRule="evenodd" d="M172.231 106.911L171.038 106.911C170.393 106.911 169.87 106.386 169.87 105.739C169.87 105.091 170.394 104.567 171.038 104.567L172.231 104.567C172.876 104.567 173.399 105.093 173.399 105.739C173.399 106.385 172.875 106.911 172.231 106.911ZM175.88 102.053L175.88 103.25C175.88 103.897 175.356 104.423 174.712 104.423C174.068 104.423 173.544 103.897 173.544 103.25L173.544 102.053C173.544 101.406 174.068 100.881 174.712 100.881C175.356 100.881 175.88 101.407 175.88 102.053ZM175.88 108.229L175.88 109.425C175.88 110.073 175.356 110.597 174.712 110.597C174.068 110.597 173.544 110.073 173.544 109.425L173.544 108.229C173.544 107.582 174.068 107.057 174.712 107.057C175.356 107.057 175.88 107.582 175.88 108.229ZM178.385 106.912L177.192 106.912C176.547 106.912 176.024 106.387 176.024 105.74C176.024 105.093 176.547 104.568 177.192 104.568L178.385 104.568C179.03 104.568 179.552 105.094 179.552 105.74C179.552 106.386 179.029 106.912 178.385 106.912Z" fill="#D9A4C8"/>
<path d="M188.713 69.8233C189.523 69.9547 190.286 69.4022 190.416 68.5892C190.547 67.7763 189.997 67.0108 189.187 66.8795C188.377 66.7481 187.614 67.3006 187.483 68.1135C187.352 68.9264 187.903 69.6919 188.713 69.8233Z" fill="#D9A4C8"/>
<path d="M194.993 99.388C194.993 100.211 195.658 100.879 196.479 100.879C197.3 100.879 197.965 100.211 197.965 99.388C197.965 98.5645 197.3 97.897 196.479 97.897C195.658 97.897 194.993 98.5645 194.993 99.388Z" fill="#D9A4C8"/>
<path d="M162.564 91.3263C162.876 92.088 163.744 92.452 164.503 92.1393C165.262 91.8266 165.625 90.9555 165.313 90.1937C165.002 89.432 164.134 89.068 163.375 89.3807C162.615 89.6934 162.253 90.5645 162.564 91.3263Z" fill="#D9A4C8"/>
<path d="M123.337 95.9735C122.847 96.1416 122.322 96.1737 121.799 96.0626C120.252 95.7276 119.264 94.193 119.599 92.6428C119.763 91.8915 120.21 91.2485 120.854 90.8336C121.499 90.4187 122.272 90.2787 123.017 90.4388C124.564 90.7738 125.553 92.3084 125.218 93.8586C125.053 94.6099 124.607 95.2529 123.962 95.6678C123.762 95.7992 123.551 95.8999 123.332 95.9752L123.337 95.9735Z" fill="#B44B92"/>
<path d="M120.852 85.6823C120.522 87.2372 121.506 88.7811 123.051 89.1302C124.595 89.4735 126.116 88.486 126.445 86.9311L126.957 84.5117C126.957 84.5117 126.971 84.4943 126.984 84.4768C127.022 84.438 127.069 84.3894 127.139 84.333C127.279 84.2203 127.469 84.084 127.689 83.9438C128.124 83.6652 128.643 83.3707 129.039 83.1445L129.062 83.1367C131.507 81.7481 135.33 79.5892 136.405 74.5068C137.556 69.0493 134.095 63.6223 128.684 62.4209C123.277 61.2116 117.938 64.673 116.787 70.1305C116.46 71.6911 117.442 73.2293 118.987 73.5784C120.53 73.9217 122.053 72.9399 122.381 71.3793C122.879 69.0296 125.169 67.5453 127.494 68.0602C129.818 68.5751 131.309 70.9083 130.811 73.258C130.277 75.7818 128.397 76.8602 126.219 78.0927L126.171 78.1219C124.27 79.1946 121.941 80.511 121.365 83.2108L120.846 85.6843L120.852 85.6823Z" fill="#B44B92"/>
<defs>
<linearGradient id="paint0_linear_3877_170648" x1="158.795" y1="73.8769" x2="62.1039" y2="73.8769" gradientUnits="userSpaceOnUse">
<stop stop-color="#B44B92"/>
<stop offset="1" stop-color="#732280"/>
</linearGradient>
<linearGradient id="paint1_linear_3877_170648" x1="173.737" y1="131.553" x2="126.273" y2="131.553" gradientUnits="userSpaceOnUse">
<stop stop-color="#B44B92"/>
<stop offset="1" stop-color="#732280"/>
</linearGradient>
</defs>
</svg>
