<svg width="288" height="202" viewBox="0 0 288 202" fill="none" xmlns="http://www.w3.org/2000/svg">
<path d="M257.093 57.0127C246.263 29.33 212.904 12.7321 184.65 23.7146C152.4 36.2543 163.091 87.7853 133.8 98.2082C117.976 103.838 94.5854 82.8122 78.5962 79.586C49.1365 73.6447 22.4669 94.5247 15.8987 123.443C9.19983 152.946 19.9433 192.351 52.2123 200.36C90.6475 209.898 110.667 175.188 142.912 165.223C175.999 154.994 212.787 179.149 240.179 149.759C260.416 128.047 267.812 84.4229 257.093 57.0127Z" fill="#F8EDF5"/>
<path fillRule="evenodd" clipRule="evenodd" d="M240.874 23.3934C237.588 16.6637 230.476 12 222.239 12C213.071 12 205.293 17.7793 202.637 25.7558C196.706 26.1042 191.942 30.6797 192.001 36.6423C192.005 37.2034 253 37.0269 253 36.6423C253.035 27.6226 249.814 23.3119 242.396 23.3119C241.884 23.3119 241.375 23.3391 240.874 23.3934Z" fill="#DCF5F6"/>
<path fillRule="evenodd" clipRule="evenodd" d="M45.8621 51.4819C43.1142 45.2906 37.1681 41 30.2818 41C22.6165 41 16.1138 46.3169 13.8931 53.6553C8.93437 53.9759 4.95128 58.1853 5.00045 63.6709C5.00438 64.1872 55.9998 64.0248 55.9998 63.6709C56.0293 55.3728 53.3365 51.407 47.1347 51.407C46.7059 51.407 46.281 51.4319 45.8621 51.4819Z" fill="#DCF5F6"/>
<path fillRule="evenodd" clipRule="evenodd" d="M106.134 16.302V17.3283C106.134 17.8835 106.581 18.3335 107.131 18.3335C107.681 18.3335 108.127 17.8835 108.127 17.3283V16.302C108.127 15.7478 107.68 15.2968 107.131 15.2968C106.581 15.2968 106.134 15.7478 106.134 16.302ZM110.264 13.161H109.247C108.697 13.161 108.25 13.612 108.25 14.1663C108.25 14.7205 108.697 15.1715 109.247 15.1715H110.264C110.815 15.1715 111.261 14.7215 111.261 14.1663C111.261 13.611 110.815 13.161 110.264 13.161ZM105.014 13.161H103.996C103.446 13.161 103 13.612 103 14.1663C103 14.7205 103.446 15.1715 103.996 15.1715H105.014C105.563 15.1715 106.01 14.7215 106.01 14.1663C106.01 13.611 105.563 13.161 105.014 13.161ZM106.133 11.0052V12.0315C106.133 12.5868 106.58 13.0368 107.13 13.0368C107.68 13.0368 108.126 12.5858 108.126 12.0315V11.0052C108.126 10.45 107.679 10 107.13 10C106.581 10 106.133 10.45 106.133 11.0052Z" fill="#D9A4C8"/>
<path fillRule="evenodd" clipRule="evenodd" d="M85.7782 7.58098V8.60727C85.7782 9.1625 86.2253 9.61251 86.7747 9.61251C87.3241 9.61251 87.7711 9.1625 87.7711 8.60727V7.58098C87.7711 7.02575 87.3251 6.57574 86.7747 6.57574C86.2243 6.57574 85.7782 7.02575 85.7782 7.58098ZM89.9091 4.43999H88.8918C88.3424 4.43999 87.8953 4.891 87.8953 5.44623C87.8953 6.00147 88.3424 6.45147 88.8918 6.45147H89.9091C90.4595 6.45147 90.9055 6.00147 90.9055 5.44623C90.9055 4.891 90.4595 4.43999 89.9091 4.43999ZM84.6586 4.43999H83.6413C83.0909 4.43999 82.6448 4.891 82.6448 5.44623C82.6448 6.00147 83.0909 6.45147 83.6413 6.45147H84.6586C85.209 6.45147 85.655 6.00147 85.655 5.44623C85.655 4.891 85.208 4.43999 84.6586 4.43999ZM85.7782 2.2842V3.31048C85.7782 3.86572 86.2253 4.31571 86.7747 4.31571C87.3241 4.31571 87.7711 3.86471 87.7711 3.31048V2.2842C87.7711 1.72896 87.3251 1.27795 86.7747 1.27795C86.2243 1.27795 85.7782 1.72896 85.7782 2.2842Z" fill="#D9A4C8"/>
<path d="M100.82 2.55769C101.52 2.55769 102.088 1.98513 102.088 1.27885C102.088 0.57256 101.52 0 100.82 0C100.12 0 99.5522 0.57256 99.5522 1.27885C99.5522 1.98513 100.12 2.55769 100.82 2.55769Z" fill="#D9A4C8"/>
<path d="M91.2677 21.5577C91.9678 21.5577 92.5354 20.9851 92.5354 20.2788C92.5354 19.5726 91.9678 19 91.2677 19C90.5676 19 90 19.5726 90 20.2788C90 20.9851 90.5676 21.5577 91.2677 21.5577Z" fill="#D9A4C8"/>
<path d="M74.2677 17.3936C74.9678 17.3936 75.5354 16.8211 75.5354 16.1148C75.5354 15.4085 74.9678 14.8359 74.2677 14.8359C73.5676 14.8359 73 15.4085 73 16.1148C73 16.8211 73.5676 17.3936 74.2677 17.3936Z" fill="#D9A4C8"/>
<path d="M199.114 48.7064C197.089 25.5734 177.758 7.43298 154.207 7.43298C139.066 7.43298 125.668 14.9315 117.492 26.4347C103.886 26.8386 92.1975 34.9016 86.5497 46.4826C72.7547 46.9157 61.7061 58.2827 61.7061 72.2432C61.7061 86.2038 73.1955 98.0233 87.3683 98.0233H188.641C202.814 98.0233 214.304 86.4811 214.304 72.2432C214.304 61.7521 208.065 52.7354 199.114 48.7064Z" fill="white"/>
<path d="M87.3635 88.2913C78.5527 88.2913 71.3888 81.0896 71.3888 72.2432C71.3888 63.3968 78.1797 56.4822 86.85 56.2097L92.6771 56.0248L95.2442 50.7647C99.5019 42.0448 108.133 36.4489 117.777 36.1618L122.582 36.0207L125.377 32.0938C132.023 22.7462 142.8 17.1698 154.207 17.1698C163.115 17.1698 171.625 20.503 178.174 26.5612C184.684 32.5853 188.695 40.7553 189.47 49.5676L189.969 55.2608L195.161 57.5965C200.906 60.1804 204.621 65.932 204.621 72.2481C204.621 81.0993 197.452 88.2961 188.646 88.2961H87.3732L87.3635 88.2913Z" fill="#C36FA8"/>
<path d="M184.771 69.8589H177.515C176.178 69.8589 175.093 68.7689 175.093 67.4259C175.093 66.0829 176.178 64.9929 177.515 64.9929H184.771C186.108 64.9929 187.193 66.0829 187.193 67.4259C187.193 68.7689 186.108 69.8589 184.771 69.8589Z" fill="white"/>
<path d="M184.771 78.5253H170.124C168.787 78.5253 167.702 77.4353 167.702 76.0923C167.702 74.7493 168.787 73.6593 170.124 73.6593H184.771C186.108 73.6593 187.193 74.7493 187.193 76.0923C187.193 77.4353 186.108 78.5253 184.771 78.5253Z" fill="white"/>
<path d="M247.275 119.745V186.108C247.275 187.451 246.19 188.541 244.853 188.541H147.363C146.026 188.541 144.941 187.451 144.941 186.108V119.745C144.941 118.402 146.026 117.312 147.363 117.312H244.853C246.19 117.312 247.275 118.402 247.275 119.745Z" fill="white"/>
<path d="M235.219 167.534H208.462C207.125 167.534 206.04 166.444 206.04 165.101V128.703C206.04 127.36 207.125 126.27 208.462 126.27H235.214C236.551 126.27 237.636 127.36 237.636 128.703V165.101C237.636 166.444 236.551 167.534 235.214 167.534H235.219Z" fill="#E1B7D3"/>
<path d="M218.019 139.735C216.682 139.735 215.597 138.645 215.597 137.302V137.248C215.597 135.905 216.682 134.815 218.019 134.815C219.356 134.815 220.441 135.905 220.441 137.248V137.302C220.441 138.645 219.356 139.735 218.019 139.735Z" fill="white"/>
<path d="M225.662 139.735C224.325 139.735 223.24 138.645 223.24 137.302V137.248C223.24 135.905 224.325 134.815 225.662 134.815C226.999 134.815 228.084 135.905 228.084 137.248V137.302C228.084 138.645 226.999 139.735 225.662 139.735Z" fill="white"/>
<path d="M228.932 150.78H214.754C213.417 150.78 212.332 149.69 212.332 148.347C212.332 147.004 213.417 145.914 214.754 145.914H228.932C230.269 145.914 231.354 147.004 231.354 148.347C231.354 149.69 230.269 150.78 228.932 150.78Z" fill="white"/>
<path d="M228.932 158.994H214.754C213.417 158.994 212.332 157.904 212.332 156.561C212.332 155.218 213.417 154.128 214.754 154.128H228.932C230.269 154.128 231.354 155.218 231.354 156.561C231.354 157.904 230.269 158.994 228.932 158.994Z" fill="white"/>
<path d="M244.853 188.541H147.363C146.026 188.541 144.941 187.451 144.941 186.108V175.461H247.275V186.108C247.275 187.451 246.19 188.541 244.853 188.541Z" fill="url(#paint0_linear_3890_18824)"/>
<path d="M131.059 119.745V186.108C131.059 187.451 129.974 188.541 128.637 188.541H31.1469C29.81 188.541 28.725 187.451 28.725 186.108V119.745C28.725 118.402 29.81 117.312 31.1469 117.312H128.637C129.974 117.312 131.059 118.402 131.059 119.745Z" fill="white"/>
<path d="M47.5381 140.09H40.2822C38.9453 140.09 37.8603 139 37.8603 137.657C37.8603 136.314 38.9453 135.224 40.2822 135.224H47.5381C48.875 135.224 49.96 136.314 49.96 137.657C49.96 139 48.875 140.09 47.5381 140.09Z" fill="#E1B7D3"/>
<path d="M54.9297 131.423H40.2822C38.9453 131.423 37.8603 130.334 37.8603 128.99C37.8603 127.647 38.9453 126.557 40.2822 126.557H54.9297C56.2666 126.557 57.3516 127.647 57.3516 128.99C57.3516 130.334 56.2666 131.423 54.9297 131.423Z" fill="#E1B7D3"/>
<path d="M128.637 188.541H31.1469C29.81 188.541 28.725 187.451 28.725 186.108V175.461H131.059V186.108C131.059 187.451 129.974 188.541 128.637 188.541Z" fill="url(#paint1_linear_3890_18824)"/>
<path d="M138 134.319C154.051 134.319 167.063 121.247 167.063 105.123C167.063 88.9983 154.051 75.9268 138 75.9268C121.949 75.9268 108.938 88.9983 108.938 105.123C108.938 121.247 121.949 134.319 138 134.319Z" fill="white"/>
<path d="M155 97.7469L151.918 101.902C147.735 99.4555 142.968 98.1528 138 98.1528C133.032 98.1528 128.265 99.4517 124.082 101.899L121 97.7469C126.075 94.6506 131.913 93 138 93C144.087 93 149.925 94.6506 155 97.7469Z" fill="url(#paint2_linear_3890_18824)"/>
<path d="M149.282 105.451L146.181 109.63C143.672 108.37 140.89 107.697 138 107.697C135.11 107.697 132.328 108.366 129.819 109.63L126.714 105.451C130.131 103.553 133.987 102.544 137.996 102.544C142.006 102.544 145.861 103.553 149.278 105.451H149.282Z" fill="url(#paint3_linear_3890_18824)"/>
<path d="M143.51 113.229L140.301 117.547C139.562 117.342 138.789 117.237 138.004 117.237C137.219 117.237 136.442 117.342 135.703 117.547L132.497 113.225C134.214 112.479 136.08 112.085 138.008 112.085C139.936 112.085 141.802 112.475 143.518 113.225L143.51 113.229Z" fill="url(#paint4_linear_3890_18824)"/>
<path d="M229.804 91.4542C226.733 91.4542 224.233 93.9651 224.233 97.0501C224.233 100.135 226.733 102.646 229.804 102.646C232.875 102.646 235.374 100.135 235.374 97.0501C235.374 93.9651 232.875 91.4542 229.804 91.4542Z" fill="#B44B92"/>
<path d="M46.1964 102.646C49.2674 102.646 51.7667 100.135 51.7667 97.0501C51.7667 93.9651 49.2674 91.4542 46.1964 91.4542C43.1255 91.4542 40.6261 93.9651 40.6261 97.0501C40.6261 100.135 43.1255 102.646 46.1964 102.646Z" fill="#B44B92"/>
<path d="M244.853 114.879H232.225V107.215C236.803 106.115 240.218 101.979 240.218 97.0501C240.218 92.1209 236.803 87.9848 232.225 86.885V77.3477C232.225 73.3235 228.966 70.0487 224.96 70.0487H216.633C215.873 60.2924 210.099 51.5676 201.38 47.1006C200.058 35.7969 194.759 25.3642 186.37 17.6029C177.583 9.47672 166.157 5 154.202 5C139.284 5 125.179 12.0995 116.218 24.0553C103.033 24.863 91.2723 32.4345 85.0191 44.1324C78.2523 44.692 71.9748 47.6651 67.2086 52.5943C62.6022 57.3582 59.8655 63.4893 59.3666 70.0487H51.0353C47.0295 70.0487 43.7697 73.3235 43.7697 77.3477V86.885C39.1923 87.9848 35.7775 92.1209 35.7775 97.0501C35.7775 101.979 39.1923 106.115 43.7697 107.215V114.879H31.142C28.4731 114.879 26.2983 117.064 26.2983 119.745V186.108C26.2983 188.789 28.4731 190.974 31.142 190.974H37.8555H66.6952H128.632C131.301 190.974 133.476 188.789 133.476 186.108V136.421C134.953 136.635 136.46 136.752 137.995 136.752C150.109 136.752 160.635 129.842 165.9 119.74H244.848V186.103H147.358V149.043C147.358 147.7 146.273 146.61 144.936 146.61C143.599 146.61 142.514 147.7 142.514 149.043V186.103C142.514 188.784 144.689 190.969 147.358 190.969H178.068H182.911H209.3H214.144H244.853C247.522 190.969 249.697 188.784 249.697 186.103V119.74C249.697 117.059 247.527 114.874 244.853 114.874V114.879ZM38.2042 97.0501C38.2042 92.6172 41.7837 89.0212 46.1964 89.0212C50.6091 89.0212 54.1886 92.6172 54.1886 97.0501C54.1886 101.483 50.6091 105.079 46.1964 105.079C41.7837 105.079 38.2042 101.483 38.2042 97.0501ZM128.637 186.108H31.1469V119.745H110.095C113.941 127.127 120.601 132.805 128.637 135.326V186.108ZM138 131.886C123.309 131.886 111.359 119.881 111.359 105.123C111.359 90.3642 123.309 78.3598 138 78.3598C152.691 78.3598 164.641 90.3642 164.641 105.123C164.641 119.881 152.691 131.886 138 131.886ZM138 73.4938C120.64 73.4938 106.516 87.6831 106.516 105.123C106.516 108.524 107.058 111.804 108.056 114.879H48.6183V107.215C53.1956 106.115 56.6105 101.979 56.6105 97.0501C56.6105 92.1209 53.1956 87.9848 48.6183 86.885V77.3477C48.6183 76.0047 49.7033 74.9147 51.0402 74.9147H59.4102C60.7567 89.2207 72.7789 100.456 87.3683 100.456H93.8734C95.2103 100.456 96.2953 99.3663 96.2953 98.0233C96.2953 96.6803 95.2103 95.5903 93.8734 95.5903H87.3683C74.5517 95.5903 64.128 85.1187 64.128 72.2433C64.128 59.3678 74.0092 49.3147 86.6272 48.9156C87.5233 48.8865 88.3322 48.3658 88.7245 47.5532C94.1689 36.3954 105.222 29.2327 117.564 28.8677C118.32 28.8434 119.022 28.4687 119.463 27.8507C127.47 16.5908 140.456 9.87087 154.207 9.87087C176.12 9.87087 194.783 27.0235 196.701 48.9254C196.779 49.8061 197.321 50.5701 198.125 50.9302C206.481 54.6916 211.882 63.0562 211.882 72.2433C211.882 85.1187 201.453 95.5903 188.641 95.5903H168.026C163.992 82.7976 152.061 73.4938 138.005 73.4938H138ZM227.382 114.874H167.944C168.937 111.799 169.484 108.524 169.484 105.123C169.484 103.536 169.363 101.979 169.14 100.456H188.637C203.226 100.456 215.248 89.2207 216.595 74.9147H224.965C226.302 74.9147 227.387 76.0047 227.387 77.3477V86.885C222.809 87.9848 219.394 92.1209 219.394 97.0501C219.394 101.979 222.809 106.115 227.387 107.215V114.879L227.382 114.874ZM221.811 97.0453C221.811 92.6123 225.391 89.0164 229.804 89.0164C234.216 89.0164 237.796 92.6123 237.796 97.0453C237.796 101.478 234.216 105.074 229.804 105.074C225.391 105.074 221.811 101.478 221.811 97.0453Z" fill="#363636"/>
<path d="M96 46C96 54.8366 88.8366 62 80 62C71.1635 62 64 54.8366 64 46C64 37.1634 71.1635 30 80 30C88.8366 30 96 37.1634 96 46Z" fill="white"/>
<path fillRule="evenodd" clipRule="evenodd" d="M100 46C100 57.0457 91.0457 66 80 66C68.9543 66 60 57.0457 60 46C60 34.9543 68.9543 26 80 26C91.0457 26 100 34.9543 100 46ZM80 62C88.8366 62 96 54.8366 96 46C96 37.1634 88.8366 30 80 30C71.1635 30 64 37.1634 64 46C64 54.8366 71.1635 62 80 62Z" fill="#363636"/>
<path d="M74.5671 53C74.1688 53 73.7704 52.8533 73.456 52.5389C72.848 51.9312 72.848 50.9253 73.456 50.3175L85.3218 38.4558C85.9298 37.8481 86.9361 37.8481 87.544 38.4558C88.152 39.0636 88.152 40.0695 87.544 40.6773L75.6782 52.5389C75.3847 52.8533 74.9654 53 74.5671 53Z" fill="#B44B92"/>
<path d="M86.4329 53C86.0346 53 85.6363 52.8533 85.3218 52.5389L73.456 40.6773C72.848 40.0695 72.848 39.0636 73.456 38.4558C74.0639 37.8481 75.0702 37.8481 75.6782 38.4558L87.544 50.3175C88.152 50.9253 88.152 51.9312 87.544 52.5389C87.2296 52.8533 86.8312 53 86.4329 53Z" fill="#B44B92"/>
<path fillRule="evenodd" clipRule="evenodd" d="M272.591 94.2443L272.591 96.309C272.591 97.384 271.721 98.2557 270.65 98.2557C269.579 98.2557 268.71 97.3828 268.71 96.309L268.71 94.2443L266.652 94.2443C265.581 94.2443 264.711 93.3714 264.711 92.2975C264.711 91.2237 265.581 90.3497 266.652 90.3497L268.71 90.3497L268.71 88.2849C268.71 87.2099 269.58 86.337 270.65 86.337C271.72 86.337 272.591 87.2099 272.591 88.2849L272.591 90.3497L274.648 90.3497C275.72 90.3497 276.59 91.2225 276.59 92.2975C276.59 93.3726 275.72 94.2443 274.648 94.2443L272.591 94.2443Z" fill="#D9A4C8"/>
<path fillRule="evenodd" clipRule="evenodd" d="M256.29 77.0294L255.098 77.0294C254.453 77.0294 253.93 76.5048 253.93 75.8574C253.93 75.2101 254.453 74.6854 255.098 74.6854L256.29 74.6854C256.935 74.6854 257.458 75.2101 257.458 75.8574C257.458 76.5048 256.934 77.0294 256.29 77.0294ZM259.94 72.172L259.94 73.3685C259.94 74.0159 259.417 74.5405 258.772 74.5405C258.127 74.5405 257.604 74.0147 257.604 73.3685L257.604 72.172C257.604 71.5247 258.128 71 258.772 71C259.416 71 259.94 71.5247 259.94 72.172ZM259.94 78.3475L259.94 79.5441C259.94 80.1914 259.417 80.7161 258.772 80.7161C258.127 80.7161 257.604 80.1914 257.604 79.5441L257.604 78.3475C257.604 77.7002 258.128 77.1755 258.772 77.1755C259.416 77.1755 259.94 77.7013 259.94 78.3475ZM262.444 77.0306L261.252 77.0306C260.607 77.0306 260.084 76.506 260.084 75.8586C260.084 75.2113 260.607 74.6866 261.252 74.6866L262.444 74.6866C263.089 74.6866 263.612 75.2113 263.612 75.8586C263.612 76.506 263.089 77.0306 262.444 77.0306Z" fill="#D9A4C8"/>
<path fillRule="evenodd" clipRule="evenodd" d="M262.231 115.911L261.038 115.911C260.393 115.911 259.87 115.386 259.87 114.739C259.87 114.091 260.394 113.567 261.038 113.567L262.231 113.567C262.876 113.567 263.399 114.093 263.399 114.739C263.399 115.385 262.875 115.911 262.231 115.911ZM265.88 111.053L265.88 112.25C265.88 112.897 265.356 113.423 264.712 113.423C264.068 113.423 263.544 112.897 263.544 112.25L263.544 111.053C263.544 110.406 264.068 109.881 264.712 109.881C265.356 109.881 265.88 110.407 265.88 111.053ZM265.88 117.229L265.88 118.425C265.88 119.073 265.356 119.597 264.712 119.597C264.068 119.597 263.544 119.073 263.544 118.425L263.544 117.229C263.544 116.582 264.068 116.057 264.712 116.057C265.356 116.057 265.88 116.582 265.88 117.229ZM268.385 115.912L267.192 115.912C266.547 115.912 266.024 115.387 266.024 114.74C266.024 114.093 266.547 113.568 267.192 113.568L268.385 113.568C269.03 113.568 269.553 114.094 269.553 114.74C269.553 115.386 269.029 115.912 268.385 115.912Z" fill="#D9A4C8"/>
<path d="M278.713 78.8234C279.523 78.9548 280.285 78.4023 280.416 77.5894C280.547 76.7765 279.997 76.011 279.187 75.8796C278.377 75.7482 277.614 76.3007 277.483 77.1136C277.352 77.9265 277.903 78.692 278.713 78.8234Z" fill="#D9A4C8"/>
<path d="M284.993 108.388C284.993 109.212 285.659 109.879 286.479 109.879C287.3 109.879 287.965 109.212 287.965 108.388C287.965 107.565 287.3 106.897 286.479 106.897C285.659 106.897 284.993 107.565 284.993 108.388Z" fill="#D9A4C8"/>
<path d="M253.564 98.5118C253.876 99.2736 254.744 99.6376 255.503 99.3248C256.262 99.0121 256.625 98.1411 256.313 97.3793C256.002 96.6175 255.134 96.2535 254.374 96.5663C253.615 96.879 253.253 97.75 253.564 98.5118Z" fill="#D9A4C8"/>
<path fillRule="evenodd" clipRule="evenodd" d="M20.591 111.244L20.591 113.309C20.591 114.384 19.7211 115.256 18.6499 115.256C17.5786 115.256 16.7099 114.383 16.7099 113.309L16.7099 111.244L14.6524 111.244C13.5811 111.244 12.7113 110.371 12.7113 109.298C12.7113 108.224 13.5811 107.35 14.6524 107.35L16.7099 107.35L16.7099 105.285C16.7099 104.21 17.5798 103.337 18.6499 103.337C19.72 103.337 20.591 104.21 20.591 105.285L20.591 107.35L22.6485 107.35C23.7198 107.35 24.5896 108.223 24.5896 109.298C24.5896 110.373 23.7198 111.244 22.6485 111.244L20.591 111.244Z" fill="#D9A4C8"/>
<path fillRule="evenodd" clipRule="evenodd" d="M4.29031 94.0294L3.09793 94.0294C2.45284 94.0294 1.93002 93.5048 1.93002 92.8574C1.93002 92.2101 2.45284 91.6854 3.09793 91.6854L4.29031 91.6854C4.93541 91.6854 5.45822 92.2101 5.45822 92.8574C5.45822 93.5048 4.93424 94.0294 4.29031 94.0294ZM7.93962 89.172L7.93962 90.3685C7.93962 91.0159 7.41679 91.5405 6.77169 91.5405C6.1266 91.5405 5.60377 91.0147 5.60377 90.3685L5.60377 89.172C5.60377 88.5247 6.12777 88 6.77169 88C7.41562 88 7.93962 88.5247 7.93962 89.172ZM7.93961 95.3475L7.93961 96.5441C7.93961 97.1914 7.41678 97.7161 6.77169 97.7161C6.1266 97.7161 5.60377 97.1914 5.60377 96.5441L5.60377 95.3475C5.60377 94.7002 6.12777 94.1755 6.77169 94.1755C7.41562 94.1755 7.93961 94.7013 7.93961 95.3475ZM10.4443 94.0306L9.25192 94.0306C8.60683 94.0306 8.084 93.506 8.084 92.8586C8.084 92.2113 8.60683 91.6866 9.25192 91.6866L10.4443 91.6866C11.0894 91.6866 11.6122 92.2113 11.6122 92.8586C11.6122 93.506 11.0894 94.0306 10.4443 94.0306Z" fill="#D9A4C8"/>
<path fillRule="evenodd" clipRule="evenodd" d="M10.2307 132.911L9.03828 132.911C8.39319 132.911 7.87038 132.386 7.87038 131.739C7.87038 131.091 8.39436 130.567 9.03828 130.567L10.2307 130.567C10.8757 130.567 11.3986 131.093 11.3986 131.739C11.3986 132.385 10.8746 132.911 10.2307 132.911ZM13.88 128.053L13.88 129.25C13.88 129.897 13.356 130.423 12.712 130.423C12.0681 130.423 11.5441 129.897 11.5441 129.25L11.5441 128.053C11.5441 127.406 12.0681 126.881 12.712 126.881C13.356 126.881 13.88 127.407 13.88 128.053ZM13.88 134.229L13.88 135.425C13.88 136.073 13.356 136.597 12.712 136.597C12.0681 136.597 11.5441 136.073 11.5441 135.425L11.5441 134.229C11.5441 133.582 12.0681 133.057 12.712 133.057C13.356 133.057 13.88 133.582 13.88 134.229ZM16.3846 132.912L15.1923 132.912C14.5472 132.912 14.0244 132.387 14.0244 131.74C14.0244 131.093 14.5472 130.568 15.1923 130.568L16.3846 130.568C17.0297 130.568 17.5526 131.094 17.5526 131.74C17.5526 132.386 17.0286 132.912 16.3846 132.912Z" fill="#D9A4C8"/>
<path d="M26.7126 95.8233C27.5226 95.9547 28.2855 95.4022 28.4164 94.5892C28.5473 93.7763 27.9967 93.0108 27.1866 92.8795C26.3766 92.7481 25.6137 93.3006 25.4828 94.1135C25.3519 94.9264 25.9025 95.6919 26.7126 95.8233Z" fill="#D9A4C8"/>
<path d="M0.564285 117.326C0.875927 118.088 1.74394 118.452 2.50305 118.139C3.26216 117.827 3.6249 116.956 3.31326 116.194C3.00161 115.432 2.1336 115.068 1.37449 115.381C0.615386 115.694 0.252643 116.565 0.564285 117.326Z" fill="#D9A4C8"/>
<defs>
<linearGradient id="paint0_linear_3890_18824" x1="252.051" y1="180.8" x2="92.9555" y2="180.8" gradientUnits="userSpaceOnUse">
<stop stop-color="#B44B92"/>
<stop offset="1" stop-color="#732280"/>
</linearGradient>
<linearGradient id="paint1_linear_3890_18824" x1="135.835" y1="180.8" x2="-23.2606" y2="180.8" gradientUnits="userSpaceOnUse">
<stop stop-color="#B44B92"/>
<stop offset="1" stop-color="#732280"/>
</linearGradient>
<linearGradient id="paint2_linear_3890_18824" x1="156.587" y1="96.6339" x2="103.728" y2="96.6339" gradientUnits="userSpaceOnUse">
<stop stop-color="#B44B92"/>
<stop offset="1" stop-color="#732280"/>
</linearGradient>
<linearGradient id="paint3_linear_3890_18824" x1="150.335" y1="105.437" x2="115.25" y2="105.437" gradientUnits="userSpaceOnUse">
<stop stop-color="#B44B92"/>
<stop offset="1" stop-color="#732280"/>
</linearGradient>
<linearGradient id="paint4_linear_3890_18824" x1="144.032" y1="114.314" x2="126.899" y2="114.314" gradientUnits="userSpaceOnUse">
<stop stop-color="#B44B92"/>
<stop offset="1" stop-color="#732280"/>
</linearGradient>
</defs>
</svg>
