<svg width="40" height="44" viewBox="0 0 40 44" fill="none" xmlns="http://www.w3.org/2000/svg">
  <path d="M16.8596 43.5C15.8996 43.5 14.9396 43.26 14.0596 42.76C12.2796 41.76 11.2196 39.98 11.2196 37.96V27.26C11.2196 26.24 10.5596 24.74 9.93961 23.96L2.33961 15.98C1.07961 14.72 0.0996094 12.52 0.0996094 10.9V6.26001C0.0996094 3.04001 2.53961 0.52002 5.63961 0.52002H32.2996C35.3596 0.52002 37.8396 3.00006 37.8396 6.06006V10.5C37.8396 12.6 36.5796 15.02 35.3796 16.2C34.7996 16.78 33.8396 16.78 33.2596 16.2C32.6796 15.62 32.6796 14.66 33.2596 14.08C33.9996 13.34 34.8396 11.68 34.8396 10.5V6.06006C34.8396 4.66006 33.6996 3.52002 32.2996 3.52002H5.65961C4.23961 3.52002 3.11961 4.72001 3.11961 6.26001V10.9C3.11961 11.64 3.71961 13.1 4.49961 13.88L12.1996 21.98C13.2196 23.24 14.2196 25.36 14.2196 27.26V37.96C14.2196 39.28 15.1196 39.92 15.5196 40.14C16.3796 40.62 17.3996 40.6 18.1996 40.12L20.9996 38.3199C21.6996 37.8799 22.6196 38.08 23.0796 38.78C23.5196 39.48 23.3196 40.4 22.6196 40.86L19.7996 42.6801C18.8996 43.2201 17.8796 43.5 16.8596 43.5Z" fill="#B44B92"/>
  <path d="M28.7598 38.5C24.9198 38.5 21.2998 36.46 19.3398 33.16C18.2998 31.48 17.7598 29.52 17.7598 27.5C17.7598 21.44 22.6998 16.5 28.7598 16.5C34.8198 16.5 39.7598 21.44 39.7598 27.5C39.7598 29.52 39.1998 31.4801 38.1598 33.1801C36.2198 36.4601 32.6198 38.5 28.7598 38.5ZM28.7598 19.5C24.3398 19.5 20.7598 23.08 20.7598 27.5C20.7598 28.96 21.1598 30.38 21.9198 31.6C23.3598 34.02 25.9798 35.5 28.7598 35.5C31.5998 35.5 34.1598 34.06 35.5998 31.62C36.3598 30.38 36.7598 28.96 36.7598 27.5C36.7598 23.08 33.1798 19.5 28.7598 19.5Z" fill="#B44B92"/>
  <path d="M31.3002 31.4799C30.9202 31.4799 30.5402 31.34 30.2402 31.04L25.2202 26.02C24.6402 25.44 24.6402 24.48 25.2202 23.9C25.8002 23.32 26.7602 23.32 27.3402 23.9L32.3602 28.92C32.9402 29.5 32.9402 30.46 32.3602 31.04C32.0802 31.34 31.7002 31.4799 31.3002 31.4799Z" fill="#B44B92"/>
  <path d="M26.2401 31.54C25.8601 31.54 25.4801 31.3999 25.1801 31.0999C24.6001 30.5199 24.6001 29.5599 25.1801 28.9799L30.2001 23.9599C30.7801 23.3799 31.7401 23.3799 32.3201 23.9599C32.9001 24.5399 32.9001 25.4999 32.3201 26.0799L27.3001 31.0999C27.0001 31.3999 26.6201 31.54 26.2401 31.54Z" fill="#B44B92"/>
</svg>
