<svg width="219" height="187" viewBox="0 0 219 187" fill="none" xmlns="http://www.w3.org/2000/svg">
<path fillRule="evenodd" clipRule="evenodd" d="M204.916 22.1683C201.358 14.3903 193.658 9 184.74 9C174.813 9 166.392 15.6796 163.517 24.8988C157.095 25.3015 151.937 30.5898 152.001 37.4813C152.006 38.1299 218.045 37.9259 218.045 37.4813C218.083 27.0564 214.596 22.0742 206.564 22.0742C206.009 22.0742 205.459 22.1056 204.916 22.1683Z" fill="#DCF5F6"/>
<path fillRule="evenodd" clipRule="evenodd" d="M46.3019 72.6601C43.1882 66.3635 36.4505 62 28.6475 62C19.9618 62 12.5933 67.4073 10.077 74.8704C4.45814 75.1965 -0.0552099 79.4775 0.000510425 85.0563C0.00496805 85.5813 57.7892 85.4162 57.7892 85.0563C57.8226 76.6171 54.7714 72.5839 47.7439 72.5839C47.2581 72.5839 46.7766 72.6093 46.3019 72.6601Z" fill="#DCF5F6"/>
<path d="M204.36 139.561C198.717 113.843 159.116 112.593 153.182 86.2544C151.521 78.8799 153.67 71.1924 153.233 63.6454C150.967 24.5019 101.691 -1.56871 61.4492 44.5393C39.6874 69.4732 28.695 128.263 77.6991 141.414C135.736 156.989 125.094 180.634 153.778 186.457C176.941 191.159 209.83 164.491 204.36 139.561Z" fill="#F8EDF5"/>
<path d="M164.37 69.6812C174.789 69.6812 183.234 61.2354 183.234 50.817C183.234 40.3986 174.789 31.9529 164.37 31.9529C153.952 31.9529 145.506 40.3986 145.506 50.817C145.506 61.2354 153.952 69.6812 164.37 69.6812Z" fill="#CB81B3"/>
<path d="M175.935 59.0796V59.0737H152.806L152.809 59.0825C151.139 56.7517 150.159 53.8984 150.159 50.8164C150.159 42.967 156.52 36.6057 164.369 36.6057C172.219 36.6057 178.583 42.9667 178.583 50.8164C178.583 53.8984 177.602 56.7488 175.935 59.0796Z" fill="white"/>
<path d="M175.935 59.0733C173.357 62.6772 169.139 65.0289 164.371 65.0289C159.601 65.0289 155.384 62.6769 152.805 59.0733C153.595 56.6808 154.906 54.9286 156.317 53.6543C156.844 53.1781 157.649 53.198 158.159 53.6918C159.781 55.2597 161.935 56.2177 164.298 56.2177C166.691 56.2177 168.871 55.2349 170.499 53.6321C171.005 53.1337 171.809 53.1093 172.341 53.5809C173.783 54.8611 175.129 56.6342 175.935 59.0733Z" fill="#CB81B3"/>
<path d="M164.3 52.9167C167.515 52.9167 170.121 50.0641 170.121 46.5453C170.121 43.0264 167.515 40.1738 164.3 40.1738C161.085 40.1738 158.479 43.0264 158.479 46.5453C158.479 50.0641 161.085 52.9167 164.3 52.9167Z" fill="#CB81B3"/>
<path d="M83.5937 69.6812C94.0121 69.6812 102.458 61.2354 102.458 50.817C102.458 40.3986 94.0121 31.9529 83.5937 31.9529C73.1753 31.9529 64.7296 40.3986 64.7296 50.817C64.7296 61.2354 73.1753 69.6812 83.5937 69.6812Z" fill="#CB81B3"/>
<path d="M95.1575 59.0797V59.0738H72.029V59.0797C70.3616 56.7489 69.3811 53.8984 69.3811 50.8161C69.3811 42.9668 75.745 36.6055 83.5947 36.6055C91.4443 36.6055 97.8053 42.9665 97.8053 50.8161C97.8053 53.8984 96.8249 56.7489 95.1575 59.0797Z" fill="white"/>
<path d="M95.1585 59.0733C92.5801 62.6772 88.3623 65.0289 83.5947 65.0289C78.8247 65.0289 74.6073 62.6769 72.0286 59.0733C72.8183 56.6808 74.1298 54.9286 75.5408 53.6543C76.0679 53.1781 76.8723 53.198 77.3827 53.6918C79.0041 55.2597 81.1588 56.2177 83.5219 56.2177C85.9144 56.2177 88.0942 55.2349 89.7225 53.6321C90.2287 53.1337 91.033 53.1093 91.5644 53.5809C93.0064 54.8611 94.3525 56.6342 95.1585 59.0733Z" fill="#CB81B3"/>
<path d="M83.5229 52.9167C86.7379 52.9167 89.3441 50.0641 89.3441 46.5453C89.3441 43.0264 86.7379 40.1738 83.5229 40.1738C80.308 40.1738 77.7017 43.0264 77.7017 46.5453C77.7017 50.0641 80.308 52.9167 83.5229 52.9167Z" fill="#CB81B3"/>
<path d="M123.982 98.2854C141.383 98.2854 155.489 84.179 155.489 66.7778C155.489 49.3767 141.383 35.2703 123.982 35.2703C106.581 35.2703 92.4744 49.3767 92.4744 66.7778C92.4744 84.179 106.581 98.2854 123.982 98.2854Z" fill="#CB81B3"/>
<path d="M145.058 81.8355V81.8247H102.906V81.8355C99.8677 77.5936 98.081 72.3941 98.081 66.7774C98.081 52.4735 109.678 40.8765 123.982 40.8765C138.286 40.8765 149.883 52.4738 149.883 66.7774C149.883 72.3945 148.096 77.5936 145.058 81.8355Z" fill="white"/>
<path d="M145.149 81.4399C140.45 88.007 132.764 92.2926 124.076 92.2926C115.384 92.2926 107.699 88.0067 103 81.4399C104.439 77.0803 106.829 73.8871 109.4 71.565C110.361 70.6974 111.826 70.7333 112.757 71.6332C115.712 74.4905 119.638 76.2358 123.944 76.2358C128.303 76.2358 132.276 74.4451 135.243 71.524C136.165 70.6159 137.631 70.5712 138.599 71.4307C141.227 73.7644 143.68 76.9955 145.149 81.4399Z" fill="url(#paint0_linear_3877_170740)"/>
<path d="M123.946 70.2206C129.804 70.2206 134.553 65.0224 134.553 58.6102C134.553 52.1979 129.804 46.9998 123.946 46.9998C118.087 46.9998 113.338 52.1979 113.338 58.6102C113.338 65.0224 118.087 70.2206 123.946 70.2206Z" fill="url(#paint1_linear_3877_170740)"/>
<path d="M165.327 109.543C161.529 109.543 158.45 112.622 158.45 116.42V113.373C158.45 109.575 155.371 106.496 151.574 106.496C147.776 106.496 144.697 109.575 144.697 113.373V110.857C144.697 107.059 141.619 103.981 137.821 103.981C134.023 103.981 130.945 107.059 130.945 110.857V87.3363C130.945 83.5384 127.866 80.46 124.068 80.46C120.271 80.46 117.192 83.5387 117.192 87.3363V132.829C113.677 129.387 108.04 129.41 104.553 132.897C101.489 135.96 101.047 140.773 103.502 144.343L115.315 161.527C121.133 169.991 130.745 175.047 141.016 175.047C158.24 175.047 172.204 161.084 172.204 143.859V143.72V120.051V116.42C172.203 112.622 169.124 109.543 165.327 109.543Z" fill="#E1B7D3"/>
<path d="M92.4744 109.902C101.988 109.902 109.7 102.19 109.7 92.6764C109.7 83.163 101.988 75.4509 92.4744 75.4509C82.961 75.4509 75.2489 83.163 75.2489 92.6764C75.2489 102.19 82.961 109.902 92.4744 109.902Z" fill="#CB81B3"/>
<path d="M92.4744 104.595C99.0567 104.595 104.393 99.2587 104.393 92.6764C104.393 86.0941 99.0567 80.7581 92.4744 80.7581C85.8921 80.7581 80.5561 86.0941 80.5561 92.6764C80.5561 99.2587 85.8921 104.595 92.4744 104.595Z" fill="white"/>
<path d="M102.868 100.042C100.643 103.088 97.0044 105.075 92.8909 105.075C88.7755 105.075 85.1368 103.088 82.912 100.042C83.5933 98.0201 84.7248 96.5392 85.9422 95.4622C86.397 95.0598 87.091 95.0766 87.5314 95.4939C88.9303 96.819 90.7893 97.6286 92.8282 97.6286C94.8924 97.6286 96.7731 96.7981 98.1779 95.4435C98.6146 95.0223 99.3086 95.0016 99.767 95.4002C101.011 96.4822 102.173 97.9807 102.868 100.042Z" fill="#CB81B3"/>
<path d="M92.8293 94.8387C95.6031 94.8387 97.8517 92.4278 97.8517 89.4539C97.8517 86.4799 95.6031 84.0691 92.8293 84.0691C90.0555 84.0691 87.8069 86.4799 87.8069 89.4539C87.8069 92.4278 90.0555 94.8387 92.8293 94.8387Z" fill="#CB81B3"/>
<path d="M137.065 93.6441C136.255 94.0387 135.919 95.0153 136.314 95.8248C136.597 96.4041 137.178 96.7411 137.782 96.7411C138.021 96.7411 138.265 96.6879 138.495 96.5754C143.995 93.8919 148.645 89.7411 151.942 84.5719C154.765 80.1461 156.474 75.1354 156.967 69.9268C159.32 70.8417 161.8 71.3124 164.37 71.3124C175.671 71.3124 184.865 62.1182 184.865 50.8174C184.865 39.5165 175.671 30.3223 164.37 30.3223C156.469 30.3223 149.278 34.9201 145.896 41.9425C140.05 36.7783 132.377 33.6392 123.982 33.6392C115.588 33.6392 107.914 36.7779 102.069 41.9412C98.686 34.9282 91.4652 30.322 83.5933 30.322C72.2925 30.322 63.0983 39.5162 63.0983 50.817C63.0983 54.3204 64.0021 57.7831 65.7126 60.8308C66.0117 61.3638 66.5655 61.6639 67.1363 61.6639C67.4067 61.6639 67.6804 61.5967 67.9328 61.4548C68.7183 61.0138 68.9978 60.02 68.5571 59.2342C67.12 56.6731 66.3604 53.7627 66.3604 50.8167C66.3604 41.314 74.0913 33.5834 83.5937 33.5834C90.5894 33.5834 96.9726 37.9101 99.5816 44.3794C94.2282 50.2068 90.9309 57.9494 90.8477 66.4482C88.5697 67.5079 86.1316 68.05 83.5937 68.05C79.7266 68.05 76.0699 66.7942 73.0188 64.4184C72.3084 63.8652 71.2833 63.9924 70.7301 64.7031C70.1766 65.4139 70.3041 66.4384 71.0148 66.9922C74.6438 69.8182 78.9937 71.3117 83.5933 71.3117C86.1587 71.3117 88.6389 70.842 90.9916 69.9281C91.1162 71.2462 91.3213 72.5528 91.6009 73.8415C81.6073 74.2994 73.6174 82.5712 73.6174 92.676C73.6174 103.073 82.0763 111.533 92.474 111.533C101.319 111.533 108.758 105.409 110.783 97.1798C112.33 97.852 113.93 98.4062 115.56 98.8338V129.711C111.599 127.79 106.669 128.473 103.398 131.743C99.7796 135.362 99.2574 141.05 102.157 145.267L113.97 162.451C120.094 171.359 130.204 176.678 141.015 176.678C159.111 176.678 173.834 161.956 173.834 143.859V116.42C173.834 111.729 170.017 107.912 165.326 107.912C163.066 107.912 161.009 108.798 159.484 110.241C158.234 107.095 155.159 104.865 151.573 104.865C149.233 104.865 147.11 105.815 145.571 107.35C144.232 104.403 141.262 102.35 137.82 102.35C135.843 102.35 134.021 103.028 132.575 104.164V87.3362C132.575 82.6452 128.758 78.829 124.067 78.829C119.376 78.829 115.559 82.6452 115.559 87.3362V95.4497C114.099 95.0211 112.669 94.4787 111.291 93.8316C111.314 93.449 111.33 93.0644 111.33 92.6763C111.33 83.1306 104.198 75.2241 94.9839 73.9919C94.402 71.6451 94.1042 69.2197 94.1042 66.7776C94.1042 50.3036 107.507 36.9009 123.981 36.9009C140.455 36.9009 153.858 50.3036 153.858 66.7776C153.858 72.484 152.244 78.0305 149.19 82.8181C146.218 87.4804 142.025 91.2239 137.065 93.6441ZM118.822 87.3359C118.822 84.4437 121.175 82.0904 124.068 82.0904C126.961 82.0904 129.314 84.4437 129.314 87.3359V120.051C129.314 120.952 130.044 121.682 130.944 121.682C131.845 121.682 132.575 120.952 132.575 120.051V110.857C132.575 107.965 134.929 105.611 137.821 105.611C140.714 105.611 143.067 107.965 143.067 110.857V120.051C143.067 120.952 143.797 121.682 144.698 121.682C145.598 121.682 146.329 120.952 146.329 120.051V113.373C146.329 110.48 148.682 108.127 151.574 108.127C154.467 108.127 156.82 110.48 156.82 113.373V120.051C156.82 120.952 157.55 121.682 158.451 121.682C159.351 121.682 160.082 120.952 160.082 120.051V116.42C160.082 113.527 162.435 111.174 165.327 111.174C168.22 111.174 170.573 113.527 170.573 116.42V143.859C170.573 160.157 157.314 173.416 141.016 173.416C131.28 173.416 122.174 168.626 116.659 160.603L104.846 143.419C102.837 140.497 103.199 136.557 105.706 134.049C107.135 132.62 109.021 131.905 110.907 131.905C112.561 131.905 114.214 132.458 115.561 133.56V141.402C115.561 142.303 116.291 143.033 117.192 143.033C118.093 143.033 118.823 142.303 118.823 141.402V87.3359H118.822ZM108.069 92.676C108.069 101.275 101.073 108.271 92.474 108.271C83.8748 108.271 76.8791 101.275 76.8791 92.676C76.8791 84.0768 83.8748 77.081 92.474 77.081C101.073 77.081 108.069 84.0771 108.069 92.676ZM148.382 44.379C150.993 37.9003 157.349 33.5841 164.37 33.5841C173.873 33.5841 181.603 41.315 181.603 50.8174C181.603 60.3197 173.873 68.0507 164.37 68.0507C161.829 68.0507 159.393 67.5069 157.116 66.4469C157.033 57.9485 153.735 50.2058 148.382 44.379Z" fill="#363636"/>
<path fillRule="evenodd" clipRule="evenodd" d="M74.591 142.244L74.591 144.309C74.591 145.384 73.7211 146.256 72.6499 146.256C71.5786 146.256 70.7099 145.383 70.7099 144.309L70.7099 142.244L68.6524 142.244C67.5811 142.244 66.7113 141.371 66.7113 140.297C66.7113 139.224 67.5811 138.35 68.6524 138.35L70.7099 138.35L70.7099 136.285C70.7099 135.21 71.5798 134.337 72.6499 134.337C73.72 134.337 74.591 135.21 74.591 136.285L74.591 138.35L76.6485 138.35C77.7198 138.35 78.5896 139.222 78.5896 140.297C78.5896 141.372 77.7198 142.244 76.6485 142.244L74.591 142.244Z" fill="#D9A4C8"/>
<path fillRule="evenodd" clipRule="evenodd" d="M58.2903 125.029L57.098 125.029C56.4529 125.029 55.93 124.505 55.93 123.857C55.93 123.21 56.4529 122.685 57.098 122.685L58.2903 122.685C58.9354 122.685 59.4582 123.21 59.4582 123.857C59.4582 124.505 58.9343 125.029 58.2903 125.029ZM61.9396 120.172L61.9396 121.369C61.9396 122.016 61.4168 122.541 60.7717 122.541C60.1266 122.541 59.6038 122.015 59.6038 121.369L59.6038 120.172C59.6038 119.525 60.1278 119 60.7717 119C61.4156 119 61.9396 119.525 61.9396 120.172ZM61.9396 126.348L61.9396 127.544C61.9396 128.191 61.4168 128.716 60.7717 128.716C60.1266 128.716 59.6038 128.191 59.6038 127.544L59.6038 126.348C59.6038 125.7 60.1278 125.176 60.7717 125.176C61.4156 125.176 61.9396 125.701 61.9396 126.348ZM64.4443 125.031L63.2519 125.031C62.6069 125.031 62.084 124.506 62.084 123.859C62.084 123.211 62.6069 122.687 63.2519 122.687L64.4443 122.687C65.0894 122.687 65.6122 123.211 65.6122 123.859C65.6122 124.506 65.0894 125.031 64.4443 125.031Z" fill="#D9A4C8"/>
<path fillRule="evenodd" clipRule="evenodd" d="M64.2307 163.911L63.0383 163.911C62.3932 163.911 61.8704 163.386 61.8704 162.739C61.8704 162.091 62.3944 161.567 63.0383 161.567L64.2307 161.567C64.8758 161.567 65.3986 162.093 65.3986 162.739C65.3986 163.385 64.8746 163.911 64.2307 163.911ZM67.88 159.053L67.88 160.25C67.88 160.897 67.356 161.423 66.7121 161.423C66.0681 161.423 65.5441 160.897 65.5441 160.25L65.5441 159.053C65.5441 158.406 66.0681 157.881 66.7121 157.881C67.356 157.881 67.88 158.407 67.88 159.053ZM67.88 165.229L67.88 166.425C67.88 167.073 67.356 167.597 66.7121 167.597C66.0681 167.597 65.5441 167.073 65.5441 166.425L65.5441 165.229C65.5441 164.582 66.0681 164.057 66.7121 164.057C67.356 164.057 67.88 164.582 67.88 165.229ZM70.3847 163.912L69.1923 163.912C68.5472 163.912 68.0244 163.387 68.0244 162.74C68.0244 162.093 68.5472 161.568 69.1923 161.568L70.3847 161.568C71.0298 161.568 71.5526 162.094 71.5526 162.74C71.5526 163.386 71.0286 163.912 70.3847 163.912Z" fill="#D9A4C8"/>
<path d="M80.7126 126.823C81.5227 126.955 82.2855 126.402 82.4164 125.589C82.5473 124.776 81.9967 124.011 81.1867 123.879C80.3766 123.748 79.6138 124.301 79.4829 125.114C79.3519 125.926 79.9025 126.692 80.7126 126.823Z" fill="#D9A4C8"/>
<path d="M86.9933 156.388C86.9933 157.211 87.6585 157.879 88.4791 157.879C89.2997 157.879 89.9649 157.211 89.9649 156.388C89.9649 155.565 89.2997 154.897 88.4791 154.897C87.6585 154.897 86.9933 155.565 86.9933 156.388Z" fill="#D9A4C8"/>
<path d="M54.5643 148.326C54.8759 149.088 55.744 149.452 56.5031 149.14C57.2622 148.827 57.6249 147.956 57.3133 147.194C57.0016 146.432 56.1336 146.068 55.3745 146.381C54.6154 146.694 54.2527 147.565 54.5643 148.326Z" fill="#D9A4C8"/>
<path fillRule="evenodd" clipRule="evenodd" d="M195.591 97.2444L195.591 99.3091C195.591 100.384 194.721 101.256 193.65 101.256C192.579 101.256 191.71 100.383 191.71 99.3091L191.71 97.2444L189.652 97.2444C188.581 97.2444 187.711 96.3715 187.711 95.2977C187.711 94.2238 188.581 93.3498 189.652 93.3498L191.71 93.3498L191.71 91.285C191.71 90.21 192.58 89.3372 193.65 89.3372C194.72 89.3372 195.591 90.21 195.591 91.285L195.591 93.3498L197.648 93.3498C198.72 93.3498 199.59 94.2226 199.59 95.2977C199.59 96.3727 198.72 97.2444 197.648 97.2444L195.591 97.2444Z" fill="#D9A4C8"/>
<path fillRule="evenodd" clipRule="evenodd" d="M165.307 93.3074L165.307 94.6933C165.307 95.4149 164.721 96 164 96C163.278 96 162.693 95.4141 162.693 94.6933L162.693 93.3074L161.307 93.3074C160.586 93.3074 160 92.7216 160 92.0008C160 91.28 160.586 90.6933 161.307 90.6933L162.693 90.6933L162.693 89.3075C162.693 88.5859 163.279 88 164 88C164.72 88 165.307 88.5859 165.307 89.3075L165.307 90.6933L166.693 90.6933C167.414 90.6933 168 91.2792 168 92.0008C168 92.7224 167.414 93.3074 166.693 93.3074L165.307 93.3074Z" fill="#D9A4C8"/>
<path fillRule="evenodd" clipRule="evenodd" d="M179.29 80.0294L178.098 80.0294C177.453 80.0294 176.93 79.5048 176.93 78.8574C176.93 78.2101 177.453 77.6854 178.098 77.6854L179.29 77.6854C179.935 77.6854 180.458 78.2101 180.458 78.8574C180.458 79.5048 179.934 80.0294 179.29 80.0294ZM182.94 75.172L182.94 76.3685C182.94 77.0159 182.417 77.5405 181.772 77.5405C181.127 77.5405 180.604 77.0147 180.604 76.3685L180.604 75.172C180.604 74.5247 181.128 74 181.772 74C182.416 74 182.94 74.5247 182.94 75.172ZM182.94 81.3475L182.94 82.5441C182.94 83.1914 182.417 83.7161 181.772 83.7161C181.127 83.7161 180.604 83.1914 180.604 82.5441L180.604 81.3475C180.604 80.7002 181.128 80.1755 181.772 80.1755C182.416 80.1755 182.94 80.7013 182.94 81.3475ZM185.444 80.0306L184.252 80.0306C183.607 80.0306 183.084 79.506 183.084 78.8586C183.084 78.2113 183.607 77.6866 184.252 77.6866L185.444 77.6866C186.089 77.6866 186.612 78.2113 186.612 78.8586C186.612 79.506 186.089 80.0306 185.444 80.0306Z" fill="#D9A4C8"/>
<path fillRule="evenodd" clipRule="evenodd" d="M185.231 118.911L184.038 118.911C183.393 118.911 182.87 118.386 182.87 117.739C182.87 117.091 183.394 116.567 184.038 116.567L185.231 116.567C185.876 116.567 186.399 117.093 186.399 117.739C186.399 118.385 185.875 118.911 185.231 118.911ZM188.88 114.053L188.88 115.25C188.88 115.897 188.356 116.423 187.712 116.423C187.068 116.423 186.544 115.897 186.544 115.25L186.544 114.053C186.544 113.406 187.068 112.881 187.712 112.881C188.356 112.881 188.88 113.407 188.88 114.053ZM188.88 120.229L188.88 121.425C188.88 122.073 188.356 122.597 187.712 122.597C187.068 122.597 186.544 122.073 186.544 121.425L186.544 120.229C186.544 119.582 187.068 119.057 187.712 119.057C188.356 119.057 188.88 119.582 188.88 120.229ZM191.385 118.912L190.192 118.912C189.547 118.912 189.024 118.387 189.024 117.74C189.024 117.093 189.547 116.568 190.192 116.568L191.385 116.568C192.03 116.568 192.553 117.094 192.553 117.74C192.553 118.386 192.029 118.912 191.385 118.912Z" fill="#D9A4C8"/>
<path d="M201.713 81.8233C202.523 81.9547 203.285 81.4022 203.416 80.5892C203.547 79.7763 202.997 79.0108 202.187 78.8795C201.377 78.7481 200.614 79.3006 200.483 80.1135C200.352 80.9264 200.903 81.6919 201.713 81.8233Z" fill="#D9A4C8"/>
<path d="M207.993 111.388C207.993 112.211 208.659 112.879 209.479 112.879C210.3 112.879 210.965 112.211 210.965 111.388C210.965 110.565 210.3 109.897 209.479 109.897C208.659 109.897 207.993 110.565 207.993 111.388Z" fill="#D9A4C8"/>
<path d="M176.564 101.512C176.876 102.274 177.744 102.638 178.503 102.325C179.262 102.012 179.625 101.141 179.313 100.379C179.002 99.6175 178.134 99.2535 177.374 99.5663C176.615 99.879 176.253 100.75 176.564 101.512Z" fill="#D9A4C8"/>
<path fillRule="evenodd" clipRule="evenodd" d="M117.092 16.9712V17.9975C117.092 18.5527 117.538 19.0027 118.089 19.0027C118.639 19.0027 119.085 18.5527 119.085 17.9975V16.9712C119.085 16.417 118.638 15.966 118.089 15.966C117.539 15.966 117.092 16.417 117.092 16.9712ZM121.222 13.8302H120.205C119.654 13.8302 119.207 14.2812 119.207 14.8355C119.207 15.3897 119.654 15.8407 120.205 15.8407H121.222C121.773 15.8407 122.219 15.3907 122.219 14.8355C122.219 14.2802 121.773 13.8302 121.222 13.8302ZM115.972 13.8302H114.954C114.404 13.8302 113.958 14.2812 113.958 14.8355C113.958 15.3897 114.404 15.8407 114.954 15.8407H115.972C116.521 15.8407 116.968 15.3907 116.968 14.8355C116.968 14.2802 116.521 13.8302 115.972 13.8302ZM117.091 11.6744V12.7007C117.091 13.2559 117.537 13.7059 118.088 13.7059C118.638 13.7059 119.084 13.2549 119.084 12.7007V11.6744C119.084 11.1192 118.637 10.6692 118.088 10.6692C117.538 10.6692 117.091 11.1192 117.091 11.6744Z" fill="#D9A4C8"/>
<path fillRule="evenodd" clipRule="evenodd" d="M101.778 7.58111V8.60739C101.778 9.16262 102.225 9.61263 102.775 9.61263C103.324 9.61263 103.771 9.16262 103.771 8.60739V7.58111C103.771 7.02587 103.325 6.57587 102.775 6.57587C102.224 6.57587 101.778 7.02587 101.778 7.58111ZM105.909 4.44011H104.892C104.342 4.44011 103.895 4.89112 103.895 5.44636C103.895 6.00159 104.342 6.45159 104.892 6.45159H105.909C106.459 6.45159 106.906 6.00159 106.906 5.44636C106.906 4.89112 106.459 4.44011 105.909 4.44011ZM100.659 4.44011H99.6412C99.0908 4.44011 98.6448 4.89112 98.6448 5.44636C98.6448 6.00159 99.0908 6.45159 99.6412 6.45159H100.659C101.209 6.45159 101.655 6.00159 101.655 5.44636C101.655 4.89112 101.208 4.44011 100.659 4.44011ZM101.778 2.28432V3.3106C101.778 3.86584 102.225 4.31584 102.775 4.31584C103.324 4.31584 103.771 3.86484 103.771 3.3106V2.28432C103.771 1.72908 103.325 1.27808 102.775 1.27808C102.224 1.27808 101.778 1.72908 101.778 2.28432Z" fill="#D9A4C8"/>
<path d="M116.82 2.55769C117.52 2.55769 118.087 1.98513 118.087 1.27885C118.087 0.57256 117.52 0 116.82 0C116.12 0 115.552 0.57256 115.552 1.27885C115.552 1.98513 116.12 2.55769 116.82 2.55769Z" fill="#D9A4C8"/>
<path d="M108.179 25.6978C108.879 25.6978 109.447 25.1253 109.447 24.419C109.447 23.7127 108.879 23.1401 108.179 23.1401C107.479 23.1401 106.911 23.7127 106.911 24.419C106.911 25.1253 107.479 25.6978 108.179 25.6978Z" fill="#D9A4C8"/>
<path d="M90.2677 17.3936C90.9678 17.3936 91.5353 16.8211 91.5353 16.1148C91.5353 15.4085 90.9678 14.8359 90.2677 14.8359C89.5675 14.8359 89 15.4085 89 16.1148C89 16.8211 89.5675 17.3936 90.2677 17.3936Z" fill="#D9A4C8"/>
<defs>
<linearGradient id="paint0_linear_3877_170740" x1="147.116" y1="65.4879" x2="81.5885" y2="65.4879" gradientUnits="userSpaceOnUse">
<stop stop-color="#B44B92"/>
<stop offset="1" stop-color="#732280"/>
</linearGradient>
<linearGradient id="paint1_linear_3877_170740" x1="147.116" y1="65.4879" x2="81.5885" y2="65.4879" gradientUnits="userSpaceOnUse">
<stop stop-color="#B44B92"/>
<stop offset="1" stop-color="#732280"/>
</linearGradient>
</defs>
</svg>
