<svg width="231" height="209" viewBox="0 0 231 209" fill="none" xmlns="http://www.w3.org/2000/svg">
<path fillRule="evenodd" clipRule="evenodd" d="M112.092 16.9715V17.9977C112.092 18.553 112.538 19.003 113.089 19.003C113.639 19.003 114.085 18.553 114.085 17.9977V16.9715C114.085 16.4172 113.638 15.9662 113.089 15.9662C112.539 15.9662 112.092 16.4172 112.092 16.9715ZM116.222 13.8305H115.205C114.654 13.8305 114.207 14.2815 114.207 14.8357C114.207 15.3899 114.654 15.8409 115.205 15.8409H116.222C116.773 15.8409 117.219 15.3909 117.219 14.8357C117.219 14.2805 116.773 13.8305 116.222 13.8305ZM110.972 13.8305H109.954C109.404 13.8305 108.958 14.2815 108.958 14.8357C108.958 15.3899 109.404 15.8409 109.954 15.8409H110.972C111.521 15.8409 111.968 15.3909 111.968 14.8357C111.968 14.2805 111.521 13.8305 110.972 13.8305ZM112.091 11.6747V12.701C112.091 13.2562 112.537 13.7062 113.088 13.7062C113.638 13.7062 114.084 13.2552 114.084 12.701V11.6747C114.084 11.1194 113.637 10.6694 113.088 10.6694C112.538 10.6694 112.091 11.1194 112.091 11.6747Z" fill="#D9A4C8"/>
<path fillRule="evenodd" clipRule="evenodd" d="M96.7782 7.58086V8.60714C96.7782 9.16238 97.2252 9.61238 97.7746 9.61238C98.324 9.61238 98.7711 9.16238 98.7711 8.60714V7.58086C98.7711 7.02563 98.325 6.57562 97.7746 6.57562C97.2243 6.57562 96.7782 7.02563 96.7782 7.58086ZM100.909 4.43987H99.8917C99.3423 4.43987 98.8953 4.89088 98.8953 5.44611C98.8953 6.00135 99.3423 6.45135 99.8917 6.45135H100.909C101.459 6.45135 101.905 6.00135 101.905 5.44611C101.905 4.89088 101.459 4.43987 100.909 4.43987ZM95.6585 4.43987H94.6412C94.0908 4.43987 93.6448 4.89088 93.6448 5.44611C93.6448 6.00135 94.0908 6.45135 94.6412 6.45135H95.6585C96.2089 6.45135 96.655 6.00135 96.655 5.44611C96.655 4.89088 96.2079 4.43987 95.6585 4.43987ZM96.7782 2.28408V3.31036C96.7782 3.86559 97.2252 4.31559 97.7746 4.31559C98.324 4.31559 98.7711 3.86459 98.7711 3.31036V2.28408C98.7711 1.72884 98.325 1.27783 97.7746 1.27783C97.2243 1.27783 96.7782 1.72884 96.7782 2.28408Z" fill="#D9A4C8"/>
<path d="M111.82 2.55769C112.52 2.55769 113.087 1.98513 113.087 1.27885C113.087 0.57256 112.52 0 111.82 0C111.12 0 110.552 0.57256 110.552 1.27885C110.552 1.98513 111.12 2.55769 111.82 2.55769Z" fill="#D9A4C8"/>
<path d="M103.179 25.6978C103.879 25.6978 104.447 25.1253 104.447 24.419C104.447 23.7127 103.879 23.1401 103.179 23.1401C102.479 23.1401 101.911 23.7127 101.911 24.419C101.911 25.1253 102.479 25.6978 103.179 25.6978Z" fill="#D9A4C8"/>
<path d="M85.2676 17.3936C85.9678 17.3936 86.5353 16.8211 86.5353 16.1148C86.5353 15.4085 85.9678 14.8359 85.2676 14.8359C84.5675 14.8359 84 15.4085 84 16.1148C84 16.8211 84.5675 17.3936 85.2676 17.3936Z" fill="#D9A4C8"/>
<path fillRule="evenodd" clipRule="evenodd" d="M216.916 33.1683C213.358 25.3903 205.658 20 196.74 20C186.813 20 178.392 26.6796 175.517 35.8988C169.095 36.3015 163.937 41.5898 164.001 48.4813C164.006 49.1299 230.045 48.9259 230.045 48.4813C230.083 38.0564 226.596 33.0742 218.564 33.0742C218.009 33.0742 217.459 33.1056 216.916 33.1683Z" fill="#DCF5F6"/>
<path fillRule="evenodd" clipRule="evenodd" d="M62.3019 81.6601C59.1882 75.3635 52.4505 71 44.6474 71C35.9617 71 28.5933 76.4073 26.077 83.8704C20.4581 84.1965 15.9448 88.4775 16.0005 94.0563C16.0049 94.5813 73.7892 94.4162 73.7892 94.0563C73.8226 85.6171 70.7714 81.5839 63.7439 81.5839C63.258 81.5839 62.7766 81.6093 62.3019 81.6601Z" fill="#DCF5F6"/>
<path d="M82.2513 12.6567C120.838 12.6567 116.622 56.8248 167.664 62.0324C229.644 68.356 216.283 140.954 189.881 174.084C140.774 235.704 42.1298 197.899 25.2746 153.238C9.79745 112.228 78.4033 111.814 77.3191 82.2117C76.7903 67.7745 58.3942 59.7354 57.2499 42.5329C56.527 31.6702 61.4588 12.6567 82.2513 12.6567Z" fill="#F8EDF5"/>
<path d="M161.997 183.138H73.0032C70.9139 183.138 69.2202 181.444 69.2202 179.355V32.6882C69.2202 30.5989 70.9139 28.9053 73.0032 28.9053H161.997C164.086 28.9053 165.78 30.5989 165.78 32.6882V179.355C165.78 181.444 164.086 183.138 161.997 183.138Z" fill="#D9A4C8"/>
<path d="M78.2993 170.276V41.7673C78.2993 39.678 79.9929 37.9844 82.0822 37.9844H152.918C155.007 37.9844 156.701 39.678 156.701 41.7673V170.276C156.701 172.365 155.007 174.059 152.918 174.059H82.0822C79.9929 174.059 78.2993 172.365 78.2993 170.276Z" fill="white"/>
<path d="M116.081 187.825H83.1955C82.1662 187.825 81.3317 186.99 81.3317 185.961V151.212H116.08C117.11 151.212 117.944 152.047 117.944 153.076V185.961C117.944 186.99 117.11 187.825 116.081 187.825Z" fill="url(#paint0_linear_3867_149034)"/>
<path d="M104.821 164.726V151.212H94.4558V164.726C94.4558 165.314 94.9325 165.791 95.5207 165.791H103.755C104.344 165.791 104.821 165.314 104.821 164.726Z" fill="#E1B7D3"/>
<path d="M85.6628 151.229H52.7777C51.7484 151.229 50.9138 150.394 50.9138 149.365V116.48C50.9138 115.45 51.7484 114.616 52.7777 114.616H85.6628C86.6921 114.616 87.5266 115.45 87.5266 116.48V149.365C87.5263 150.394 86.6921 151.229 85.6628 151.229Z" fill="#F0DBE9"/>
<path d="M74.4025 128.13V114.616H64.0376V128.13C64.0376 128.718 64.5143 129.195 65.1025 129.195H73.3372C73.9258 129.195 74.4025 128.718 74.4025 128.13Z" fill="url(#paint1_linear_3867_149034)"/>
<path d="M188.417 187.825H155.532C154.502 187.825 153.668 186.99 153.668 185.961V153.076C153.668 152.046 154.502 151.212 155.532 151.212H188.417C189.446 151.212 190.281 152.046 190.281 153.076V185.961C190.28 186.99 189.446 187.825 188.417 187.825Z" fill="#F0DBE9"/>
<path d="M177.157 164.726V151.212H166.792V164.726C166.792 165.314 167.268 165.791 167.857 165.791H176.091C176.68 165.791 177.157 165.314 177.157 164.726Z" fill="url(#paint2_linear_3867_149034)"/>
<path d="M79.4682 187.841H46.5831C45.5538 187.841 44.7193 187.006 44.7193 185.977V153.092C44.7193 152.063 45.5538 151.228 46.5831 151.228H81.3317V185.977C81.3321 187.006 80.4976 187.841 79.4682 187.841Z" fill="url(#paint3_linear_3867_149034)"/>
<path d="M68.2083 164.742V151.229H57.8434V164.742C57.8434 165.33 58.3201 165.807 58.9083 165.807H67.143C67.7313 165.807 68.2083 165.33 68.2083 164.742Z" fill="#E1B7D3"/>
<path d="M188.416 149.321H155.532C153.461 149.321 151.776 151.006 151.776 153.076V181.246H119.836V153.076C119.836 151.006 118.151 149.321 116.08 149.321H89.4177V116.48C89.4177 114.409 87.7332 112.724 85.6624 112.724H71.1113V32.6881C71.1113 31.6451 71.9598 30.7966 73.0028 30.7966H161.996C163.039 30.7966 163.888 31.6451 163.888 32.6881V148.582C163.888 149.626 164.735 150.473 165.779 150.473C166.824 150.473 167.671 149.626 167.671 148.582V32.6881C167.671 29.5592 165.125 27.0137 161.996 27.0137H73.0028C69.8739 27.0137 67.3284 29.5592 67.3284 32.6881V112.724H52.7777C50.7069 112.724 49.0224 114.409 49.0224 116.48V149.337H46.5831C44.5123 149.337 42.8278 151.021 42.8278 153.092V185.977C42.8278 188.048 44.5123 189.732 46.5831 189.732H73.6311C74.6756 189.732 75.5226 188.885 75.5226 187.841C75.5226 186.796 74.6756 185.949 73.6311 185.949H46.6111V153.12H79.4406V185.949H73.0959C72.0514 185.949 71.2044 186.796 71.2044 187.841C71.2044 188.885 72.0514 189.732 73.0959 189.732H79.4682C80.1522 189.732 80.7919 189.545 81.3449 189.225C81.8919 189.536 82.5226 189.716 83.1959 189.716H116.081C118.152 189.716 119.836 188.032 119.836 185.961V185.029H151.777V185.961C151.777 188.032 153.462 189.716 155.533 189.716H188.417C190.488 189.716 192.173 188.032 192.173 185.961V153.076C192.172 151.006 190.487 149.321 188.416 149.321ZM52.8053 149.337V116.507H85.6348V149.321L52.8053 149.337ZM116.053 185.933H83.2235V153.12L116.053 153.104V185.933ZM188.389 185.933H155.559V153.104H188.389V185.933Z" fill="#363636"/>
<path d="M135 52.3843V59.6157C135 60.3798 134.085 61 132.958 61H128.414L117.5 58.01L106.586 61H102.042C100.915 61 100 60.3798 100 59.6157V52.3843C100 51.6174 100.915 51 102.042 51H132.958C134.085 51 135 51.6174 135 52.3843Z" fill="#F0DBE9"/>
<path d="M129 61H106V57.1575C106 56.5183 106.963 56 108.151 56H126.849C128.037 56 129 56.5183 129 57.1575V61Z" fill="url(#paint4_linear_3867_149034)"/>
<path fillRule="evenodd" clipRule="evenodd" d="M20.591 138.244L20.591 140.309C20.591 141.384 19.7211 142.256 18.6499 142.256C17.5786 142.256 16.7099 141.383 16.7099 140.309L16.7099 138.244L14.6524 138.244C13.5811 138.244 12.7113 137.371 12.7113 136.297C12.7113 135.224 13.5811 134.35 14.6524 134.35L16.7099 134.35L16.7099 132.285C16.7099 131.21 17.5797 130.337 18.6499 130.337C19.72 130.337 20.591 131.21 20.591 132.285L20.591 134.35L22.6485 134.35C23.7198 134.35 24.5896 135.222 24.5896 136.297C24.5896 137.372 23.7198 138.244 22.6485 138.244L20.591 138.244Z" fill="#D9A4C8"/>
<path fillRule="evenodd" clipRule="evenodd" d="M4.29031 121.029L3.09793 121.029C2.45284 121.029 1.93002 120.505 1.93002 119.857C1.93002 119.21 2.45284 118.685 3.09793 118.685L4.29031 118.685C4.93541 118.685 5.45822 119.21 5.45822 119.857C5.45822 120.505 4.93424 121.029 4.29031 121.029ZM7.93962 116.172L7.93962 117.369C7.93962 118.016 7.41679 118.541 6.77169 118.541C6.1266 118.541 5.60377 118.015 5.60377 117.369L5.60377 116.172C5.60377 115.525 6.12777 115 6.77169 115C7.41562 115 7.93962 115.525 7.93962 116.172ZM7.93961 122.348L7.93961 123.544C7.93961 124.191 7.41678 124.716 6.77169 124.716C6.1266 124.716 5.60377 124.191 5.60377 123.544L5.60377 122.348C5.60377 121.7 6.12777 121.176 6.77169 121.176C7.41562 121.176 7.93961 121.701 7.93961 122.348ZM10.4443 121.031L9.25192 121.031C8.60683 121.031 8.084 120.506 8.084 119.859C8.084 119.211 8.60683 118.687 9.25192 118.687L10.4443 118.687C11.0894 118.687 11.6122 119.211 11.6122 119.859C11.6122 120.506 11.0894 121.031 10.4443 121.031Z" fill="#D9A4C8"/>
<path fillRule="evenodd" clipRule="evenodd" d="M10.2307 159.911L9.03828 159.911C8.39319 159.911 7.87038 159.386 7.87038 158.739C7.87038 158.091 8.39436 157.567 9.03828 157.567L10.2307 157.567C10.8757 157.567 11.3986 158.093 11.3986 158.739C11.3986 159.385 10.8746 159.911 10.2307 159.911ZM13.88 155.053L13.88 156.25C13.88 156.897 13.356 157.423 12.712 157.423C12.0681 157.423 11.5441 156.897 11.5441 156.25L11.5441 155.053C11.5441 154.406 12.0681 153.881 12.712 153.881C13.356 153.881 13.88 154.407 13.88 155.053ZM13.88 161.229L13.88 162.425C13.88 163.073 13.356 163.597 12.712 163.597C12.0681 163.597 11.5441 163.073 11.5441 162.425L11.5441 161.229C11.5441 160.582 12.0681 160.057 12.712 160.057C13.356 160.057 13.88 160.582 13.88 161.229ZM16.3846 159.912L15.1923 159.912C14.5472 159.912 14.0244 159.387 14.0244 158.74C14.0244 158.093 14.5472 157.568 15.1923 157.568L16.3846 157.568C17.0297 157.568 17.5526 158.094 17.5526 158.74C17.5526 159.386 17.0286 159.912 16.3846 159.912Z" fill="#D9A4C8"/>
<path d="M26.7126 122.823C27.5226 122.955 28.2855 122.402 28.4164 121.589C28.5473 120.776 27.9967 120.011 27.1866 119.879C26.3766 119.748 25.6137 120.301 25.4828 121.114C25.3519 121.926 25.9025 122.692 26.7126 122.823Z" fill="#D9A4C8"/>
<path d="M32.9933 152.388C32.9933 153.211 33.6585 153.879 34.4791 153.879C35.2997 153.879 35.9649 153.211 35.9649 152.388C35.9649 151.565 35.2997 150.897 34.4791 150.897C33.6585 150.897 32.9933 151.565 32.9933 152.388Z" fill="#D9A4C8"/>
<path d="M0.564277 144.326C0.875919 145.088 1.74393 145.452 2.50304 145.139C3.26215 144.827 3.62489 143.956 3.31325 143.194C3.00161 142.432 2.13359 142.068 1.37448 142.381C0.615378 142.693 0.252635 143.564 0.564277 144.326Z" fill="#D9A4C8"/>
<path fillRule="evenodd" clipRule="evenodd" d="M199.591 99.2441L199.591 101.309C199.591 102.384 198.721 103.256 197.65 103.256C196.579 103.256 195.71 102.383 195.71 101.309L195.71 99.2441L193.652 99.2441C192.581 99.2441 191.711 98.3713 191.711 97.2974C191.711 96.2236 192.581 95.3495 193.652 95.3495L195.71 95.3495L195.71 93.2848C195.71 92.2098 196.58 91.3369 197.65 91.3369C198.72 91.3369 199.591 92.2098 199.591 93.2848L199.591 95.3495L201.648 95.3495C202.72 95.3495 203.59 96.2224 203.59 97.2974C203.59 98.3724 202.72 99.2441 201.648 99.2441L199.591 99.2441Z" fill="#D9A4C8"/>
<path fillRule="evenodd" clipRule="evenodd" d="M183.29 82.0294L182.098 82.0294C181.453 82.0294 180.93 81.5048 180.93 80.8574C180.93 80.2101 181.453 79.6854 182.098 79.6854L183.29 79.6854C183.935 79.6854 184.458 80.2101 184.458 80.8574C184.458 81.5048 183.934 82.0294 183.29 82.0294ZM186.94 77.172L186.94 78.3685C186.94 79.0159 186.417 79.5405 185.772 79.5405C185.127 79.5405 184.604 79.0147 184.604 78.3685L184.604 77.172C184.604 76.5247 185.128 76 185.772 76C186.416 76 186.94 76.5247 186.94 77.172ZM186.94 83.3475L186.94 84.5441C186.94 85.1914 186.417 85.7161 185.772 85.7161C185.127 85.7161 184.604 85.1914 184.604 84.5441L184.604 83.3475C184.604 82.7002 185.128 82.1755 185.772 82.1755C186.416 82.1755 186.94 82.7013 186.94 83.3475ZM189.444 82.0306L188.252 82.0306C187.607 82.0306 187.084 81.506 187.084 80.8586C187.084 80.2113 187.607 79.6866 188.252 79.6866L189.444 79.6866C190.089 79.6866 190.612 80.2113 190.612 80.8586C190.612 81.506 190.089 82.0306 189.444 82.0306Z" fill="#D9A4C8"/>
<path fillRule="evenodd" clipRule="evenodd" d="M189.231 120.911L188.038 120.911C187.393 120.911 186.87 120.386 186.87 119.739C186.87 119.091 187.394 118.567 188.038 118.567L189.231 118.567C189.876 118.567 190.399 119.093 190.399 119.739C190.399 120.385 189.875 120.911 189.231 120.911ZM192.88 116.053L192.88 117.25C192.88 117.897 192.356 118.423 191.712 118.423C191.068 118.423 190.544 117.897 190.544 117.25L190.544 116.053C190.544 115.406 191.068 114.881 191.712 114.881C192.356 114.881 192.88 115.407 192.88 116.053ZM192.88 122.229L192.88 123.425C192.88 124.073 192.356 124.597 191.712 124.597C191.068 124.597 190.544 124.073 190.544 123.425L190.544 122.229C190.544 121.582 191.068 121.057 191.712 121.057C192.356 121.057 192.88 121.582 192.88 122.229ZM195.385 120.912L194.192 120.912C193.547 120.912 193.024 120.387 193.024 119.74C193.024 119.093 193.547 118.568 194.192 118.568L195.385 118.568C196.03 118.568 196.553 119.094 196.553 119.74C196.553 120.386 196.029 120.912 195.385 120.912Z" fill="#D9A4C8"/>
<path d="M205.713 83.8233C206.523 83.9547 207.285 83.4022 207.416 82.5892C207.547 81.7763 206.997 81.0108 206.187 80.8795C205.377 80.7481 204.614 81.3006 204.483 82.1135C204.352 82.9264 204.902 83.6919 205.713 83.8233Z" fill="#D9A4C8"/>
<path d="M211.993 113.388C211.993 114.211 212.658 114.879 213.479 114.879C214.3 114.879 214.965 114.211 214.965 113.388C214.965 112.565 214.3 111.897 213.479 111.897C212.658 111.897 211.993 112.565 211.993 113.388Z" fill="#D9A4C8"/>
<path d="M179.564 105.326C179.876 106.088 180.744 106.452 181.503 106.139C182.262 105.827 182.625 104.956 182.313 104.194C182.002 103.432 181.134 103.068 180.374 103.381C179.615 103.693 179.253 104.564 179.564 105.326Z" fill="#D9A4C8"/>
<defs>
<linearGradient id="paint0_linear_3867_149034" x1="119.653" y1="166.157" x2="62.7326" y2="166.157" gradientUnits="userSpaceOnUse">
<stop stop-color="#B44B92"/>
<stop offset="1" stop-color="#732280"/>
</linearGradient>
<linearGradient id="paint1_linear_3867_149034" x1="74.8862" y1="120.567" x2="58.7723" y2="120.567" gradientUnits="userSpaceOnUse">
<stop stop-color="#B44B92"/>
<stop offset="1" stop-color="#732280"/>
</linearGradient>
<linearGradient id="paint2_linear_3867_149034" x1="177.64" y1="157.163" x2="161.526" y2="157.163" gradientUnits="userSpaceOnUse">
<stop stop-color="#B44B92"/>
<stop offset="1" stop-color="#732280"/>
</linearGradient>
<linearGradient id="paint3_linear_3867_149034" x1="83.0403" y1="166.173" x2="26.1202" y2="166.173" gradientUnits="userSpaceOnUse">
<stop stop-color="#B44B92"/>
<stop offset="1" stop-color="#732280"/>
</linearGradient>
<linearGradient id="paint4_linear_3867_149034" x1="130.073" y1="58.041" x2="94.316" y2="58.041" gradientUnits="userSpaceOnUse">
<stop stop-color="#B44B92"/>
<stop offset="1" stop-color="#732280"/>
</linearGradient>
</defs>
</svg>
