<svg width="286" height="211" viewBox="0 0 286 211" fill="none" xmlns="http://www.w3.org/2000/svg">
  <path fill-rule="evenodd" clip-rule="evenodd" d="M60.8925 115.584C56.7976 106.97 47.9368 101 37.6748 101C26.2521 101 16.5617 108.397 13.2524 118.607C5.86298 119.053 -0.0726076 124.91 0.000671269 132.542C0.00653358 133.26 75.9996 133.034 75.9996 132.542C76.0436 120.997 72.0309 115.479 62.7889 115.479C62.1499 115.479 61.5168 115.514 60.8925 115.584Z" fill="#DCF5F6"/>
  <path fill-rule="evenodd" clip-rule="evenodd" d="M270.694 77.5835C266.545 68.9695 257.568 63 247.171 63C235.598 63 225.78 70.3975 222.427 80.6074C214.94 81.0534 208.926 86.91 209.001 94.5421C209.007 95.2604 286 95.0345 286 94.5421C286.044 82.9969 281.979 77.4792 272.615 77.4792C271.968 77.4792 271.326 77.514 270.694 77.5835Z" fill="#DCF5F6"/>
  <path fill-rule="evenodd" clip-rule="evenodd" d="M183.682 12.7606C180.072 5.22335 172.26 0 163.213 0C153.143 0 144.6 6.47279 141.683 15.4065C135.169 15.7968 129.936 20.9213 130.001 27.5993C130.006 28.2279 197 28.0302 197 27.5993C197.038 17.4973 193.501 12.6693 185.353 12.6693C184.79 12.6693 184.232 12.6997 183.682 12.7606Z" fill="#DCF5F6"/>
  <path fill-rule="evenodd" clip-rule="evenodd" d="M50.7648 191.534H52.6694C53.661 191.534 54.4651 192.342 54.4651 193.336C54.4651 194.33 53.6599 195.136 52.6694 195.136H50.7648V197.046C50.7648 198.04 49.9596 198.848 48.9691 198.848C47.9785 198.848 47.1723 198.04 47.1723 197.046V195.136H45.2677C44.2761 195.136 43.4709 194.329 43.4709 193.336C43.4709 192.343 44.2761 191.534 45.2677 191.534H47.1723V189.625C47.1723 188.631 47.9775 187.823 48.9691 187.823C49.9607 187.823 50.7648 188.631 50.7648 189.625V191.534Z" fill="#D9A4C8"/>
  <path fill-rule="evenodd" clip-rule="evenodd" d="M34.884 206.664V207.771C34.884 208.369 34.4 208.855 33.8029 208.855C33.2058 208.855 32.7218 208.369 32.7218 207.771V206.664C32.7218 206.065 33.2058 205.58 33.8029 205.58C34.4 205.58 34.884 206.066 34.884 206.664ZM30.4034 203.277H31.5071C32.1042 203.277 32.5882 203.762 32.5882 204.361C32.5882 204.96 32.1031 205.445 31.5071 205.445H30.4034C29.8062 205.445 29.3223 204.959 29.3223 204.361C29.3223 203.764 29.8062 203.277 30.4034 203.277ZM36.0998 203.277H37.2035C37.8007 203.277 38.2846 203.762 38.2846 204.361C38.2846 204.96 37.8007 205.445 37.2035 205.445H36.0998C35.5027 205.445 35.0187 204.959 35.0187 204.361C35.0187 203.764 35.5038 203.277 36.0998 203.277ZM34.8851 200.953V202.059C34.8851 202.658 34.4011 203.143 33.804 203.143C33.2069 203.143 32.7229 202.658 32.7229 202.059V200.953C32.7229 200.354 33.2069 199.869 33.804 199.869C34.4011 199.869 34.8851 200.354 34.8851 200.953Z" fill="#D9A4C8"/>
  <path fill-rule="evenodd" clip-rule="evenodd" d="M70.7534 201.151V202.258C70.7534 202.856 70.2694 203.342 69.6723 203.342C69.0752 203.342 68.5912 202.855 68.5912 202.258V201.151C68.5912 200.552 69.0762 200.067 69.6723 200.067C70.2683 200.067 70.7534 200.553 70.7534 201.151ZM66.2727 197.764H67.3765C67.9736 197.764 68.4586 198.25 68.4586 198.848C68.4586 199.446 67.9736 199.932 67.3765 199.932H66.2727C65.6756 199.932 65.1917 199.446 65.1917 198.848C65.1917 198.25 65.6767 197.764 66.2727 197.764ZM71.9692 197.764H73.0729C73.6701 197.764 74.154 198.25 74.154 198.848C74.154 199.446 73.6701 199.932 73.0729 199.932H71.9692C71.3721 199.932 70.8881 199.446 70.8881 198.848C70.8881 198.25 71.3721 197.764 71.9692 197.764ZM70.7545 195.439V196.546C70.7545 197.145 70.2705 197.63 69.6734 197.63C69.0762 197.63 68.5923 197.145 68.5923 196.546V195.439C68.5923 194.841 69.0773 194.355 69.6734 194.355C70.2694 194.355 70.7545 194.842 70.7545 195.439Z" fill="#D9A4C8"/>
  <path d="M36.5377 185.854C36.6588 185.102 36.1492 184.394 35.3993 184.273C34.6495 184.151 33.9434 184.662 33.8222 185.414C33.701 186.166 34.2107 186.874 34.9605 186.995C35.7104 187.117 36.4165 186.606 36.5377 185.854Z" fill="#D9A4C8"/>
  <path d="M63.8106 180.026C64.5702 180.026 65.186 179.409 65.186 178.647C65.186 177.885 64.5702 177.268 63.8106 177.268C63.0511 177.268 62.4353 177.885 62.4353 178.647C62.4353 179.409 63.0511 180.026 63.8106 180.026Z" fill="#D9A4C8"/>
  <path d="M56.3755 210.123C57.0782 209.834 57.414 209.028 57.1255 208.323C56.837 207.619 56.0336 207.282 55.3309 207.572C54.6282 207.861 54.2924 208.666 54.5809 209.371C54.8694 210.075 55.6729 210.412 56.3755 210.123Z" fill="#D9A4C8"/>
  <path fill-rule="evenodd" clip-rule="evenodd" d="M269.893 187.334V189.108C269.893 190.068 270.669 190.845 271.626 190.845C272.583 190.845 273.359 190.068 273.359 189.108V187.334C273.359 186.376 272.581 185.597 271.626 185.597C270.67 185.597 269.893 186.376 269.893 187.334ZM277.075 181.905H275.306C274.349 181.905 273.571 182.685 273.571 183.643C273.571 184.6 274.349 185.38 275.306 185.38H277.075C278.032 185.38 278.808 184.602 278.808 183.643C278.808 182.683 278.032 181.905 277.075 181.905ZM267.944 181.905H266.175C265.218 181.905 264.442 182.685 264.442 183.643C264.442 184.6 265.218 185.38 266.175 185.38H267.944C268.899 185.38 269.677 184.602 269.677 183.643C269.677 182.683 268.899 181.905 267.944 181.905ZM269.891 178.179V179.953C269.891 180.912 270.667 181.69 271.624 181.69C272.581 181.69 273.357 180.911 273.357 179.953V178.179C273.357 177.219 272.579 176.441 271.624 176.441C270.669 176.441 269.891 177.219 269.891 178.179Z" fill="#D9A4C8"/>
  <path fill-rule="evenodd" clip-rule="evenodd" d="M243.271 171.104V172.878C243.271 173.838 244.048 174.616 245.003 174.616C245.959 174.616 246.736 173.838 246.736 172.878V171.104C246.736 170.145 245.961 169.367 245.003 169.367C244.046 169.367 243.271 170.145 243.271 171.104ZM250.454 165.675H248.685C247.73 165.675 246.952 166.455 246.952 167.415C246.952 168.374 247.73 169.152 248.685 169.152H250.454C251.412 169.152 252.187 168.374 252.187 167.415C252.187 166.455 251.412 165.675 250.454 165.675ZM241.323 165.675H239.554C238.597 165.675 237.821 166.455 237.821 167.415C237.821 168.374 238.597 169.152 239.554 169.152H241.323C242.281 169.152 243.056 168.374 243.056 167.415C243.056 166.455 242.279 165.675 241.323 165.675ZM243.271 161.949V163.723C243.271 164.683 244.048 165.461 245.003 165.461C245.959 165.461 246.736 164.681 246.736 163.723V161.949C246.736 160.989 245.961 160.21 245.003 160.21C244.046 160.21 243.271 160.989 243.271 161.949Z" fill="#D9A4C8"/>
  <path d="M269.427 162.421C270.644 162.421 271.631 161.431 271.631 160.21C271.631 158.99 270.644 158 269.427 158C268.209 158 267.222 158.99 267.222 160.21C267.222 161.431 268.209 162.421 269.427 162.421Z" fill="#D9A4C8"/>
  <path d="M254.391 202.413C255.609 202.413 256.596 201.424 256.596 200.203C256.596 198.982 255.609 197.993 254.391 197.993C253.174 197.993 252.187 198.982 252.187 200.203C252.187 201.424 253.174 202.413 254.391 202.413Z" fill="#D9A4C8"/>
  <path d="M223.246 188.063C224.463 188.063 225.45 187.074 225.45 185.853C225.45 184.632 224.463 183.643 223.246 183.643C222.028 183.643 221.041 184.632 221.041 185.853C221.041 187.074 222.028 188.063 223.246 188.063Z" fill="#D9A4C8"/>
  <path fill-rule="evenodd" clip-rule="evenodd" d="M49.7983 15.0815L49.7983 13.3076C49.7983 12.3479 49.0225 11.5701 48.0654 11.5701C47.1082 11.5701 46.3325 12.3479 46.3325 13.3076L46.3325 15.0815C46.3325 16.0394 47.11 16.819 48.0654 16.819C49.0208 16.819 49.7983 16.0394 49.7983 15.0815ZM42.6161 20.5105L44.3853 20.5105C45.3425 20.5105 46.12 19.7309 46.12 18.773C46.12 17.815 45.3425 17.0355 44.3853 17.0355L42.6161 17.0355C41.659 17.0355 40.8832 17.8133 40.8832 18.773C40.8832 19.7327 41.659 20.5105 42.6161 20.5105ZM51.7472 20.5105L53.5164 20.5105C54.4735 20.5105 55.2493 19.7309 55.2493 18.773C55.2493 17.815 54.4735 17.0355 53.5164 17.0355L51.7472 17.0355C50.7917 17.0355 50.0143 17.8133 50.0143 18.773C50.0143 19.7327 50.7917 20.5105 51.7472 20.5105ZM49.8 24.2366L49.8 22.4628C49.8 21.5031 49.0243 20.7253 48.0671 20.7253C47.11 20.7253 46.3342 21.5048 46.3342 22.4628L46.3342 24.2366C46.3342 25.1963 47.1117 25.9741 48.0671 25.9741C49.0225 25.9741 49.8 25.1963 49.8 24.2366Z" fill="#D9A4C8"/>
  <path fill-rule="evenodd" clip-rule="evenodd" d="M76.4206 31.3112L76.4206 29.5373C76.4206 28.5776 75.6431 27.7998 74.6877 27.7998C73.7323 27.7998 72.9549 28.5776 72.9549 29.5373L72.9549 31.3112C72.9549 32.2709 73.7306 33.0487 74.6877 33.0487C75.6449 33.0487 76.4206 32.2709 76.4206 31.3112ZM69.2368 36.7402L71.006 36.7402C71.9614 36.7402 72.7389 35.9607 72.7389 35.001C72.7389 34.0413 71.9614 33.2635 71.006 33.2635L69.2368 33.2635C68.2796 33.2635 67.5039 34.0413 67.5039 35.001C67.5039 35.9607 68.2796 36.7402 69.2368 36.7402ZM78.3678 36.7402L80.137 36.7402C81.0941 36.7402 81.8699 35.9607 81.8699 35.001C81.8699 34.0413 81.0941 33.2635 80.137 33.2635L78.3678 33.2635C77.4106 33.2635 76.6349 34.0413 76.6349 35.001C76.6349 35.9607 77.4123 36.7402 78.3678 36.7402ZM76.4206 40.4663L76.4206 38.6925C76.4206 37.7328 75.6431 36.955 74.6877 36.955C73.7323 36.955 72.9548 37.7345 72.9548 38.6925L72.9548 40.4663C72.9548 41.426 73.7306 42.2056 74.6877 42.2056C75.6449 42.2056 76.4206 41.426 76.4206 40.4663Z" fill="#D9A4C8"/>
  <path d="M50.2644 39.9947C49.0469 39.9947 48.0598 40.9843 48.0598 42.2051C48.0598 43.4259 49.0469 44.4155 50.2644 44.4155C51.482 44.4155 52.469 43.4259 52.469 42.2051C52.469 40.9843 51.482 39.9947 50.2644 39.9947Z" fill="#D9A4C8"/>
  <path d="M65.2998 8.65916e-05C64.0823 8.64852e-05 63.0952 0.98972 63.0952 2.21049C63.0952 3.43126 64.0823 4.4209 65.2998 4.4209C66.5174 4.4209 67.5044 3.43127 67.5044 2.21049C67.5044 0.98972 66.5174 8.66981e-05 65.2998 8.65916e-05Z" fill="#D9A4C8"/>
  <path d="M96.4456 14.3521C95.228 14.3521 94.241 15.3418 94.241 16.5625C94.241 17.7833 95.228 18.7729 96.4456 18.7729C97.6631 18.7729 98.6501 17.7833 98.6501 16.5625C98.6501 15.3418 97.6631 14.3521 96.4456 14.3521Z" fill="#D9A4C8"/>
  <g clip-path="url(#clip0_8216_57149)">
  <path d="M70.1714 91.2388V177.019C70.1714 183.305 75.2961 188.402 81.6175 188.402H217.88C224.202 188.402 229.327 183.305 229.327 177.019V91.2388H70.1714Z" fill="white"/>
  <path d="M128.86 188.402H217.881C224.202 188.402 229.327 183.305 229.327 177.019V127.818C212.032 146.65 176.487 178.89 128.85 188.412L128.86 188.402Z" fill="#F8EDF5"/>
  <path d="M224.443 60.6011H79.1275L71.7542 65.3138V90.97H229.336V65.0547L224.443 60.6011Z" fill="url(#paint0_linear_8216_57149)"/>
  <path d="M229.327 90.97V65.0547L224.434 60.6011H201.329C194.805 71.5911 180.473 86.3532 149.657 90.97H229.327Z" fill="#B44B92"/>
  <path d="M220.795 58H79.2048C73.0282 58 68 63.0007 68 69.1436V179.025C68 185.167 73.0282 190.168 79.2048 190.168H139.997C141.184 190.168 142.149 189.208 142.149 188.037C142.149 186.866 141.184 185.897 139.997 185.897H79.2048C75.3927 185.897 72.2947 182.816 72.2947 179.025V94.3103C72.2947 93.7824 72.729 93.3504 73.2598 93.3504H226.74C227.271 93.3504 227.705 93.7824 227.705 94.3103V179.015C227.705 182.806 224.607 185.887 220.795 185.887C219.608 185.887 218.643 186.847 218.643 188.028C218.643 189.208 219.608 190.159 220.795 190.159C226.972 190.159 232 185.158 232 179.015V69.1436C232 63.0007 226.972 58 220.795 58ZM227.705 88.1194C227.705 88.6473 227.271 89.0792 226.74 89.0792H73.2598C72.729 89.0792 72.2947 88.6473 72.2947 88.1194V69.1436C72.2947 65.3523 75.3927 62.2712 79.2048 62.2712H220.805C224.617 62.2712 227.715 65.3523 227.715 69.1436V88.1194H227.705Z" fill="#363636"/>
  <path d="M91.6837 74.1155C91.6065 73.9331 91.51 73.7507 91.3942 73.578C91.2783 73.4052 91.1529 73.2516 91.0081 73.1076C90.8634 72.9637 90.7089 72.8389 90.5352 72.7237C90.3712 72.6085 90.1878 72.5125 90.0044 72.4358C89.821 72.359 89.6184 72.3014 89.4253 72.2534C89.02 72.1766 88.605 72.1766 88.2093 72.2534C88.0163 72.2918 87.8136 72.3494 87.6303 72.4358C87.4469 72.5125 87.2635 72.6085 87.0995 72.7237C86.9257 72.8389 86.7713 72.9637 86.6265 73.1076C86.4818 73.2516 86.3563 73.4052 86.2405 73.578C86.1247 73.7507 86.0282 73.9331 85.9606 74.1155C85.8834 74.2978 85.8159 74.4994 85.7869 74.6914C85.7483 74.8929 85.729 75.0945 85.729 75.296C85.729 75.4976 85.7483 75.6992 85.7869 75.9007C85.8255 76.1023 85.8834 76.2943 85.9606 76.4862C86.0378 76.6686 86.1343 76.851 86.2405 77.0141C86.3563 77.1869 86.4818 77.3405 86.6265 77.4844C86.7713 77.6284 86.9257 77.7532 87.0995 77.8684C87.2635 77.9836 87.4469 78.0795 87.6303 78.1563C87.8136 78.2331 88.0163 78.2907 88.2093 78.3291C88.412 78.3675 88.6147 78.3867 88.8173 78.3867C89.6377 78.3867 90.4387 78.0603 91.0178 77.4749C91.1625 77.3309 91.288 77.1773 91.4038 77.0045C91.5196 76.8318 91.6161 76.659 91.6933 76.4766C91.7705 76.2847 91.8285 76.0927 91.8671 75.8911C91.9057 75.6896 91.925 75.488 91.925 75.2864C91.925 75.0849 91.9057 74.8833 91.8671 74.6818C91.8285 74.4802 91.7705 74.2882 91.6933 74.1059L91.6837 74.1155Z" fill="#363636"/>
  <path d="M104.848 74.1155C104.77 73.9331 104.674 73.7507 104.558 73.578C104.442 73.4052 104.317 73.2516 104.172 73.1076C104.027 72.9637 103.873 72.8389 103.699 72.7237C103.535 72.6085 103.352 72.5125 103.168 72.4358C102.975 72.359 102.782 72.3014 102.58 72.2534C102.184 72.1766 101.769 72.1766 101.364 72.2534C101.17 72.2918 100.968 72.3494 100.784 72.4358C100.601 72.5125 100.418 72.6085 100.254 72.7237C100.08 72.8389 99.9255 72.9637 99.7807 73.1076C99.636 73.2516 99.5105 73.4052 99.3947 73.578C99.2789 73.7507 99.1824 73.9331 99.1052 74.1155C99.028 74.2978 98.97 74.4994 98.9314 74.6914C98.8928 74.8929 98.8735 75.0945 98.8735 75.296C98.8735 75.4976 98.8928 75.6992 98.9314 75.9007C98.97 76.1023 99.028 76.2943 99.1052 76.4862C99.1824 76.6686 99.2789 76.851 99.3947 77.0141C99.5105 77.1869 99.636 77.3405 99.7807 77.4844C99.9255 77.6284 100.08 77.7532 100.254 77.8684C100.418 77.9836 100.601 78.0795 100.784 78.1563C100.968 78.2331 101.17 78.2907 101.364 78.3291C101.566 78.3675 101.769 78.3867 101.972 78.3867C102.174 78.3867 102.377 78.3675 102.58 78.3291C102.782 78.2907 102.975 78.2331 103.168 78.1563C103.352 78.0795 103.535 77.9836 103.699 77.8684C103.873 77.7532 104.027 77.6284 104.172 77.4844C104.317 77.3405 104.442 77.1869 104.558 77.0141C104.674 76.8414 104.77 76.6686 104.848 76.4862C104.925 76.2943 104.992 76.1023 105.021 75.9007C105.06 75.6992 105.079 75.4976 105.079 75.296C105.079 75.0945 105.06 74.8929 105.021 74.6914C104.983 74.4898 104.925 74.2978 104.848 74.1155Z" fill="#363636"/>
  <path d="M117.51 74.1153C117.433 73.9329 117.336 73.7505 117.22 73.5778C117.104 73.405 116.979 73.2514 116.834 73.1074C116.11 72.3876 115.039 72.0612 114.026 72.2628C113.823 72.3012 113.63 72.3588 113.437 72.4356C113.254 72.5123 113.07 72.6083 112.906 72.7235C112.733 72.8387 112.578 72.9635 112.433 73.1074C112.289 73.2514 112.163 73.405 112.047 73.5778C111.931 73.7505 111.835 73.9329 111.758 74.1153C111.681 74.2976 111.623 74.4992 111.584 74.6912C111.545 74.8927 111.526 75.0943 111.526 75.2958C111.526 75.4974 111.545 75.699 111.584 75.9005C111.623 76.1021 111.681 76.2941 111.758 76.486C111.835 76.6684 111.931 76.8508 112.047 77.0139C112.163 77.1867 112.289 77.3403 112.433 77.4843C112.578 77.6282 112.733 77.753 112.906 77.8682C113.08 77.9834 113.254 78.0793 113.437 78.1561C113.63 78.2329 113.823 78.2905 114.026 78.3289C114.228 78.3673 114.431 78.3865 114.634 78.3865C115.454 78.3865 116.255 78.0601 116.834 77.4747C116.979 77.3307 117.104 77.1771 117.22 77.0043C117.336 76.8316 117.433 76.6588 117.51 76.4764C117.587 76.2845 117.645 76.0925 117.683 75.8909C117.722 75.6894 117.741 75.4878 117.741 75.2862C117.741 75.0847 117.722 74.8831 117.683 74.6816C117.645 74.48 117.587 74.288 117.51 74.1057V74.1153Z" fill="#363636"/>
  <g clip-path="url(#clip1_8216_57149)">
  <path d="M130.319 153.048C129.57 153.152 128.808 153.053 128.089 152.75C125.965 151.844 124.974 149.383 125.886 147.265C126.33 146.239 127.149 145.446 128.189 145.032C129.229 144.619 130.377 144.633 131.4 145.068C133.525 145.973 134.515 148.435 133.604 150.553C133.159 151.579 132.34 152.372 131.3 152.785C130.977 152.917 130.646 153.003 130.311 153.049L130.319 153.048Z" fill="#A8E6E8"/>
  <path d="M129.619 137.686C128.714 139.812 129.695 142.286 131.813 143.211C133.93 144.128 136.386 143.14 137.291 141.014L138.698 137.706C138.698 137.706 138.722 137.685 138.746 137.664C138.811 137.619 138.892 137.563 139.008 137.502C139.241 137.38 139.551 137.238 139.906 137.099C140.607 136.822 141.433 136.546 142.063 136.332L142.098 136.328C145.989 135.024 152.072 133.003 155.027 126.053C158.195 118.59 154.743 109.894 147.319 106.684C139.903 103.464 131.285 106.922 128.117 114.386C127.213 116.521 128.193 118.986 130.312 119.911C132.429 120.827 134.886 119.849 135.789 117.714C137.157 114.501 140.854 113.018 144.043 114.396C147.233 115.773 148.722 119.512 147.354 122.725C145.887 126.176 142.891 127.194 139.425 128.349L139.348 128.377C136.324 129.381 132.619 130.614 131.042 134.304L129.61 137.687L129.619 137.686Z" fill="#A8E6E8"/>
  <path d="M130.444 153.574C129.604 153.69 128.75 153.576 127.943 153.231C125.56 152.199 124.445 149.403 125.462 147.001C125.959 145.838 126.876 144.939 128.04 144.472C129.205 144.005 130.492 144.023 131.64 144.518C134.023 145.55 135.139 148.346 134.121 150.748C133.625 151.911 132.708 152.81 131.543 153.277C131.181 153.426 130.811 153.523 130.435 153.575L130.444 153.574ZM129.297 145.23C129.009 145.27 128.716 145.347 128.438 145.457C127.534 145.816 126.821 146.516 126.44 147.421C125.649 149.28 126.507 151.448 128.358 152.249C129.251 152.636 130.243 152.651 131.146 152.292C132.05 151.933 132.763 151.233 133.144 150.328C133.934 148.469 133.068 146.302 131.225 145.5C130.609 145.236 129.944 145.14 129.288 145.231L129.297 145.23ZM134.097 144.042C133.257 144.159 132.403 144.045 131.605 143.698C129.222 142.666 128.107 139.87 129.134 137.476L130.567 134.093C132.227 130.175 136.086 128.894 139.188 127.871C142.603 126.732 145.483 125.776 146.87 122.515C148.116 119.579 146.76 116.153 143.836 114.891C142.422 114.281 140.858 114.256 139.432 114.831C138.006 115.406 136.885 116.504 136.283 117.924C135.786 119.087 134.878 119.985 133.713 120.452C132.549 120.919 131.271 120.899 130.114 120.405C127.73 119.373 126.615 116.578 127.634 114.185C129.221 110.439 132.176 107.552 135.931 106.035C139.685 104.517 143.813 104.58 147.535 106.188C155.226 109.522 158.81 118.523 155.519 126.255C152.47 133.424 146.09 135.549 142.275 136.824C141.627 137.039 140.801 137.316 140.1 137.592C139.771 137.728 139.476 137.85 139.261 137.969C139.211 137.994 139.161 138.019 139.121 138.051L137.776 141.225C137.279 142.389 136.371 143.286 135.198 143.755C134.834 143.895 134.465 144 134.098 144.051L134.097 144.042ZM140.642 113.416C141.858 113.247 143.103 113.415 144.251 113.91C147.708 115.411 149.32 119.457 147.839 122.936C146.263 126.636 143.027 127.714 139.594 128.855C136.467 129.891 133.008 131.035 131.535 134.514L130.103 137.897C129.312 139.756 130.17 141.924 132.02 142.717C132.913 143.104 133.904 143.118 134.808 142.759C135.712 142.4 136.425 141.7 136.806 140.795L138.261 137.382L138.436 137.232C138.508 137.177 138.623 137.107 138.763 137.025C139.003 136.893 139.322 136.75 139.711 136.597C140.437 136.308 141.28 136.029 141.894 135.827C145.82 134.519 151.69 132.572 154.541 125.834C157.595 118.638 154.269 110.265 147.119 107.161C143.662 105.659 139.821 105.61 136.328 107.02C132.824 108.422 130.083 111.117 128.61 114.596C127.819 116.455 128.685 118.613 130.527 119.415C131.42 119.802 132.411 119.817 133.315 119.458C134.219 119.099 134.923 118.4 135.305 117.504C136.022 115.817 137.347 114.52 139.034 113.837C139.558 113.63 140.099 113.483 140.641 113.407L140.642 113.416Z" fill="#52CFD2"/>
  </g>
  <g clip-path="url(#clip2_8216_57149)">
  <path d="M111.723 129.338C112.376 129.278 113.033 129.394 113.644 129.685C115.449 130.555 116.208 132.728 115.333 134.528C114.906 135.399 114.164 136.054 113.246 136.371C112.328 136.688 111.334 136.63 110.464 136.213C108.659 135.343 107.9 133.17 108.775 131.371C109.202 130.499 109.944 129.844 110.862 129.527C111.147 129.426 111.437 129.365 111.73 129.338L111.723 129.338Z" fill="#A8E6E8"/>
  <path d="M111.712 142.682C112.582 140.875 111.831 138.692 110.032 137.806C108.233 136.927 106.065 137.685 105.195 139.492L103.842 142.304C103.842 142.304 103.82 142.321 103.799 142.339C103.741 142.375 103.668 142.421 103.565 142.469C103.358 142.565 103.084 142.676 102.771 142.782C102.152 142.994 101.425 143.201 100.87 143.361L100.84 143.364C97.4139 144.339 92.0604 145.849 89.2194 151.755C86.1731 158.099 88.8155 165.774 95.1218 168.852C101.421 171.939 109.03 169.283 112.077 162.939C112.946 161.125 112.196 158.949 110.396 158.063C108.598 157.184 106.429 157.935 105.56 159.749C104.245 162.48 100.981 163.618 98.2715 162.298C95.5621 160.977 94.422 157.676 95.7363 154.946C97.1472 152.012 99.7847 151.25 102.836 150.386L102.903 150.365C105.565 149.615 108.827 148.694 110.342 145.557L111.719 142.682L111.712 142.682Z" fill="#A8E6E8"/>
  <path d="M111.635 128.878C112.368 128.81 113.104 128.944 113.789 129.275C115.813 130.264 116.668 132.732 115.689 134.774C115.212 135.762 114.381 136.505 113.353 136.864C112.324 137.222 111.21 137.155 110.234 136.68C108.21 135.691 107.355 133.223 108.334 131.181C108.811 130.193 109.642 129.45 110.67 129.092C110.99 128.977 111.315 128.908 111.643 128.878L111.635 128.878ZM112.294 136.156C112.545 136.133 112.802 136.078 113.048 135.994C113.846 135.719 114.492 135.14 114.859 134.371C115.619 132.791 114.962 130.877 113.39 130.109C112.632 129.738 111.773 129.686 110.975 129.961C110.177 130.236 109.531 130.815 109.164 131.584C108.404 133.164 109.068 135.077 110.633 135.846C111.157 136.099 111.729 136.209 112.301 136.156L112.294 136.156ZM108.086 136.995C108.818 136.927 109.554 137.06 110.231 137.393C112.256 138.382 113.11 140.85 112.123 142.884L110.745 145.76C109.148 149.09 105.752 150.047 103.022 150.811C100.016 151.662 97.4812 152.376 96.1476 155.148C94.9497 157.643 95.987 160.667 98.4706 161.877C99.6721 162.462 101.027 162.546 102.286 162.104C103.545 161.662 104.561 160.755 105.14 159.548C105.617 158.56 106.441 157.818 107.469 157.459C108.498 157.101 109.604 157.169 110.588 157.643C112.612 158.632 113.466 161.1 112.487 163.134C110.961 166.318 108.283 168.702 104.967 169.868C101.652 171.035 98.076 170.816 94.9149 169.274C88.382 166.078 85.6374 158.133 88.801 151.562C91.7322 145.469 97.3478 143.881 100.706 142.927C101.276 142.766 102.003 142.559 102.622 142.347C102.913 142.243 103.173 142.149 103.364 142.054C103.409 142.034 103.453 142.015 103.489 141.988L104.783 139.29C105.26 138.302 106.084 137.56 107.12 137.201C107.441 137.094 107.764 137.017 108.085 136.987L108.086 136.995ZM101.18 163.283C100.12 163.381 99.0472 163.186 98.0715 162.711C95.1355 161.272 93.9008 157.701 95.3248 154.744C96.839 151.6 99.688 150.794 102.71 149.941C105.462 149.168 108.506 148.313 109.923 145.356L111.3 142.48C112.06 140.9 111.404 138.987 109.832 138.227C109.074 137.856 108.215 137.804 107.417 138.079C106.62 138.354 105.973 138.933 105.607 139.702L104.208 142.603L104.051 142.726C103.986 142.771 103.883 142.827 103.758 142.892C103.545 142.997 103.263 143.109 102.92 143.225C102.279 143.447 101.536 143.655 100.996 143.806C97.5401 144.784 92.3737 146.238 89.6314 151.965C86.6946 158.082 89.2411 165.472 95.3146 168.447C98.2507 169.887 101.578 170.082 104.663 168.999C107.756 167.923 110.241 165.695 111.657 162.738C112.418 161.158 111.754 159.253 110.189 158.485C109.431 158.114 108.572 158.062 107.774 158.337C106.977 158.612 106.338 159.19 105.971 159.951C105.282 161.386 104.081 162.457 102.591 162.982C102.129 163.141 101.654 163.246 101.181 163.29L101.18 163.283Z" fill="#52CFD2"/>
  </g>
  <path d="M150.128 184.51H184.32V197.12H150.128V184.51Z" fill="#DCF5F6"/>
  <path d="M150.128 195.634V197.12H184.32V184.51H178.101C174.136 188.714 164.223 197.227 150.128 195.634Z" fill="#A8E6E8"/>
  <path d="M152.163 165.338C150.716 165.338 149.542 166.511 149.542 167.959V175.602C149.542 177.049 150.716 178.223 152.163 178.223H207.416C208.581 178.223 209.525 177.279 209.525 176.114V165.338H152.163Z" fill="#DCF5F6"/>
  <path d="M171.979 177.875C170.646 177.958 169.7 178.076 169.091 178.223H207.416C208.58 178.223 209.525 177.279 209.525 176.114V165.338H201.732C196.07 169.833 185.061 177.057 171.979 177.875Z" fill="#A8E6E8"/>
  <path d="M149.542 145.799H208.678V158.154H149.542V145.799Z" fill="#DCF5F6"/>
  <path d="M149.542 152.443V158.154H208.678V145.799H204.819C200.151 150.709 186.522 158.904 149.542 152.443Z" fill="#A8E6E8"/>
  <path d="M151.795 159.642H206.973C208.904 159.642 210.474 158.071 210.474 156.141V147.703C210.474 145.772 208.904 144.201 206.973 144.201H151.795C149.864 144.201 148.293 145.772 148.293 147.703V156.141C148.293 158.071 149.864 159.642 151.795 159.642ZM150.603 147.703C150.603 147.046 151.138 146.511 151.795 146.511H206.973C207.63 146.511 208.164 147.046 208.164 147.703V156.141C208.164 156.798 207.63 157.332 206.973 157.332H151.795C151.138 157.332 150.603 156.798 150.603 156.141V147.703Z" fill="#52CFD2"/>
  <path d="M159.549 153.077H186.297C186.935 153.077 187.452 152.559 187.452 151.922C187.452 151.284 186.935 150.767 186.297 150.767H159.549C158.911 150.767 158.394 151.284 158.394 151.922C158.394 152.559 158.911 153.077 159.549 153.077Z" fill="#52CFD2"/>
  <path d="M198.153 152.364C198.181 152.433 198.218 152.501 198.259 152.563C198.301 152.626 198.349 152.686 198.403 152.738C198.456 152.792 198.515 152.84 198.578 152.882C198.641 152.923 198.707 152.96 198.777 152.988C198.848 153.017 198.92 153.04 198.994 153.054C199.068 153.069 199.143 153.077 199.219 153.077C199.294 153.077 199.371 153.069 199.445 153.054C199.519 153.04 199.591 153.017 199.661 152.988C199.73 152.96 199.798 152.923 199.861 152.882C199.924 152.84 199.983 152.792 200.036 152.738C200.089 152.686 200.138 152.626 200.18 152.563C200.221 152.501 200.257 152.433 200.286 152.364C200.315 152.293 200.337 152.221 200.352 152.147C200.366 152.073 200.374 151.998 200.374 151.922C200.374 151.847 200.366 151.771 200.352 151.696C200.337 151.622 200.315 151.549 200.286 151.48C200.257 151.411 200.221 151.343 200.18 151.281C200.138 151.217 200.089 151.158 200.036 151.106C199.983 151.052 199.924 151.004 199.861 150.961C199.798 150.92 199.73 150.884 199.661 150.855C199.591 150.827 199.519 150.804 199.445 150.79C199.296 150.759 199.142 150.759 198.994 150.79C198.92 150.804 198.848 150.827 198.777 150.855C198.707 150.884 198.641 150.92 198.578 150.961C198.515 151.004 198.456 151.052 198.403 151.106C198.187 151.32 198.064 151.619 198.064 151.922C198.064 151.998 198.071 152.073 198.087 152.147C198.102 152.221 198.124 152.293 198.153 152.364Z" fill="#52CFD2"/>
  <path d="M184.563 176.762H151.795C151.138 176.762 150.603 176.228 150.603 175.571V167.133C150.603 166.476 151.138 165.941 151.795 165.941H206.973C207.63 165.941 208.164 166.476 208.164 167.133V172.161C208.164 172.798 208.681 173.316 209.319 173.316C209.957 173.316 210.474 172.798 210.474 172.161V167.133C210.474 165.202 208.904 163.631 206.973 163.631H151.795C149.864 163.631 148.293 165.202 148.293 167.133V175.571C148.293 177.502 149.864 179.072 151.795 179.072H184.563C185.201 179.072 185.718 178.555 185.718 177.917C185.718 177.279 185.201 176.762 184.563 176.762Z" fill="#52CFD2"/>
  <path d="M187.452 171.352C187.452 170.714 186.935 170.197 186.297 170.197H159.549C158.911 170.197 158.394 170.714 158.394 171.352C158.394 171.99 158.911 172.507 159.549 172.507H186.297C186.935 172.507 187.452 171.99 187.452 171.352Z" fill="#52CFD2"/>
  <path d="M200.18 170.71C200.138 170.647 200.089 170.588 200.036 170.535C199.983 170.482 199.924 170.434 199.861 170.391C199.798 170.35 199.73 170.314 199.661 170.285C199.591 170.257 199.519 170.234 199.445 170.22C199.296 170.19 199.142 170.19 198.994 170.22C198.92 170.234 198.848 170.257 198.777 170.285C198.707 170.314 198.641 170.35 198.578 170.391C198.515 170.434 198.456 170.482 198.403 170.535C198.187 170.75 198.064 171.047 198.064 171.352C198.064 171.656 198.187 171.953 198.403 172.168C198.456 172.222 198.515 172.27 198.578 172.312C198.641 172.353 198.707 172.39 198.777 172.418C198.848 172.447 198.92 172.469 198.994 172.484C199.068 172.5 199.143 172.507 199.219 172.507C199.294 172.507 199.371 172.5 199.445 172.484C199.519 172.469 199.591 172.447 199.661 172.418C199.73 172.39 199.798 172.353 199.861 172.312C199.924 172.27 199.983 172.222 200.036 172.168C200.089 172.116 200.138 172.056 200.18 171.993C200.221 171.93 200.257 171.864 200.286 171.794C200.315 171.723 200.337 171.651 200.352 171.577C200.366 171.503 200.374 171.428 200.374 171.352C200.374 171.277 200.366 171.201 200.352 171.126C200.337 171.052 200.315 170.98 200.286 170.91C200.257 170.841 200.221 170.773 200.18 170.71Z" fill="#52CFD2"/>
  <path d="M184.563 196.489H151.795C151.138 196.489 150.603 195.954 150.603 195.297V186.859C150.603 186.202 151.138 185.668 151.795 185.668H184.355C184.993 185.668 185.51 185.151 185.51 184.513C185.51 183.875 184.993 183.358 184.355 183.358H151.795C149.864 183.358 148.293 184.929 148.293 186.859V195.297C148.293 197.228 149.864 198.799 151.795 198.799H184.563C185.201 198.799 185.718 198.282 185.718 197.644C185.718 197.006 185.201 196.489 184.563 196.489Z" fill="#52CFD2"/>
  <path d="M159.549 189.923C158.911 189.923 158.394 190.44 158.394 191.078C158.394 191.716 158.911 192.233 159.549 192.233H177.487C178.125 192.233 178.642 191.716 178.642 191.078C178.642 190.44 178.125 189.923 177.487 189.923H159.549Z" fill="#52CFD2"/>
  <path d="M192.116 152.882C192.179 152.923 192.245 152.96 192.316 152.988C192.386 153.017 192.458 153.039 192.532 153.054C192.606 153.069 192.683 153.077 192.758 153.077C193.062 153.077 193.359 152.954 193.574 152.738C193.79 152.524 193.913 152.225 193.913 151.922C193.913 151.847 193.906 151.771 193.89 151.696C193.875 151.623 193.853 151.549 193.824 151.48C193.796 151.411 193.759 151.343 193.718 151.281C193.676 151.217 193.628 151.158 193.574 151.106C193.307 150.836 192.906 150.713 192.532 150.79C192.458 150.804 192.386 150.827 192.316 150.855C192.245 150.884 192.179 150.92 192.116 150.961C192.053 151.004 191.994 151.052 191.941 151.106C191.888 151.158 191.839 151.217 191.797 151.281C191.756 151.343 191.72 151.411 191.691 151.48C191.662 151.549 191.64 151.623 191.625 151.696C191.611 151.771 191.603 151.847 191.603 151.922C191.603 152.225 191.726 152.524 191.941 152.738C191.994 152.792 192.053 152.84 192.116 152.882Z" fill="#52CFD2"/>
  <path d="M193.718 170.71C193.676 170.647 193.629 170.588 193.575 170.535C193.307 170.267 192.906 170.143 192.532 170.22C192.458 170.234 192.386 170.257 192.317 170.285C192.246 170.314 192.18 170.35 192.116 170.391C192.053 170.433 191.995 170.482 191.941 170.535C191.889 170.588 191.839 170.647 191.798 170.71C191.756 170.773 191.721 170.841 191.691 170.91C191.662 170.98 191.641 171.052 191.625 171.126C191.611 171.201 191.604 171.277 191.604 171.352C191.604 171.656 191.727 171.953 191.941 172.168C191.995 172.222 192.053 172.27 192.116 172.312C192.179 172.353 192.246 172.39 192.317 172.418C192.386 172.447 192.458 172.469 192.532 172.484C192.606 172.5 192.683 172.507 192.758 172.507C193.062 172.507 193.359 172.384 193.575 172.168C193.629 172.116 193.676 172.056 193.718 171.993C193.759 171.93 193.797 171.864 193.824 171.794C193.854 171.723 193.875 171.651 193.891 171.577C193.906 171.503 193.914 171.428 193.914 171.352C193.914 171.277 193.906 171.201 193.891 171.126C193.875 171.052 193.854 170.98 193.824 170.91C193.797 170.841 193.76 170.773 193.718 170.71Z" fill="#52CFD2"/>
  <path d="M203.712 200.408L208.232 196.041C208.234 196.039 208.235 196.038 208.236 196.037C208.256 196.017 208.275 195.997 208.293 195.976C208.301 195.966 208.309 195.955 208.317 195.945C208.327 195.932 208.337 195.92 208.346 195.906C208.355 195.894 208.362 195.882 208.37 195.869C208.377 195.857 208.385 195.845 208.392 195.832C208.399 195.82 208.405 195.807 208.411 195.794C208.418 195.781 208.425 195.768 208.431 195.754C208.436 195.742 208.44 195.729 208.445 195.716C208.45 195.702 208.456 195.687 208.461 195.672C208.465 195.66 208.467 195.647 208.471 195.635C208.475 195.619 208.479 195.604 208.482 195.589C208.485 195.574 208.487 195.56 208.489 195.546C208.491 195.532 208.494 195.518 208.495 195.503C208.498 195.478 208.499 195.452 208.499 195.427C208.499 195.423 208.5 195.42 208.5 195.417C208.5 195.413 208.499 195.41 208.499 195.406C208.499 195.381 208.498 195.355 208.495 195.33C208.494 195.315 208.491 195.301 208.489 195.287C208.487 195.273 208.485 195.259 208.482 195.244C208.479 195.229 208.475 195.214 208.471 195.198C208.467 195.186 208.465 195.173 208.461 195.161C208.456 195.146 208.45 195.131 208.445 195.117C208.44 195.104 208.436 195.092 208.431 195.079C208.425 195.065 208.418 195.052 208.411 195.039C208.405 195.026 208.399 195.013 208.392 195.001C208.385 194.988 208.377 194.976 208.37 194.964C208.362 194.951 208.355 194.939 208.346 194.927C208.337 194.913 208.327 194.901 208.317 194.888C208.309 194.878 208.301 194.867 208.293 194.857C208.275 194.836 208.256 194.816 208.236 194.796C208.235 194.795 208.234 194.794 208.232 194.792L203.712 190.425C203.356 190.08 202.777 190.08 202.421 190.425C202.064 190.77 202.064 191.328 202.421 191.673L205.382 194.534L191.913 194.534C191.409 194.534 191 194.929 191 195.417C191 195.904 191.409 196.299 191.913 196.299L205.382 196.299L202.421 199.16C202.242 199.332 202.153 199.558 202.153 199.784C202.153 200.01 202.242 200.236 202.421 200.408C202.777 200.753 203.356 200.753 203.712 200.408Z" fill="#363636"/>
  <path d="M197.079 189.826L194.118 186.965L207.587 186.965C208.091 186.965 208.5 186.57 208.5 186.083C208.5 185.596 208.091 185.201 207.587 185.201L194.118 185.201L197.079 182.34C197.436 181.995 197.436 181.436 197.079 181.091C196.723 180.747 196.144 180.747 195.788 181.091L191.267 185.459C191.266 185.461 191.264 185.463 191.262 185.464C191.243 185.483 191.225 185.503 191.208 185.523C191.203 185.528 191.199 185.534 191.194 185.54C191.18 185.557 191.167 185.574 191.154 185.592C191.151 185.597 191.148 185.602 191.145 185.607C191.132 185.627 191.119 185.646 191.108 185.667C191.106 185.67 191.105 185.674 191.103 185.678C191.091 185.7 191.08 185.722 191.07 185.745C191.069 185.747 191.068 185.75 191.067 185.753C191.057 185.777 191.048 185.801 191.04 185.826C191.039 185.829 191.038 185.832 191.037 185.835C191.03 185.859 191.023 185.884 191.018 185.909C191.016 185.916 191.016 185.924 191.015 185.931C191.011 185.952 191.007 185.973 191.005 185.995C191.002 186.024 191 186.053 191 186.083C191 186.113 191.002 186.142 191.005 186.171C191.007 186.193 191.011 186.214 191.015 186.235C191.016 186.242 191.016 186.25 191.018 186.257C191.023 186.282 191.03 186.307 191.037 186.331C191.038 186.334 191.039 186.337 191.04 186.34C191.048 186.365 191.057 186.39 191.067 186.414C191.068 186.416 191.069 186.419 191.07 186.421C191.08 186.444 191.091 186.466 191.103 186.488C191.105 186.492 191.106 186.496 191.108 186.499C191.119 186.52 191.132 186.539 191.145 186.559C191.148 186.564 191.151 186.569 191.154 186.574C191.167 186.592 191.18 186.609 191.194 186.626C191.199 186.632 191.203 186.638 191.208 186.643C191.225 186.663 191.243 186.683 191.262 186.702C191.264 186.703 191.266 186.705 191.268 186.707L195.788 191.075C196.144 191.419 196.723 191.419 197.079 191.075C197.436 190.73 197.436 190.171 197.079 189.826Z" fill="#363636"/>
  <circle cx="199.75" cy="193.084" r="13.2501" fill="#52CFD2"/>
  <path d="M195.648 198.268C195.373 198.268 195.098 198.167 194.88 197.949C194.46 197.529 194.46 196.834 194.88 196.414L203.083 188.214C203.503 187.793 204.199 187.793 204.619 188.214C205.04 188.634 205.04 189.329 204.619 189.749L196.416 197.949C196.214 198.167 195.924 198.268 195.648 198.268Z" fill="#F9F9FE"/>
  <path d="M203.851 198.268C203.576 198.268 203.301 198.167 203.083 197.949L194.88 189.749C194.46 189.329 194.46 188.634 194.88 188.214C195.3 187.793 195.996 187.793 196.416 188.214L204.619 196.414C205.04 196.834 205.04 197.529 204.619 197.949C204.402 198.167 204.127 198.268 203.851 198.268Z" fill="#F9F9FE"/>
  </g>
  <defs>
  <linearGradient id="paint0_linear_8216_57149" x1="236.69" y1="72.9974" x2="-8.29753" y2="72.9974" gradientUnits="userSpaceOnUse">
  <stop stop-color="#B44B92"/>
  <stop offset="1" stop-color="#732280"/>
  </linearGradient>
  <clipPath id="clip0_8216_57149">
  <rect width="164" height="151" fill="white" transform="translate(68 58)"/>
  </clipPath>
  <clipPath id="clip1_8216_57149">
  <rect width="35.5128" height="46.7832" fill="white" transform="matrix(0.990468 -0.137742 0.139231 0.99026 119.286 107.892)"/>
  </clipPath>
  <clipPath id="clip2_8216_57149">
  <rect width="30.8182" height="40.5941" fill="white" transform="matrix(-0.995741 0.0921923 -0.0931998 -0.995647 119.47 168.92)"/>
  </clipPath>
  </defs>
</svg>
