<svg width="44" height="44" viewBox="0 0 44 44" fill="none" xmlns="http://www.w3.org/2000/svg">
  <path d="M12.16 30.2C11.44 30.2 10.7201 30.02 10.0601 29.64C8.72006 28.88 7.92004 27.52 7.92004 26V18.86C7.92004 18.34 7.58003 17.46 7.16003 16.96L2.12 11.66C1.18 10.74 0.5 9.13998 0.5 7.91998V4.82001C0.5 2.40001 2.33995 0.47998 4.69995 0.47998H22.5C24.82 0.47998 26.7 2.35999 26.7 4.67999V7.64001C26.7 9.20001 25.8 10.92 24.92 11.8L19.0601 16.98C18.6001 17.36 18.22 18.28 18.22 18.96V24.76C18.22 26.14 17.38 27.68 16.28 28.34L14.4399 29.54C13.7199 29.98 12.94 30.2 12.16 30.2ZM4.69995 3.5C4.01995 3.5 3.5 4.08003 3.5 4.84003V7.94C3.5 8.28 3.84003 9.14002 4.28003 9.58002L9.43994 15C10.1999 15.94 10.9399 17.48 10.9399 18.86V26C10.9399 26.6 11.3201 26.9 11.5601 27.02C11.8801 27.2 12.4 27.3 12.84 27.02L14.7 25.82C14.94 25.68 15.22 25.12 15.22 24.78V18.98C15.22 17.4 16 15.66 17.1 14.72L22.86 9.62C23.22 9.26 23.7 8.28001 23.7 7.64001V4.67999C23.7 4.01999 23.16 3.47998 22.5 3.47998H4.69995V3.5Z" fill="#B44B92"/>
  <path d="M28 43.5H16C5.14 43.5 0.5 38.86 0.5 28V22C0.5 21.18 1.18 20.5 2 20.5C2.82 20.5 3.5 21.18 3.5 22V28C3.5 37.22 6.78 40.5 16 40.5H28C37.22 40.5 40.5 37.22 40.5 28V16C40.5 10.2 39.14 6.83995 36.08 5.09995C35.76 4.91995 34.7 4.44 31.66 3.96C30.84 3.84 30.28 3.05997 30.42 2.23997C30.56 1.41997 31.34 0.859978 32.14 0.999978C34.76 1.41998 36.5401 1.89996 37.5601 2.47996C41.6001 4.77996 43.5 9.07998 43.5 16V28C43.5 38.86 38.86 43.5 28 43.5Z" fill="#B44B92"/>
  <path d="M34 25.5H24C23.18 25.5 22.5 24.82 22.5 24C22.5 23.18 23.18 22.5 24 22.5H34C34.82 22.5 35.5 23.18 35.5 24C35.5 24.82 34.82 25.5 34 25.5Z" fill="#B44B92"/>
  <path d="M34 33.5H20C19.18 33.5 18.5 32.82 18.5 32C18.5 31.18 19.18 30.5 20 30.5H34C34.82 30.5 35.5 31.18 35.5 32C35.5 32.82 34.82 33.5 34 33.5Z" fill="#B44B92"/>
  <path d="M33.7746 17.2149C33.3946 17.2149 33.0146 17.075 32.7146 16.775L28.4946 12.555C27.9146 11.975 27.9146 11.015 28.4946 10.435C29.0746 9.855 30.0346 9.855 30.6146 10.435L34.8346 14.655C35.4146 15.235 35.4146 16.195 34.8346 16.775C34.5346 17.075 34.1546 17.2149 33.7746 17.2149Z" fill="#B44B92"/>
  <path d="M29.495 17.215C29.115 17.215 28.735 17.075 28.435 16.775C27.855 16.195 27.855 15.235 28.435 14.655L32.655 10.435C33.235 9.855 34.195 9.855 34.775 10.435C35.355 11.015 35.355 11.975 34.775 12.555L30.555 16.775C30.255 17.075 29.875 17.215 29.495 17.215Z" fill="#B44B92"/>
</svg>
