<svg width="289" height="233" viewBox="0 0 289 233" fill="none" xmlns="http://www.w3.org/2000/svg">
<path fillRule="evenodd" clipRule="evenodd" d="M62.4949 127.039C58.2923 118.156 49.1983 112 38.6662 112C26.9429 112 16.9975 119.629 13.6012 130.158C6.01727 130.618 -0.0745183 136.657 0.000688934 144.528C0.00670551 145.269 77.9996 145.036 77.9996 144.528C78.0448 132.622 73.9264 126.932 64.4413 126.932C63.7855 126.932 63.1357 126.968 62.4949 127.039Z" fill="#DCF5F6"/>
<path fillRule="evenodd" clipRule="evenodd" d="M272.31 153.202C267.986 144.223 258.628 138 247.79 138C235.726 138 225.491 145.711 221.996 156.354C214.192 156.819 207.923 162.924 208.001 170.88C208.007 171.629 288.266 171.393 288.266 170.88C288.312 158.845 284.074 153.093 274.313 153.093C273.638 153.093 272.97 153.13 272.31 153.202Z" fill="#DCF5F6"/>
<path fillRule="evenodd" clipRule="evenodd" d="M219.085 13.2163C215.314 5.40989 207.152 0 197.7 0C187.18 0 178.254 6.70396 175.206 15.9567C168.4 16.3609 162.933 21.6684 163.001 28.585C163.006 29.236 233 29.0313 233 28.585C233.04 18.1222 229.344 13.1218 220.832 13.1218C220.243 13.1218 219.66 13.1533 219.085 13.2163Z" fill="#DCF5F6"/>
<path fillRule="evenodd" clipRule="evenodd" d="M52.2584 205.808H54.2353C55.2645 205.808 56.0992 206.646 56.0992 207.678C56.0992 208.71 55.2634 209.547 54.2353 209.547H52.2584V211.529C52.2584 212.561 51.4226 213.399 50.3944 213.399C49.3663 213.399 48.5294 212.561 48.5294 211.529V209.547H46.5525C45.5232 209.547 44.6875 208.709 44.6875 207.678C44.6875 206.647 45.5232 205.808 46.5525 205.808H48.5294V203.826C48.5294 202.794 49.3652 201.956 50.3944 201.956C51.4237 201.956 52.2584 202.794 52.2584 203.826V205.808Z" fill="#D9A4C8"/>
<path fillRule="evenodd" clipRule="evenodd" d="M35.773 221.513V222.661C35.773 223.283 35.2706 223.786 34.6508 223.786C34.031 223.786 33.5287 223.283 33.5287 222.661V221.513C33.5287 220.891 34.031 220.387 34.6508 220.387C35.2706 220.387 35.773 220.892 35.773 221.513ZM31.1221 217.997H32.2678C32.8876 217.997 33.3899 218.501 33.3899 219.122C33.3899 219.744 32.8865 220.247 32.2678 220.247H31.1221C30.5023 220.247 30 219.742 30 219.122C30 218.502 30.5023 217.997 31.1221 217.997ZM37.035 217.997H38.1806C38.8004 217.997 39.3027 218.501 39.3027 219.122C39.3027 219.744 38.8004 220.247 38.1806 220.247H37.035C36.4151 220.247 35.9128 219.742 35.9128 219.122C35.9128 218.502 36.4163 217.997 37.035 217.997ZM35.7741 215.584V216.733C35.7741 217.354 35.2717 217.858 34.6519 217.858C34.0321 217.858 33.5298 217.354 33.5298 216.733V215.584C33.5298 214.963 34.0321 214.459 34.6519 214.459C35.2717 214.459 35.7741 214.963 35.7741 215.584Z" fill="#D9A4C8"/>
<path fillRule="evenodd" clipRule="evenodd" d="M73.0034 215.79V216.939C73.0034 217.56 72.5011 218.064 71.8813 218.064C71.2615 218.064 70.7591 217.559 70.7591 216.939V215.79C70.7591 215.168 71.2626 214.665 71.8813 214.665C72.5 214.665 73.0034 215.17 73.0034 215.79ZM68.3526 212.274H69.4983C70.1181 212.274 70.6215 212.779 70.6215 213.399C70.6215 214.02 70.1181 214.525 69.4983 214.525H68.3526C67.7328 214.525 67.2305 214.02 67.2305 213.399C67.2305 212.779 67.7339 212.274 68.3526 212.274ZM74.2654 212.274H75.4111C76.0309 212.274 76.5332 212.779 76.5332 213.399C76.5332 214.02 76.0309 214.525 75.4111 214.525H74.2654C73.6456 214.525 73.1433 214.02 73.1433 213.399C73.1433 212.779 73.6456 212.274 74.2654 212.274ZM73.0045 209.861V211.01C73.0045 211.632 72.5022 212.135 71.8824 212.135C71.2626 212.135 70.7603 211.632 70.7603 211.01V209.861C70.7603 209.24 71.2637 208.736 71.8824 208.736C72.5011 208.736 73.0045 209.241 73.0045 209.861Z" fill="#D9A4C8"/>
<path d="M37.4877 199.912C37.6135 199.131 37.0845 198.397 36.3062 198.27C35.5279 198.144 34.7949 198.675 34.6692 199.455C34.5434 200.236 35.0724 200.97 35.8507 201.097C36.629 201.223 37.362 200.692 37.4877 199.912Z" fill="#D9A4C8"/>
<path d="M65.7987 193.863C66.5871 193.863 67.2262 193.222 67.2262 192.431C67.2262 191.641 66.5871 191 65.7987 191C65.0102 191 64.3711 191.641 64.3711 192.431C64.3711 193.222 65.0102 193.863 65.7987 193.863Z" fill="#D9A4C8"/>
<path d="M58.0807 225.103C58.8101 224.802 59.1586 223.966 58.8592 223.235C58.5598 222.504 57.7258 222.154 56.9964 222.454C56.267 222.755 55.9185 223.591 56.2179 224.322C56.5174 225.053 57.3514 225.403 58.0807 225.103Z" fill="#D9A4C8"/>
<path fillRule="evenodd" clipRule="evenodd" d="M273.709 216.448V218.289C273.709 219.285 274.514 220.093 275.507 220.093C276.501 220.093 277.306 219.285 277.306 218.289V216.448C277.306 215.454 276.499 214.644 275.507 214.644C274.516 214.644 273.709 215.454 273.709 216.448ZM281.164 210.813H279.327C278.334 210.813 277.527 211.622 277.527 212.616C277.527 213.611 278.334 214.42 279.327 214.42H281.164C282.157 214.42 282.962 213.612 282.962 212.616C282.962 211.62 282.157 210.813 281.164 210.813ZM271.686 210.813H269.85C268.856 210.813 268.051 211.622 268.051 212.616C268.051 213.611 268.856 214.42 269.85 214.42H271.686C272.678 214.42 273.485 213.612 273.485 212.616C273.485 211.62 272.678 210.813 271.686 210.813ZM273.707 206.945V208.786C273.707 209.782 274.512 210.59 275.506 210.59C276.499 210.59 277.304 209.781 277.304 208.786V206.945C277.304 205.949 276.497 205.142 275.506 205.142C274.514 205.142 273.707 205.949 273.707 206.945Z" fill="#D9A4C8"/>
<path fillRule="evenodd" clipRule="evenodd" d="M246.074 199.602V201.443C246.074 202.439 246.881 203.247 247.873 203.247C248.865 203.247 249.672 202.439 249.672 201.443V199.602C249.672 198.606 248.866 197.799 247.873 197.799C246.879 197.799 246.074 198.606 246.074 199.602ZM253.531 193.967H251.694C250.703 193.967 249.896 194.776 249.896 195.772C249.896 196.768 250.703 197.576 251.694 197.576H253.531C254.524 197.576 255.33 196.768 255.33 195.772C255.33 194.776 254.524 193.967 253.531 193.967ZM244.053 193.967H242.217C241.223 193.967 240.418 194.776 240.418 195.772C240.418 196.768 241.223 197.576 242.217 197.576H244.053C245.047 197.576 245.852 196.768 245.852 195.772C245.852 194.776 245.045 193.967 244.053 193.967ZM246.074 190.099V191.94C246.074 192.937 246.881 193.744 247.873 193.744C248.865 193.744 249.672 192.935 249.672 191.94V190.099C249.672 189.103 248.866 188.294 247.873 188.294C246.879 188.294 246.074 189.103 246.074 190.099Z" fill="#D9A4C8"/>
<path d="M273.222 190.589C274.486 190.589 275.51 189.561 275.51 188.294C275.51 187.027 274.486 186 273.222 186C271.958 186 270.934 187.027 270.934 188.294C270.934 189.561 271.958 190.589 273.222 190.589Z" fill="#D9A4C8"/>
<path d="M257.616 232.1C258.88 232.1 259.905 231.073 259.905 229.806C259.905 228.539 258.88 227.512 257.616 227.512C256.353 227.512 255.328 228.539 255.328 229.806C255.328 231.073 256.353 232.1 257.616 232.1Z" fill="#D9A4C8"/>
<path d="M225.288 217.205C226.552 217.205 227.577 216.178 227.577 214.911C227.577 213.643 226.552 212.616 225.288 212.616C224.025 212.616 223 213.643 223 214.911C223 216.178 224.025 217.205 225.288 217.205Z" fill="#D9A4C8"/>
<path fillRule="evenodd" clipRule="evenodd" d="M54.2522 25.6546L54.2522 23.8134C54.2522 22.8172 53.447 22.0099 52.4534 22.0099C51.4599 22.0099 50.6547 22.8172 50.6547 23.8134L50.6547 25.6546C50.6547 26.6489 51.4617 27.4581 52.4534 27.4581C53.4452 27.4581 54.2522 26.6489 54.2522 25.6546ZM46.7972 31.2898L48.6336 31.2898C49.6271 31.2898 50.4341 30.4807 50.4341 29.4863C50.4341 28.492 49.6271 27.6828 48.6336 27.6828L46.7972 27.6828C45.8037 27.6828 44.9985 28.4902 44.9985 29.4863C44.9985 30.4825 45.8037 31.2898 46.7972 31.2898ZM56.2751 31.2898L58.1114 31.2898C59.1049 31.2898 59.9102 30.4807 59.9102 29.4863C59.9102 28.492 59.1049 27.6828 58.1114 27.6828L56.2751 27.6828C55.2833 27.6828 54.4763 28.4902 54.4763 29.4863C54.4763 30.4825 55.2833 31.2898 56.2751 31.2898ZM54.254 35.1575L54.254 33.3162C54.254 32.3201 53.4487 31.5128 52.4552 31.5128C51.4617 31.5128 50.6565 32.3219 50.6565 33.3162L50.6565 35.1575C50.6565 36.1536 51.4635 36.9609 52.4552 36.9609C53.447 36.9609 54.254 36.1536 54.254 35.1575Z" fill="#D9A4C8"/>
<path fillRule="evenodd" clipRule="evenodd" d="M81.8868 42.5005L81.8868 40.6592C81.8868 39.6631 81.0798 38.8557 80.088 38.8557C79.0963 38.8557 78.2894 39.6631 78.2894 40.6592L78.2894 42.5005C78.2894 43.4966 79.0945 44.3039 80.088 44.3039C81.0816 44.3039 81.8868 43.4966 81.8868 42.5005ZM74.4301 48.1357L76.2665 48.1357C77.2582 48.1357 78.0652 47.3265 78.0652 46.3304C78.0652 45.3342 77.2582 44.5269 76.2665 44.5269L74.4301 44.5269C73.4366 44.5269 72.6314 45.3342 72.6314 46.3304C72.6314 47.3265 73.4366 48.1357 74.4301 48.1357ZM83.9079 48.1357L85.7442 48.1357C86.7378 48.1357 87.543 47.3265 87.543 46.3304C87.543 45.3342 86.7378 44.5269 85.7442 44.5269L83.9079 44.5269C82.9144 44.5269 82.1091 45.3342 82.1091 46.3304C82.1091 47.3265 82.9162 48.1357 83.9079 48.1357ZM81.8868 52.0033L81.8868 50.1621C81.8868 49.1659 81.0798 48.3586 80.088 48.3586C79.0963 48.3586 78.2894 49.1677 78.2894 50.1621L78.2894 52.0033C78.2894 52.9994 79.0945 53.8086 80.088 53.8086C81.0816 53.8086 81.8868 52.9995 81.8868 52.0033Z" fill="#D9A4C8"/>
<path d="M54.739 51.5138C53.4752 51.5138 52.4507 52.5411 52.4507 53.8082C52.4507 55.0753 53.4752 56.1025 54.739 56.1025C56.0028 56.1025 57.0273 55.0753 57.0273 53.8082C57.0273 52.5411 56.0028 51.5138 54.739 51.5138Z" fill="#D9A4C8"/>
<path d="M70.3445 10.0002C69.0807 10.0002 68.0562 11.0274 68.0562 12.2945C68.0562 13.5616 69.0807 14.5889 70.3445 14.5889C71.6083 14.5889 72.6328 13.5616 72.6328 12.2945C72.6328 11.0274 71.6083 10.0002 70.3445 10.0002Z" fill="#D9A4C8"/>
<path d="M102.673 24.8976C101.409 24.8976 100.384 25.9248 100.384 27.192C100.384 28.4591 101.409 29.4863 102.673 29.4863C103.936 29.4863 104.961 28.4591 104.961 27.192C104.961 25.9248 103.936 24.8976 102.673 24.8976Z" fill="#D9A4C8"/>
<g clip-path="url(#clip0_4724_36153)">
<path d="M190.37 49H104.13C89.71 49 78 60.68 78 75.08V185.6C78 200 89.71 211.69 104.13 211.69H190.37C204.79 211.69 216.5 200.01 216.5 185.6V75.08C216.5 60.68 204.79 49 190.37 49Z" fill="#F8EDF5"/>
<path d="M193.956 143.453C193.956 156.119 188.939 167.621 180.79 176.07C172.24 184.931 160.244 190.437 146.96 190.437C133.675 190.437 121.674 184.925 113.129 176.064C104.974 167.616 99.957 156.119 99.957 143.453C99.957 117.505 121 96.4678 146.954 96.4678C172.907 96.4678 193.95 117.505 193.95 143.453H193.956Z" fill="#F0DBE9"/>
<path d="M137.648 117.619C137.648 115.486 139.38 113.755 141.513 113.755H151.417C157.592 113.755 162.603 118.765 162.603 124.938V136.943H139.049L137.648 117.619Z" fill="#B44B92"/>
<path d="M133.957 138.332H130.648V122.222C130.648 118.618 134.341 116.19 137.649 117.619C138.399 121.625 133.957 138.332 133.957 138.332Z" fill="#B44B92"/>
<path d="M154.127 151.102C153.087 155.669 150.268 158.942 146.959 158.942C143.65 158.942 140.825 155.657 139.785 151.091L140.583 147.989L140.825 147.062H153.087L153.997 150.606L154.08 150.925L154.127 151.102Z" fill="#E1B7D3"/>
<path d="M162.38 133.723C168.483 126.876 164.412 143.619 161.033 141.657C155.096 138.219 162.38 133.723 162.38 133.723Z" fill="#F4F4F4"/>
<path d="M180.783 176.07C177.609 179.355 173.963 182.179 169.957 184.435C163.776 187.915 156.732 190.03 149.221 190.384C148.471 190.426 147.714 190.444 146.952 190.444C143.164 190.444 139.482 189.995 135.955 189.15C131.038 187.974 126.429 186.025 122.251 183.437C118.9 181.363 115.839 178.888 113.121 176.07L113.931 172.88C115.154 168.088 118.93 164.366 123.746 163.214L124.278 163.09L130.181 161.678L131.794 161.294C132.474 161.129 133.124 160.899 133.739 160.603C134.253 160.355 134.743 160.066 135.204 159.735C135.701 159.38 136.167 158.979 136.587 158.535C137.716 157.348 138.549 155.883 138.974 154.235L139.601 151.801L139.766 151.145L139.778 151.092L140.582 147.99L140.818 147.062H153.08L153.996 150.607L154.078 150.926L154.126 151.103V151.145L154.303 151.806L154.929 154.235C155.514 156.491 156.868 158.423 158.705 159.735C159.71 160.461 160.862 160.999 162.109 161.294L163.598 161.649L170.158 163.214C174.974 164.366 178.75 168.088 179.973 172.88L180.783 176.07Z" fill="#F4F4F4"/>
<path d="M154.127 151.103C153.087 155.67 150.268 158.943 146.959 158.943C143.65 158.943 140.825 155.658 139.785 151.092L140.583 147.99L140.825 147.062H153.087L153.997 150.607L154.08 150.926L154.127 151.103Z" fill="#E1B7D3"/>
<path d="M131.53 133.723C125.427 126.876 129.497 143.619 132.876 141.657C138.814 138.219 131.53 133.723 131.53 133.723Z" fill="#F4F4F4"/>
<path d="M161.16 128.788C161.16 129.308 161.13 129.816 161.071 130.324C161.024 130.785 160.817 132.752 160.451 135.257C160.25 136.652 159.99 138.205 159.682 139.765C159.682 139.783 159.682 139.806 159.671 139.824C158.92 143.623 157.862 147.404 156.48 148.78C154.92 150.34 153.667 151.758 152.237 152.78C150.807 153.808 149.205 154.446 146.96 154.446C144.714 154.446 143.113 153.808 141.683 152.78C140.259 151.758 139 150.34 137.44 148.78C136.057 147.398 134.999 143.611 134.243 139.818C134.243 139.818 134.243 139.8 134.243 139.795C134.148 139.304 134.06 138.814 133.971 138.329C133.936 138.129 133.9 137.928 133.865 137.727C133.717 136.876 133.587 136.043 133.469 135.263C133.043 132.386 132.837 130.218 132.837 130.218C132.789 129.751 132.766 129.273 132.766 128.788C132.766 128.664 132.766 128.54 132.766 128.416C132.795 127.299 132.949 126.212 133.227 125.173C133.238 125.125 133.25 125.078 133.262 125.031C134.84 119.265 139.963 114.958 146.144 114.615C146.416 114.598 146.682 114.592 146.96 114.592C150.884 114.592 154.435 116.181 157.006 118.751C159.227 120.966 160.717 123.92 161.077 127.211C161.136 127.731 161.166 128.257 161.166 128.788H161.16Z" fill="#F4F4F4"/>
<path d="M149.183 141.556C149.183 142.536 148.185 143.328 146.95 143.328C145.715 143.328 144.723 142.536 144.723 141.556C144.723 141.437 144.734 141.319 144.77 141.213C144.965 142.028 145.869 142.643 146.95 142.643C148.031 142.643 148.941 142.028 149.136 141.213C149.171 141.325 149.183 141.437 149.183 141.556Z" fill="#F0DBE9"/>
<path d="M161.589 128.907C161.589 129.445 161.559 129.965 161.5 130.49C161.453 130.963 160.454 135.258 160.454 135.258C140.038 130.295 138.407 121.623 138.407 121.623C138.472 129.917 133.461 135.264 133.461 135.264C133.023 132.298 132.403 130.378 132.403 130.378C132.356 129.9 132.332 129.403 132.332 128.907C132.332 128.777 132.332 128.653 132.338 128.523C132.367 127.371 132.527 126.254 132.811 125.179C132.823 125.132 132.834 125.085 132.846 125.032C134.471 119.094 139.748 114.657 146.118 114.303C146.396 114.285 146.674 114.279 146.958 114.279C150.999 114.279 154.657 115.916 157.305 118.562C159.592 120.843 161.128 123.885 161.5 127.276C161.559 127.814 161.589 128.352 161.589 128.901V128.907Z" fill="#B44B92"/>
<path d="M180.783 176.099C172.232 184.955 160.236 190.467 146.952 190.467C133.668 190.467 121.666 184.955 113.121 176.093L113.931 172.909C115.154 168.112 118.93 164.39 123.746 163.238L130.193 161.702L131.794 161.318C132.515 161.146 133.213 160.892 133.863 160.567C137.136 164.053 141.787 166.233 146.952 166.233C152.117 166.233 156.767 164.053 160.041 160.567C160.691 160.886 161.382 161.146 162.109 161.318L163.51 161.654L170.158 163.238C174.974 164.39 178.75 168.112 179.967 172.909L180.783 176.099Z" fill="#C36FA8"/>
<path d="M163.512 161.654C162.07 163.403 156.769 168.939 146.954 169.329C135.644 169.784 130.503 162.162 130.195 161.702L131.797 161.318C132.518 161.146 133.215 160.892 133.865 160.567C137.139 164.053 141.789 166.233 146.954 166.233C152.119 166.233 156.769 164.053 160.043 160.567C160.693 160.886 161.385 161.146 162.111 161.318L163.512 161.654Z" fill="#B44B92"/>
<path d="M214.5 78.69V75.08C214.5 61.78 203.7 51 190.37 51H104.13C90.8 51 80 61.78 80 75.08V78.69H214.5Z" fill="url(#paint0_linear_4724_36153)"/>
<path d="M101.388 69.1498C103.768 69.1498 105.698 67.2198 105.698 64.8498C105.698 62.4798 103.768 60.5498 101.388 60.5498C99.0081 60.5498 97.0781 62.4798 97.0781 64.8498C97.0781 67.2198 99.0081 69.1498 101.388 69.1498Z" fill="#F8EDF5"/>
<path d="M113.79 69.1498C116.17 69.1498 118.1 67.2198 118.1 64.8498C118.1 62.4798 116.17 60.5498 113.79 60.5498C111.41 60.5498 109.48 62.4798 109.48 64.8498C109.48 67.2198 111.41 69.1498 113.79 69.1498Z" fill="#F8EDF5"/>
<path d="M126.189 69.1498C128.569 69.1498 130.499 67.2198 130.499 64.8498C130.499 62.4798 128.569 60.5498 126.189 60.5498C123.809 60.5498 121.879 62.4798 121.879 64.8498C121.879 67.2198 123.809 69.1498 126.189 69.1498Z" fill="#F8EDF5"/>
<path d="M190.37 47H104.13C88.62 47 76 59.6 76 75.08V185.6C76 201.09 88.62 213.68 104.13 213.68H190.37C205.88 213.68 218.5 201.08 218.5 185.6V75.08C218.5 59.59 205.88 47 190.37 47ZM104.13 51H190.37C203.68 51 214.5 61.8 214.5 75.08V76.69H80V75.08C80 61.8 90.83 51 104.13 51ZM190.37 209.69H104.13C90.82 209.69 80 198.89 80 185.61V80.69H214.5V185.6C214.5 198.88 203.68 209.68 190.37 209.68V209.69Z" fill="#363636"/>
</g>
<circle cx="216" cy="112" r="24" fill="#52CFD2"/>
<path d="M208.572 121.391C208.073 121.391 207.574 121.207 207.18 120.814C206.419 120.053 206.419 118.793 207.18 118.032L222.038 103.179C222.8 102.418 224.06 102.418 224.821 103.179C225.582 103.94 225.582 105.2 224.821 105.961L209.963 120.814C209.595 121.207 209.07 121.391 208.572 121.391Z" fill="#F9F9FE"/>
<path d="M223.43 121.391C222.931 121.391 222.432 121.207 222.038 120.814L207.18 105.961C206.419 105.2 206.419 103.94 207.18 103.179C207.942 102.418 209.202 102.418 209.963 103.179L224.821 118.032C225.582 118.793 225.582 120.053 224.821 120.814C224.427 121.207 223.928 121.391 223.43 121.391Z" fill="#F9F9FE"/>
<defs>
<linearGradient id="paint0_linear_4724_36153" x1="220.777" y1="62.3028" x2="11.674" y2="62.3028" gradientUnits="userSpaceOnUse">
<stop stop-color="#B44B92"/>
<stop offset="1" stop-color="#732280"/>
</linearGradient>
<clipPath id="clip0_4724_36153">
<rect width="142.5" height="166.69" fill="white" transform="translate(76 47)"/>
</clipPath>
</defs>
</svg>
