<svg width="44" height="63" viewBox="0 0 44 63" fill="none" xmlns="http://www.w3.org/2000/svg">
  <path d="M40.3469 28.3268C36.5465 22.703 31.1735 19.7306 26.9172 17.767C23.2193 16.0623 19.1032 14.0474 16.0957 12.5774C14.6851 11.8869 13.4659 11.2908 12.6918 10.924C10.3937 9.7965 7.75308 7.92459 5.43342 5.77487C3.2729 3.91105 2.13465 2.1794 1.97012 1.85033L1.03686 0L0.707795 2.04723C-1.49318 15.6927 1.22567 22.1096 11.8799 27.8844C11.6398 28.1002 11.4456 28.2755 11.2487 28.4455C3.04903 35.48 2.09419 47.8847 9.12059 56.0979C12.4733 60.0144 17.1827 62.3907 22.3831 62.7845C22.8956 62.8222 23.4054 62.8438 23.9151 62.8438C28.541 62.8438 33.0184 61.2524 36.6625 58.2881C40.614 55.073 43.0739 49.7917 43.5945 43.4153C44.0557 37.7511 42.815 31.9708 40.3523 28.3295L40.3469 28.3268ZM31.1061 43.2238C31.1061 47.0081 28.0393 50.0776 24.2523 50.0776C20.4653 50.0776 17.3985 47.0108 17.3985 43.2238C17.3985 39.4369 20.468 36.3701 24.2523 36.3701C28.0366 36.3701 31.1061 39.4369 31.1061 43.2238ZM15.443 31.31C15.9959 30.9135 16.4275 30.722 16.8645 30.722C17.1854 30.722 17.5091 30.8245 17.884 31.0268C18.9279 31.5851 19.9852 32.1326 21.0399 32.6721C16.5138 34.0477 13.2205 38.2501 13.2205 43.2265C13.2205 49.3197 18.1592 54.2557 24.2496 54.2557C30.3401 54.2557 35.2788 49.317 35.2788 43.2265C35.2788 42.4767 35.2032 41.7457 35.0603 41.039C36.4089 42.4929 37.2478 44.0977 37.6281 45.9211C37.8978 47.2131 37.7522 48.7586 37.2559 49.8618C34.9605 54.9543 29.7952 58.2126 24.0554 58.2126C23.9799 58.2126 23.9044 58.2126 23.8315 58.2126C17.385 58.1182 11.7612 53.905 9.84077 47.731C7.95268 41.6675 10.2049 35.07 15.4403 31.3154L15.443 31.31ZM26.1836 21.9855L26.4614 22.1123C30.332 23.8844 33.5417 26.2607 35.74 28.9849C37.6146 31.3073 38.8014 34.6492 39.0954 38.3418C34.653 33.9452 29.2261 31.3127 23.9637 28.7556C22.8875 28.2324 21.7762 27.6929 20.6892 27.1454C14.9872 24.2782 10.7902 21.6375 7.48065 18.8378C4.65661 16.448 3.63704 11.5282 3.41316 7.99203C8.85357 14.0474 18.3965 18.417 26.1836 21.9801V21.9855Z" fill="url(#paint0_linear_2299_41852)"/>
  <defs>
  <linearGradient id="paint0_linear_2299_41852" x1="45.4475" y1="25.6523" x2="3.90947" y2="25.6523" gradientUnits="userSpaceOnUse">
  <stop stop-color="#B44B92"/>
  <stop offset="1" stop-color="#732280"/>
  </linearGradient>
  </defs>
</svg>
